M48
; DRILL file {KiCad (6.0.9)} date Fri 13 Jan 2023 11:22:40 PM CST
; FORMAT={-:-/ absolute / metric / decimal}
; #@! TF.CreationDate,2023-01-13T23:22:40-06:00
; #@! TF.GenerationSoftware,Kicad,Pcbnew,(6.0.9)
; #@! TF.FileFunction,MixedPlating,1,2
FMAT,2
METRIC
; #@! TA.AperFunction,Plated,PTH,ViaDrill
T1C0.400
; #@! TA.AperFunction,Plated,PTH,ComponentDrill
T2C0.800
; #@! TA.AperFunction,Plated,PTH,ComponentDrill
T3C0.950
; #@! TA.AperFunction,Plated,PTH,ComponentDrill
T4C1.000
; #@! TA.AperFunction,NonPlated,NPTH,ComponentDrill
T5C2.200
%
G90
G05
T1
X66.108Y-97.8
X66.8Y-83.638
X91.5Y-59.9
X106.832Y-91.237
X112.425Y-85.6
T2
X68.4Y-77.7
X68.4Y-79.7
X68.4Y-81.7
X68.4Y-83.7
T3
X68.0Y-90.3
X68.0Y-92.8
X68.0Y-95.3
X68.0Y-97.8
X84.0Y-61.775
X86.5Y-61.775
X89.0Y-61.775
X91.5Y-61.775
X94.0Y-61.775
X110.5Y-80.65
X110.5Y-83.15
X110.5Y-85.65
X110.5Y-88.15
T4
X77.574Y-75.565
X77.574Y-78.105
X77.574Y-80.645
X77.574Y-83.185
X77.574Y-85.725
X77.574Y-88.265
X77.574Y-90.805
X77.574Y-93.345
X100.434Y-75.565
X100.434Y-78.105
X100.434Y-80.645
X100.434Y-83.185
X100.434Y-85.725
X100.434Y-88.265
X100.434Y-90.805
X100.434Y-93.345
T5
X60.6Y-56.65
X60.6Y-104.75
X117.75Y-56.65
X117.75Y-104.75
T0
M30
