%TF.GenerationSoftware,KiCad,Pcbnew,(6.0.9)*%
%TF.CreationDate,2023-01-13T23:22:46-06:00*%
%TF.ProjectId,PlantHumidifier,506c616e-7448-4756-9d69-646966696572,A*%
%TF.SameCoordinates,Original*%
%TF.FileFunction,Legend,Bot*%
%TF.FilePolarity,Positive*%
%FSLAX46Y46*%
G04 Gerber Fmt 4.6, Leading zero omitted, Abs format (unit mm)*
G04 Created by KiCad (PCBNEW (6.0.9)) date 2023-01-13 23:22:46*
%MOMM*%
%LPD*%
G01*
G04 APERTURE LIST*
%ADD10C,0.010000*%
G04 APERTURE END LIST*
%TO.C,REF\u002A\u002A*%
G36*
X86617825Y-93166121D02*
G01*
X86617615Y-93168014D01*
X86599535Y-93256325D01*
X86566870Y-93324986D01*
X86518601Y-93375506D01*
X86453713Y-93409393D01*
X86441801Y-93413268D01*
X86367971Y-93424688D01*
X86291614Y-93418320D01*
X86220626Y-93395563D01*
X86162904Y-93357819D01*
X86119667Y-93317872D01*
X86165625Y-93281532D01*
X86211583Y-93245193D01*
X86266969Y-93272101D01*
X86331056Y-93293905D01*
X86387632Y-93294558D01*
X86433920Y-93274525D01*
X86467230Y-93234315D01*
X86479171Y-93210222D01*
X86485837Y-93189630D01*
X86481980Y-93175720D01*
X86464675Y-93167181D01*
X86430997Y-93162704D01*
X86378021Y-93160978D01*
X86302822Y-93160693D01*
X86120495Y-93160693D01*
X86120495Y-93073492D01*
X86121857Y-93035210D01*
X86250234Y-93035210D01*
X86256399Y-93042251D01*
X86274654Y-93045916D01*
X86309352Y-93047306D01*
X86364846Y-93047525D01*
X86394603Y-93047176D01*
X86441562Y-93044867D01*
X86473416Y-93040822D01*
X86485148Y-93035542D01*
X86482146Y-93016062D01*
X86460988Y-92978786D01*
X86425731Y-92948164D01*
X86383699Y-92929668D01*
X86342220Y-92928773D01*
X86310997Y-92943604D01*
X86275618Y-92977355D01*
X86253122Y-93019233D01*
X86251805Y-93023690D01*
X86250234Y-93035210D01*
X86121857Y-93035210D01*
X86122136Y-93027371D01*
X86126955Y-92981740D01*
X86133840Y-92950893D01*
X86138859Y-92939117D01*
X86175390Y-92886667D01*
X86228175Y-92842921D01*
X86289904Y-92814279D01*
X86322102Y-92806457D01*
X86398820Y-92802896D01*
X86467179Y-92821009D01*
X86525299Y-92858779D01*
X86571302Y-92914191D01*
X86603310Y-92985229D01*
X86612900Y-93035542D01*
X86619444Y-93069878D01*
X86617825Y-93166121D01*
G37*
D10*
X86617825Y-93166121D02*
X86617615Y-93168014D01*
X86599535Y-93256325D01*
X86566870Y-93324986D01*
X86518601Y-93375506D01*
X86453713Y-93409393D01*
X86441801Y-93413268D01*
X86367971Y-93424688D01*
X86291614Y-93418320D01*
X86220626Y-93395563D01*
X86162904Y-93357819D01*
X86119667Y-93317872D01*
X86165625Y-93281532D01*
X86211583Y-93245193D01*
X86266969Y-93272101D01*
X86331056Y-93293905D01*
X86387632Y-93294558D01*
X86433920Y-93274525D01*
X86467230Y-93234315D01*
X86479171Y-93210222D01*
X86485837Y-93189630D01*
X86481980Y-93175720D01*
X86464675Y-93167181D01*
X86430997Y-93162704D01*
X86378021Y-93160978D01*
X86302822Y-93160693D01*
X86120495Y-93160693D01*
X86120495Y-93073492D01*
X86121857Y-93035210D01*
X86250234Y-93035210D01*
X86256399Y-93042251D01*
X86274654Y-93045916D01*
X86309352Y-93047306D01*
X86364846Y-93047525D01*
X86394603Y-93047176D01*
X86441562Y-93044867D01*
X86473416Y-93040822D01*
X86485148Y-93035542D01*
X86482146Y-93016062D01*
X86460988Y-92978786D01*
X86425731Y-92948164D01*
X86383699Y-92929668D01*
X86342220Y-92928773D01*
X86310997Y-92943604D01*
X86275618Y-92977355D01*
X86253122Y-93019233D01*
X86251805Y-93023690D01*
X86250234Y-93035210D01*
X86121857Y-93035210D01*
X86122136Y-93027371D01*
X86126955Y-92981740D01*
X86133840Y-92950893D01*
X86138859Y-92939117D01*
X86175390Y-92886667D01*
X86228175Y-92842921D01*
X86289904Y-92814279D01*
X86322102Y-92806457D01*
X86398820Y-92802896D01*
X86467179Y-92821009D01*
X86525299Y-92858779D01*
X86571302Y-92914191D01*
X86603310Y-92985229D01*
X86612900Y-93035542D01*
X86619444Y-93069878D01*
X86617825Y-93166121D01*
G36*
X89882605Y-92807424D02*
G01*
X89939926Y-92825434D01*
X89965199Y-92837674D01*
X89977910Y-92838938D01*
X89980792Y-92827798D01*
X89980795Y-92827461D01*
X89987006Y-92816087D01*
X90008428Y-92810256D01*
X90049950Y-92808614D01*
X90119109Y-92808614D01*
X90119109Y-93412179D01*
X89980792Y-93412179D01*
X89980792Y-93204132D01*
X89980697Y-93133879D01*
X89980051Y-93076170D01*
X89978320Y-93035787D01*
X89974974Y-93008615D01*
X89969481Y-92990540D01*
X89961310Y-92977447D01*
X89949928Y-92965221D01*
X89934424Y-92952217D01*
X89889843Y-92934745D01*
X89843047Y-92939873D01*
X89800180Y-92967507D01*
X89787927Y-92980368D01*
X89779132Y-92993384D01*
X89773233Y-93010706D01*
X89769651Y-93036501D01*
X89767809Y-93074939D01*
X89767128Y-93130189D01*
X89767030Y-93206418D01*
X89767030Y-93412179D01*
X89628713Y-93412179D01*
X89628989Y-93188985D01*
X89629008Y-93179044D01*
X89630207Y-93084106D01*
X89633891Y-93010358D01*
X89641006Y-92954214D01*
X89652500Y-92912087D01*
X89669318Y-92880391D01*
X89692409Y-92855541D01*
X89722717Y-92833950D01*
X89754012Y-92819002D01*
X89817037Y-92805421D01*
X89882605Y-92807424D01*
G37*
X89882605Y-92807424D02*
X89939926Y-92825434D01*
X89965199Y-92837674D01*
X89977910Y-92838938D01*
X89980792Y-92827798D01*
X89980795Y-92827461D01*
X89987006Y-92816087D01*
X90008428Y-92810256D01*
X90049950Y-92808614D01*
X90119109Y-92808614D01*
X90119109Y-93412179D01*
X89980792Y-93412179D01*
X89980792Y-93204132D01*
X89980697Y-93133879D01*
X89980051Y-93076170D01*
X89978320Y-93035787D01*
X89974974Y-93008615D01*
X89969481Y-92990540D01*
X89961310Y-92977447D01*
X89949928Y-92965221D01*
X89934424Y-92952217D01*
X89889843Y-92934745D01*
X89843047Y-92939873D01*
X89800180Y-92967507D01*
X89787927Y-92980368D01*
X89779132Y-92993384D01*
X89773233Y-93010706D01*
X89769651Y-93036501D01*
X89767809Y-93074939D01*
X89767128Y-93130189D01*
X89767030Y-93206418D01*
X89767030Y-93412179D01*
X89628713Y-93412179D01*
X89628989Y-93188985D01*
X89629008Y-93179044D01*
X89630207Y-93084106D01*
X89633891Y-93010358D01*
X89641006Y-92954214D01*
X89652500Y-92912087D01*
X89669318Y-92880391D01*
X89692409Y-92855541D01*
X89722717Y-92833950D01*
X89754012Y-92819002D01*
X89817037Y-92805421D01*
X89882605Y-92807424D01*
G36*
X90093960Y-94367822D02*
G01*
X89968218Y-94367822D01*
X89968218Y-94173740D01*
X89968078Y-94128594D01*
X89966649Y-94053823D01*
X89963029Y-93998467D01*
X89956434Y-93958702D01*
X89946079Y-93930700D01*
X89931178Y-93910635D01*
X89910946Y-93894681D01*
X89888859Y-93882792D01*
X89862705Y-93879421D01*
X89825508Y-93886917D01*
X89813555Y-93890038D01*
X89783718Y-93894735D01*
X89762383Y-93888005D01*
X89737655Y-93867177D01*
X89732963Y-93862647D01*
X89707020Y-93834626D01*
X89690291Y-93811843D01*
X89687996Y-93806355D01*
X89692543Y-93786088D01*
X89715602Y-93769884D01*
X89751995Y-93758513D01*
X89796544Y-93752740D01*
X89844072Y-93753334D01*
X89889400Y-93761063D01*
X89927351Y-93776694D01*
X89939381Y-93783993D01*
X89959632Y-93794676D01*
X89967129Y-93792230D01*
X89968218Y-93776647D01*
X89968473Y-93771053D01*
X89974539Y-93758660D01*
X89993356Y-93753020D01*
X90031089Y-93751683D01*
X90093960Y-93751683D01*
X90093960Y-94367822D01*
G37*
X90093960Y-94367822D02*
X89968218Y-94367822D01*
X89968218Y-94173740D01*
X89968078Y-94128594D01*
X89966649Y-94053823D01*
X89963029Y-93998467D01*
X89956434Y-93958702D01*
X89946079Y-93930700D01*
X89931178Y-93910635D01*
X89910946Y-93894681D01*
X89888859Y-93882792D01*
X89862705Y-93879421D01*
X89825508Y-93886917D01*
X89813555Y-93890038D01*
X89783718Y-93894735D01*
X89762383Y-93888005D01*
X89737655Y-93867177D01*
X89732963Y-93862647D01*
X89707020Y-93834626D01*
X89690291Y-93811843D01*
X89687996Y-93806355D01*
X89692543Y-93786088D01*
X89715602Y-93769884D01*
X89751995Y-93758513D01*
X89796544Y-93752740D01*
X89844072Y-93753334D01*
X89889400Y-93761063D01*
X89927351Y-93776694D01*
X89939381Y-93783993D01*
X89959632Y-93794676D01*
X89967129Y-93792230D01*
X89968218Y-93776647D01*
X89968473Y-93771053D01*
X89974539Y-93758660D01*
X89993356Y-93753020D01*
X90031089Y-93751683D01*
X90093960Y-93751683D01*
X90093960Y-94367822D01*
G36*
X91209926Y-94365336D02*
G01*
X91143911Y-94361535D01*
X91140772Y-94160347D01*
X91139844Y-94111425D01*
X91137208Y-94037926D01*
X91132683Y-93983991D01*
X91125438Y-93945995D01*
X91114642Y-93920313D01*
X91099462Y-93903320D01*
X91079066Y-93891389D01*
X91040797Y-93879205D01*
X91002738Y-93883940D01*
X90962549Y-93909979D01*
X90923861Y-93942533D01*
X90923861Y-94367822D01*
X90785544Y-94367822D01*
X90785544Y-94137176D01*
X90785677Y-94064882D01*
X90786413Y-94000641D01*
X90788181Y-93953618D01*
X90791411Y-93919548D01*
X90796530Y-93894170D01*
X90803967Y-93873221D01*
X90814150Y-93852436D01*
X90816564Y-93848024D01*
X90848675Y-93805047D01*
X90886256Y-93775013D01*
X90931564Y-93759243D01*
X90991561Y-93752222D01*
X91051643Y-93756025D01*
X91100525Y-93770868D01*
X91137624Y-93790052D01*
X91137624Y-93374859D01*
X91086792Y-93401354D01*
X91065558Y-93410980D01*
X90998536Y-93424592D01*
X90931930Y-93415184D01*
X90870187Y-93383905D01*
X90817757Y-93331902D01*
X90809543Y-93319680D01*
X90801649Y-93301763D01*
X90796500Y-93277404D01*
X90793527Y-93241927D01*
X90792161Y-93190656D01*
X90791915Y-93137236D01*
X90924749Y-93137236D01*
X90924861Y-93181849D01*
X90928272Y-93211601D01*
X90935937Y-93232835D01*
X90948814Y-93251896D01*
X90965171Y-93269617D01*
X90991329Y-93283028D01*
X91030742Y-93286436D01*
X91065559Y-93283471D01*
X91100020Y-93268631D01*
X91122215Y-93238569D01*
X91134097Y-93190254D01*
X91137624Y-93120650D01*
X91136712Y-93083624D01*
X91127609Y-93013728D01*
X91108828Y-92966464D01*
X91080476Y-92942168D01*
X91051840Y-92935332D01*
X91001970Y-92938537D01*
X90959833Y-92958380D01*
X90949749Y-92967480D01*
X90939063Y-92983223D01*
X90932456Y-93006658D01*
X90928532Y-93043604D01*
X90925897Y-93099880D01*
X90924749Y-93137236D01*
X90791915Y-93137236D01*
X90791831Y-93118917D01*
X90791944Y-93086184D01*
X90793872Y-93010044D01*
X90799240Y-92953166D01*
X90809406Y-92911249D01*
X90825725Y-92879996D01*
X90849553Y-92855106D01*
X90882247Y-92832282D01*
X90908759Y-92819184D01*
X90971615Y-92804739D01*
X91037869Y-92806707D01*
X91096757Y-92825433D01*
X91122030Y-92837673D01*
X91134742Y-92838938D01*
X91137624Y-92827798D01*
X91137626Y-92827461D01*
X91143838Y-92816087D01*
X91165260Y-92810256D01*
X91206782Y-92808614D01*
X91275940Y-92808614D01*
X91275940Y-94369136D01*
X91209926Y-94365336D01*
G37*
X91209926Y-94365336D02*
X91143911Y-94361535D01*
X91140772Y-94160347D01*
X91139844Y-94111425D01*
X91137208Y-94037926D01*
X91132683Y-93983991D01*
X91125438Y-93945995D01*
X91114642Y-93920313D01*
X91099462Y-93903320D01*
X91079066Y-93891389D01*
X91040797Y-93879205D01*
X91002738Y-93883940D01*
X90962549Y-93909979D01*
X90923861Y-93942533D01*
X90923861Y-94367822D01*
X90785544Y-94367822D01*
X90785544Y-94137176D01*
X90785677Y-94064882D01*
X90786413Y-94000641D01*
X90788181Y-93953618D01*
X90791411Y-93919548D01*
X90796530Y-93894170D01*
X90803967Y-93873221D01*
X90814150Y-93852436D01*
X90816564Y-93848024D01*
X90848675Y-93805047D01*
X90886256Y-93775013D01*
X90931564Y-93759243D01*
X90991561Y-93752222D01*
X91051643Y-93756025D01*
X91100525Y-93770868D01*
X91137624Y-93790052D01*
X91137624Y-93374859D01*
X91086792Y-93401354D01*
X91065558Y-93410980D01*
X90998536Y-93424592D01*
X90931930Y-93415184D01*
X90870187Y-93383905D01*
X90817757Y-93331902D01*
X90809543Y-93319680D01*
X90801649Y-93301763D01*
X90796500Y-93277404D01*
X90793527Y-93241927D01*
X90792161Y-93190656D01*
X90791915Y-93137236D01*
X90924749Y-93137236D01*
X90924861Y-93181849D01*
X90928272Y-93211601D01*
X90935937Y-93232835D01*
X90948814Y-93251896D01*
X90965171Y-93269617D01*
X90991329Y-93283028D01*
X91030742Y-93286436D01*
X91065559Y-93283471D01*
X91100020Y-93268631D01*
X91122215Y-93238569D01*
X91134097Y-93190254D01*
X91137624Y-93120650D01*
X91136712Y-93083624D01*
X91127609Y-93013728D01*
X91108828Y-92966464D01*
X91080476Y-92942168D01*
X91051840Y-92935332D01*
X91001970Y-92938537D01*
X90959833Y-92958380D01*
X90949749Y-92967480D01*
X90939063Y-92983223D01*
X90932456Y-93006658D01*
X90928532Y-93043604D01*
X90925897Y-93099880D01*
X90924749Y-93137236D01*
X90791915Y-93137236D01*
X90791831Y-93118917D01*
X90791944Y-93086184D01*
X90793872Y-93010044D01*
X90799240Y-92953166D01*
X90809406Y-92911249D01*
X90825725Y-92879996D01*
X90849553Y-92855106D01*
X90882247Y-92832282D01*
X90908759Y-92819184D01*
X90971615Y-92804739D01*
X91037869Y-92806707D01*
X91096757Y-92825433D01*
X91122030Y-92837673D01*
X91134742Y-92838938D01*
X91137624Y-92827798D01*
X91137626Y-92827461D01*
X91143838Y-92816087D01*
X91165260Y-92810256D01*
X91206782Y-92808614D01*
X91275940Y-92808614D01*
X91275940Y-94369136D01*
X91209926Y-94365336D01*
G36*
X88729349Y-93193565D02*
G01*
X88713844Y-93269538D01*
X88686110Y-93327511D01*
X88643898Y-93371300D01*
X88584960Y-93404722D01*
X88562076Y-93412676D01*
X88502812Y-93422601D01*
X88440447Y-93422331D01*
X88387823Y-93411430D01*
X88386789Y-93411034D01*
X88344381Y-93386087D01*
X88301537Y-93347468D01*
X88265986Y-93303306D01*
X88245459Y-93261727D01*
X88239374Y-93231334D01*
X88234164Y-93174429D01*
X88233291Y-93123705D01*
X88359976Y-93123705D01*
X88367549Y-93184545D01*
X88385341Y-93234538D01*
X88412296Y-93267204D01*
X88422513Y-93272812D01*
X88461473Y-93283007D01*
X88506536Y-93285104D01*
X88544448Y-93278020D01*
X88559244Y-93267861D01*
X88580014Y-93232334D01*
X88593083Y-93176732D01*
X88597624Y-93103766D01*
X88597551Y-93082762D01*
X88595974Y-93040203D01*
X88590728Y-93012439D01*
X88579723Y-92991925D01*
X88560868Y-92971112D01*
X88524989Y-92945887D01*
X88478280Y-92935573D01*
X88433151Y-92945396D01*
X88395680Y-92973805D01*
X88371943Y-93019253D01*
X88363675Y-93058497D01*
X88359976Y-93123705D01*
X88233291Y-93123705D01*
X88233049Y-93109621D01*
X88235844Y-93045116D01*
X88242366Y-92989121D01*
X88252432Y-92949842D01*
X88275877Y-92905372D01*
X88325637Y-92850692D01*
X88389238Y-92816055D01*
X88464790Y-92802345D01*
X88550399Y-92810448D01*
X88564644Y-92813899D01*
X88630982Y-92843664D01*
X88680971Y-92892530D01*
X88714612Y-92960501D01*
X88731906Y-93047580D01*
X88732410Y-93103766D01*
X88732857Y-93153771D01*
X88729349Y-93193565D01*
G37*
X88729349Y-93193565D02*
X88713844Y-93269538D01*
X88686110Y-93327511D01*
X88643898Y-93371300D01*
X88584960Y-93404722D01*
X88562076Y-93412676D01*
X88502812Y-93422601D01*
X88440447Y-93422331D01*
X88387823Y-93411430D01*
X88386789Y-93411034D01*
X88344381Y-93386087D01*
X88301537Y-93347468D01*
X88265986Y-93303306D01*
X88245459Y-93261727D01*
X88239374Y-93231334D01*
X88234164Y-93174429D01*
X88233291Y-93123705D01*
X88359976Y-93123705D01*
X88367549Y-93184545D01*
X88385341Y-93234538D01*
X88412296Y-93267204D01*
X88422513Y-93272812D01*
X88461473Y-93283007D01*
X88506536Y-93285104D01*
X88544448Y-93278020D01*
X88559244Y-93267861D01*
X88580014Y-93232334D01*
X88593083Y-93176732D01*
X88597624Y-93103766D01*
X88597551Y-93082762D01*
X88595974Y-93040203D01*
X88590728Y-93012439D01*
X88579723Y-92991925D01*
X88560868Y-92971112D01*
X88524989Y-92945887D01*
X88478280Y-92935573D01*
X88433151Y-92945396D01*
X88395680Y-92973805D01*
X88371943Y-93019253D01*
X88363675Y-93058497D01*
X88359976Y-93123705D01*
X88233291Y-93123705D01*
X88233049Y-93109621D01*
X88235844Y-93045116D01*
X88242366Y-92989121D01*
X88252432Y-92949842D01*
X88275877Y-92905372D01*
X88325637Y-92850692D01*
X88389238Y-92816055D01*
X88464790Y-92802345D01*
X88550399Y-92810448D01*
X88564644Y-92813899D01*
X88630982Y-92843664D01*
X88680971Y-92892530D01*
X88714612Y-92960501D01*
X88731906Y-93047580D01*
X88732410Y-93103766D01*
X88732857Y-93153771D01*
X88729349Y-93193565D01*
G36*
X89098874Y-92808207D02*
G01*
X89171495Y-92826408D01*
X89224546Y-92860144D01*
X89258329Y-92909642D01*
X89273147Y-92975126D01*
X89270147Y-93037820D01*
X89248493Y-93090699D01*
X89206967Y-93129796D01*
X89144736Y-93155873D01*
X89060969Y-93169695D01*
X89006540Y-93176940D01*
X88956860Y-93192615D01*
X88931211Y-93215314D01*
X88929662Y-93244998D01*
X88939984Y-93263507D01*
X88971951Y-93285443D01*
X89017395Y-93295818D01*
X89070649Y-93294399D01*
X89126048Y-93280952D01*
X89177928Y-93255243D01*
X89229653Y-93221013D01*
X89275148Y-93267049D01*
X89320643Y-93313084D01*
X89282921Y-93343876D01*
X89268253Y-93354574D01*
X89226983Y-93378880D01*
X89182327Y-93399825D01*
X89146984Y-93411845D01*
X89095234Y-93420552D01*
X89031435Y-93420667D01*
X88953200Y-93411081D01*
X88882722Y-93386783D01*
X88832836Y-93348188D01*
X88803423Y-93295198D01*
X88794365Y-93227718D01*
X88800921Y-93168354D01*
X88821970Y-93119752D01*
X88859864Y-93084946D01*
X88917004Y-93061798D01*
X88995785Y-93048170D01*
X89004834Y-93047183D01*
X89053885Y-93040892D01*
X89093675Y-93034309D01*
X89116312Y-93028708D01*
X89123866Y-93024197D01*
X89136637Y-93000941D01*
X89134563Y-92971171D01*
X89117495Y-92945327D01*
X89108533Y-92939691D01*
X89071188Y-92930660D01*
X89022950Y-92931267D01*
X88972650Y-92940878D01*
X88929115Y-92958858D01*
X88883372Y-92985847D01*
X88847890Y-92944384D01*
X88839280Y-92933850D01*
X88819883Y-92905632D01*
X88811897Y-92886508D01*
X88820283Y-92874781D01*
X88846226Y-92856476D01*
X88883688Y-92836777D01*
X88888966Y-92834370D01*
X88938366Y-92815482D01*
X88985983Y-92806452D01*
X89045072Y-92804639D01*
X89098874Y-92808207D01*
G37*
X89098874Y-92808207D02*
X89171495Y-92826408D01*
X89224546Y-92860144D01*
X89258329Y-92909642D01*
X89273147Y-92975126D01*
X89270147Y-93037820D01*
X89248493Y-93090699D01*
X89206967Y-93129796D01*
X89144736Y-93155873D01*
X89060969Y-93169695D01*
X89006540Y-93176940D01*
X88956860Y-93192615D01*
X88931211Y-93215314D01*
X88929662Y-93244998D01*
X88939984Y-93263507D01*
X88971951Y-93285443D01*
X89017395Y-93295818D01*
X89070649Y-93294399D01*
X89126048Y-93280952D01*
X89177928Y-93255243D01*
X89229653Y-93221013D01*
X89275148Y-93267049D01*
X89320643Y-93313084D01*
X89282921Y-93343876D01*
X89268253Y-93354574D01*
X89226983Y-93378880D01*
X89182327Y-93399825D01*
X89146984Y-93411845D01*
X89095234Y-93420552D01*
X89031435Y-93420667D01*
X88953200Y-93411081D01*
X88882722Y-93386783D01*
X88832836Y-93348188D01*
X88803423Y-93295198D01*
X88794365Y-93227718D01*
X88800921Y-93168354D01*
X88821970Y-93119752D01*
X88859864Y-93084946D01*
X88917004Y-93061798D01*
X88995785Y-93048170D01*
X89004834Y-93047183D01*
X89053885Y-93040892D01*
X89093675Y-93034309D01*
X89116312Y-93028708D01*
X89123866Y-93024197D01*
X89136637Y-93000941D01*
X89134563Y-92971171D01*
X89117495Y-92945327D01*
X89108533Y-92939691D01*
X89071188Y-92930660D01*
X89022950Y-92931267D01*
X88972650Y-92940878D01*
X88929115Y-92958858D01*
X88883372Y-92985847D01*
X88847890Y-92944384D01*
X88839280Y-92933850D01*
X88819883Y-92905632D01*
X88811897Y-92886508D01*
X88820283Y-92874781D01*
X88846226Y-92856476D01*
X88883688Y-92836777D01*
X88888966Y-92834370D01*
X88938366Y-92815482D01*
X88985983Y-92806452D01*
X89045072Y-92804639D01*
X89098874Y-92808207D01*
G36*
X87262718Y-94106692D02*
G01*
X87247827Y-94196459D01*
X87217185Y-94267045D01*
X87170524Y-94318952D01*
X87107574Y-94352686D01*
X87087235Y-94358647D01*
X87014612Y-94366971D01*
X86937928Y-94359946D01*
X86868663Y-94338265D01*
X86844262Y-94325959D01*
X86809275Y-94304879D01*
X86788072Y-94287534D01*
X86784942Y-94283571D01*
X86779085Y-94269077D01*
X86787524Y-94253321D01*
X86813221Y-94229460D01*
X86825622Y-94219072D01*
X86850052Y-94200063D01*
X86862861Y-94192293D01*
X86866530Y-94193094D01*
X86887561Y-94201745D01*
X86918960Y-94216931D01*
X86929197Y-94221926D01*
X86989590Y-94240475D01*
X87042057Y-94235694D01*
X87088065Y-94207500D01*
X87093419Y-94202291D01*
X87119013Y-94169659D01*
X87133637Y-94138342D01*
X87141736Y-94103763D01*
X86761782Y-94103763D01*
X86761852Y-94037748D01*
X86761892Y-94031182D01*
X86767022Y-93978218D01*
X86900099Y-93978218D01*
X86901670Y-93989203D01*
X86909738Y-93996773D01*
X86928967Y-94000975D01*
X86964019Y-94002783D01*
X87019554Y-94003169D01*
X87050429Y-94002768D01*
X87096002Y-94000429D01*
X87127348Y-93996465D01*
X87139010Y-93991413D01*
X87129064Y-93949827D01*
X87099947Y-93911013D01*
X87057952Y-93884086D01*
X87009440Y-93874772D01*
X86973723Y-93885272D01*
X86938020Y-93910940D01*
X86910879Y-93944381D01*
X86900099Y-93978218D01*
X86767022Y-93978218D01*
X86769758Y-93949965D01*
X86792655Y-93883895D01*
X86832607Y-93826940D01*
X86856979Y-93802848D01*
X86907315Y-93770597D01*
X86967419Y-93754970D01*
X87043338Y-93753871D01*
X87080010Y-93758179D01*
X87147703Y-93780549D01*
X87199530Y-93821263D01*
X87235945Y-93880949D01*
X87257401Y-93960236D01*
X87259579Y-93991413D01*
X87264353Y-94059753D01*
X87262718Y-94106692D01*
G37*
X87262718Y-94106692D02*
X87247827Y-94196459D01*
X87217185Y-94267045D01*
X87170524Y-94318952D01*
X87107574Y-94352686D01*
X87087235Y-94358647D01*
X87014612Y-94366971D01*
X86937928Y-94359946D01*
X86868663Y-94338265D01*
X86844262Y-94325959D01*
X86809275Y-94304879D01*
X86788072Y-94287534D01*
X86784942Y-94283571D01*
X86779085Y-94269077D01*
X86787524Y-94253321D01*
X86813221Y-94229460D01*
X86825622Y-94219072D01*
X86850052Y-94200063D01*
X86862861Y-94192293D01*
X86866530Y-94193094D01*
X86887561Y-94201745D01*
X86918960Y-94216931D01*
X86929197Y-94221926D01*
X86989590Y-94240475D01*
X87042057Y-94235694D01*
X87088065Y-94207500D01*
X87093419Y-94202291D01*
X87119013Y-94169659D01*
X87133637Y-94138342D01*
X87141736Y-94103763D01*
X86761782Y-94103763D01*
X86761852Y-94037748D01*
X86761892Y-94031182D01*
X86767022Y-93978218D01*
X86900099Y-93978218D01*
X86901670Y-93989203D01*
X86909738Y-93996773D01*
X86928967Y-94000975D01*
X86964019Y-94002783D01*
X87019554Y-94003169D01*
X87050429Y-94002768D01*
X87096002Y-94000429D01*
X87127348Y-93996465D01*
X87139010Y-93991413D01*
X87129064Y-93949827D01*
X87099947Y-93911013D01*
X87057952Y-93884086D01*
X87009440Y-93874772D01*
X86973723Y-93885272D01*
X86938020Y-93910940D01*
X86910879Y-93944381D01*
X86900099Y-93978218D01*
X86767022Y-93978218D01*
X86769758Y-93949965D01*
X86792655Y-93883895D01*
X86832607Y-93826940D01*
X86856979Y-93802848D01*
X86907315Y-93770597D01*
X86967419Y-93754970D01*
X87043338Y-93753871D01*
X87080010Y-93758179D01*
X87147703Y-93780549D01*
X87199530Y-93821263D01*
X87235945Y-93880949D01*
X87257401Y-93960236D01*
X87259579Y-93991413D01*
X87264353Y-94059753D01*
X87262718Y-94106692D01*
G36*
X90707157Y-94201882D02*
G01*
X90691835Y-94266479D01*
X90657753Y-94315063D01*
X90603218Y-94350072D01*
X90575036Y-94358589D01*
X90526764Y-94365228D01*
X90473978Y-94366813D01*
X90426353Y-94363160D01*
X90393566Y-94354083D01*
X90373652Y-94346813D01*
X90354155Y-94354083D01*
X90347023Y-94358295D01*
X90318557Y-94365126D01*
X90280059Y-94367822D01*
X90219703Y-94367822D01*
X90219703Y-94152111D01*
X90358020Y-94152111D01*
X90362668Y-94188904D01*
X90381015Y-94221269D01*
X90391514Y-94228274D01*
X90428988Y-94239191D01*
X90475773Y-94241917D01*
X90521652Y-94236379D01*
X90556410Y-94222505D01*
X90573726Y-94204161D01*
X90584356Y-94171566D01*
X90574929Y-94145729D01*
X90543764Y-94123263D01*
X90493667Y-94108850D01*
X90427582Y-94103763D01*
X90358020Y-94103763D01*
X90358020Y-94152111D01*
X90219703Y-94152111D01*
X90219703Y-94124484D01*
X90219707Y-94103440D01*
X90219937Y-94024122D01*
X90220797Y-93965154D01*
X90222679Y-93922616D01*
X90225974Y-93892592D01*
X90231073Y-93871163D01*
X90238366Y-93854411D01*
X90248246Y-93838419D01*
X90280023Y-93800948D01*
X90325055Y-93772339D01*
X90384210Y-93756555D01*
X90462161Y-93751703D01*
X90464695Y-93751708D01*
X90518880Y-93754155D01*
X90567380Y-93760256D01*
X90600478Y-93768809D01*
X90609552Y-93773096D01*
X90638433Y-93791248D01*
X90664568Y-93812822D01*
X90681764Y-93832236D01*
X90683825Y-93843909D01*
X90679803Y-93847063D01*
X90635976Y-93880739D01*
X90606671Y-93900600D01*
X90587294Y-93908613D01*
X90573253Y-93906746D01*
X90559957Y-93896965D01*
X90535418Y-93884756D01*
X90494064Y-93876615D01*
X90447326Y-93874503D01*
X90405034Y-93878800D01*
X90377017Y-93889887D01*
X90375543Y-93891236D01*
X90362953Y-93916581D01*
X90358020Y-93954411D01*
X90358020Y-94003169D01*
X90474331Y-94003216D01*
X90527760Y-94004061D01*
X90572735Y-94007740D01*
X90604907Y-94015309D01*
X90630899Y-94027808D01*
X90636948Y-94031647D01*
X90680710Y-94073845D01*
X90703987Y-94129647D01*
X90705955Y-94171566D01*
X90707299Y-94200223D01*
X90707157Y-94201882D01*
G37*
X90707157Y-94201882D02*
X90691835Y-94266479D01*
X90657753Y-94315063D01*
X90603218Y-94350072D01*
X90575036Y-94358589D01*
X90526764Y-94365228D01*
X90473978Y-94366813D01*
X90426353Y-94363160D01*
X90393566Y-94354083D01*
X90373652Y-94346813D01*
X90354155Y-94354083D01*
X90347023Y-94358295D01*
X90318557Y-94365126D01*
X90280059Y-94367822D01*
X90219703Y-94367822D01*
X90219703Y-94152111D01*
X90358020Y-94152111D01*
X90362668Y-94188904D01*
X90381015Y-94221269D01*
X90391514Y-94228274D01*
X90428988Y-94239191D01*
X90475773Y-94241917D01*
X90521652Y-94236379D01*
X90556410Y-94222505D01*
X90573726Y-94204161D01*
X90584356Y-94171566D01*
X90574929Y-94145729D01*
X90543764Y-94123263D01*
X90493667Y-94108850D01*
X90427582Y-94103763D01*
X90358020Y-94103763D01*
X90358020Y-94152111D01*
X90219703Y-94152111D01*
X90219703Y-94124484D01*
X90219707Y-94103440D01*
X90219937Y-94024122D01*
X90220797Y-93965154D01*
X90222679Y-93922616D01*
X90225974Y-93892592D01*
X90231073Y-93871163D01*
X90238366Y-93854411D01*
X90248246Y-93838419D01*
X90280023Y-93800948D01*
X90325055Y-93772339D01*
X90384210Y-93756555D01*
X90462161Y-93751703D01*
X90464695Y-93751708D01*
X90518880Y-93754155D01*
X90567380Y-93760256D01*
X90600478Y-93768809D01*
X90609552Y-93773096D01*
X90638433Y-93791248D01*
X90664568Y-93812822D01*
X90681764Y-93832236D01*
X90683825Y-93843909D01*
X90679803Y-93847063D01*
X90635976Y-93880739D01*
X90606671Y-93900600D01*
X90587294Y-93908613D01*
X90573253Y-93906746D01*
X90559957Y-93896965D01*
X90535418Y-93884756D01*
X90494064Y-93876615D01*
X90447326Y-93874503D01*
X90405034Y-93878800D01*
X90377017Y-93889887D01*
X90375543Y-93891236D01*
X90362953Y-93916581D01*
X90358020Y-93954411D01*
X90358020Y-94003169D01*
X90474331Y-94003216D01*
X90527760Y-94004061D01*
X90572735Y-94007740D01*
X90604907Y-94015309D01*
X90630899Y-94027808D01*
X90636948Y-94031647D01*
X90680710Y-94073845D01*
X90703987Y-94129647D01*
X90705955Y-94171566D01*
X90707299Y-94200223D01*
X90707157Y-94201882D01*
G36*
X87470265Y-93759965D02*
G01*
X87508255Y-93777745D01*
X87541386Y-93803806D01*
X87541386Y-93777745D01*
X87542211Y-93767849D01*
X87549893Y-93757358D01*
X87570667Y-93752725D01*
X87610544Y-93751683D01*
X87679703Y-93751683D01*
X87679703Y-94367822D01*
X87541386Y-94367822D01*
X87541386Y-94167226D01*
X87541369Y-94155710D01*
X87540189Y-94074758D01*
X87537294Y-94008817D01*
X87532888Y-93961258D01*
X87527181Y-93935452D01*
X87521940Y-93925710D01*
X87489676Y-93895156D01*
X87445730Y-93881631D01*
X87397743Y-93887941D01*
X87385973Y-93892217D01*
X87360898Y-93899776D01*
X87343762Y-93897428D01*
X87326518Y-93882064D01*
X87301124Y-93850571D01*
X87259936Y-93798568D01*
X87288886Y-93775125D01*
X87316405Y-93761015D01*
X87364745Y-93751486D01*
X87419230Y-93751174D01*
X87470265Y-93759965D01*
G37*
X87470265Y-93759965D02*
X87508255Y-93777745D01*
X87541386Y-93803806D01*
X87541386Y-93777745D01*
X87542211Y-93767849D01*
X87549893Y-93757358D01*
X87570667Y-93752725D01*
X87610544Y-93751683D01*
X87679703Y-93751683D01*
X87679703Y-94367822D01*
X87541386Y-94367822D01*
X87541386Y-94167226D01*
X87541369Y-94155710D01*
X87540189Y-94074758D01*
X87537294Y-94008817D01*
X87532888Y-93961258D01*
X87527181Y-93935452D01*
X87521940Y-93925710D01*
X87489676Y-93895156D01*
X87445730Y-93881631D01*
X87397743Y-93887941D01*
X87385973Y-93892217D01*
X87360898Y-93899776D01*
X87343762Y-93897428D01*
X87326518Y-93882064D01*
X87301124Y-93850571D01*
X87259936Y-93798568D01*
X87288886Y-93775125D01*
X87316405Y-93761015D01*
X87364745Y-93751486D01*
X87419230Y-93751174D01*
X87470265Y-93759965D01*
G36*
X87780297Y-93004342D02*
G01*
X87781357Y-93092394D01*
X87785509Y-93163510D01*
X87793921Y-93215199D01*
X87807757Y-93250360D01*
X87828182Y-93271889D01*
X87856364Y-93282682D01*
X87893465Y-93285636D01*
X87928890Y-93283000D01*
X87957500Y-93272679D01*
X87978296Y-93251772D01*
X87992442Y-93217381D01*
X88001103Y-93166610D01*
X88005445Y-93096563D01*
X88006633Y-93004342D01*
X88006633Y-92808614D01*
X88132376Y-92808614D01*
X88132376Y-93044578D01*
X88132160Y-93107561D01*
X88130484Y-93189007D01*
X88126277Y-93251121D01*
X88118521Y-93297458D01*
X88106196Y-93331573D01*
X88088285Y-93357022D01*
X88063767Y-93377362D01*
X88031623Y-93396147D01*
X87964125Y-93419928D01*
X87893681Y-93421480D01*
X87827264Y-93399580D01*
X87798286Y-93385383D01*
X87783909Y-93383261D01*
X87780297Y-93393293D01*
X87774299Y-93404556D01*
X87752830Y-93410489D01*
X87711138Y-93412179D01*
X87641980Y-93412179D01*
X87641980Y-92808614D01*
X87780297Y-92808614D01*
X87780297Y-93004342D01*
G37*
X87780297Y-93004342D02*
X87781357Y-93092394D01*
X87785509Y-93163510D01*
X87793921Y-93215199D01*
X87807757Y-93250360D01*
X87828182Y-93271889D01*
X87856364Y-93282682D01*
X87893465Y-93285636D01*
X87928890Y-93283000D01*
X87957500Y-93272679D01*
X87978296Y-93251772D01*
X87992442Y-93217381D01*
X88001103Y-93166610D01*
X88005445Y-93096563D01*
X88006633Y-93004342D01*
X88006633Y-92808614D01*
X88132376Y-92808614D01*
X88132376Y-93044578D01*
X88132160Y-93107561D01*
X88130484Y-93189007D01*
X88126277Y-93251121D01*
X88118521Y-93297458D01*
X88106196Y-93331573D01*
X88088285Y-93357022D01*
X88063767Y-93377362D01*
X88031623Y-93396147D01*
X87964125Y-93419928D01*
X87893681Y-93421480D01*
X87827264Y-93399580D01*
X87798286Y-93385383D01*
X87783909Y-93383261D01*
X87780297Y-93393293D01*
X87774299Y-93404556D01*
X87752830Y-93410489D01*
X87711138Y-93412179D01*
X87641980Y-93412179D01*
X87641980Y-92808614D01*
X87780297Y-92808614D01*
X87780297Y-93004342D01*
G36*
X88274244Y-94259419D02*
G01*
X88241277Y-94308255D01*
X88191270Y-94343386D01*
X88186362Y-94345521D01*
X88131646Y-94360903D01*
X88069993Y-94366899D01*
X88011376Y-94363233D01*
X87965767Y-94349629D01*
X87947549Y-94340754D01*
X87934179Y-94338637D01*
X87931188Y-94349706D01*
X87925524Y-94359942D01*
X87903607Y-94366038D01*
X87861068Y-94367822D01*
X87790948Y-94367822D01*
X87794680Y-94147773D01*
X87931188Y-94147773D01*
X87935924Y-94180666D01*
X87956336Y-94216931D01*
X87963871Y-94223597D01*
X87994753Y-94237620D01*
X88041213Y-94241228D01*
X88069090Y-94239819D01*
X88121255Y-94229204D01*
X88153587Y-94209425D01*
X88164492Y-94181824D01*
X88152374Y-94147743D01*
X88145304Y-94138824D01*
X88113724Y-94118818D01*
X88063744Y-94107395D01*
X87992487Y-94103763D01*
X87931188Y-94103763D01*
X87931188Y-94147773D01*
X87794680Y-94147773D01*
X87795053Y-94125768D01*
X87796169Y-94069794D01*
X87799106Y-93985996D01*
X87804058Y-93921920D01*
X87812002Y-93874073D01*
X87823917Y-93838962D01*
X87840780Y-93813093D01*
X87863572Y-93792974D01*
X87893269Y-93775110D01*
X87908589Y-93768290D01*
X87961589Y-93755417D01*
X88025513Y-93750095D01*
X88091602Y-93752227D01*
X88151099Y-93761714D01*
X88195247Y-93778461D01*
X88210604Y-93788185D01*
X88245960Y-93817005D01*
X88257926Y-93841137D01*
X88255020Y-93845800D01*
X88236909Y-93862088D01*
X88207672Y-93883817D01*
X88192725Y-93893987D01*
X88167270Y-93908397D01*
X88150728Y-93909773D01*
X88135370Y-93899827D01*
X88097094Y-93879684D01*
X88045590Y-93871400D01*
X87992957Y-93877742D01*
X87991961Y-93878030D01*
X87954838Y-93894158D01*
X87936463Y-93919405D01*
X87931380Y-93961158D01*
X87931188Y-94000879D01*
X88062423Y-94005168D01*
X88083331Y-94005873D01*
X88136043Y-94008326D01*
X88171381Y-94012180D01*
X88195267Y-94018878D01*
X88213624Y-94029864D01*
X88232376Y-94046580D01*
X88263337Y-94085244D01*
X88286029Y-94142456D01*
X88288254Y-94181824D01*
X88289413Y-94202333D01*
X88274244Y-94259419D01*
G37*
X88274244Y-94259419D02*
X88241277Y-94308255D01*
X88191270Y-94343386D01*
X88186362Y-94345521D01*
X88131646Y-94360903D01*
X88069993Y-94366899D01*
X88011376Y-94363233D01*
X87965767Y-94349629D01*
X87947549Y-94340754D01*
X87934179Y-94338637D01*
X87931188Y-94349706D01*
X87925524Y-94359942D01*
X87903607Y-94366038D01*
X87861068Y-94367822D01*
X87790948Y-94367822D01*
X87794680Y-94147773D01*
X87931188Y-94147773D01*
X87935924Y-94180666D01*
X87956336Y-94216931D01*
X87963871Y-94223597D01*
X87994753Y-94237620D01*
X88041213Y-94241228D01*
X88069090Y-94239819D01*
X88121255Y-94229204D01*
X88153587Y-94209425D01*
X88164492Y-94181824D01*
X88152374Y-94147743D01*
X88145304Y-94138824D01*
X88113724Y-94118818D01*
X88063744Y-94107395D01*
X87992487Y-94103763D01*
X87931188Y-94103763D01*
X87931188Y-94147773D01*
X87794680Y-94147773D01*
X87795053Y-94125768D01*
X87796169Y-94069794D01*
X87799106Y-93985996D01*
X87804058Y-93921920D01*
X87812002Y-93874073D01*
X87823917Y-93838962D01*
X87840780Y-93813093D01*
X87863572Y-93792974D01*
X87893269Y-93775110D01*
X87908589Y-93768290D01*
X87961589Y-93755417D01*
X88025513Y-93750095D01*
X88091602Y-93752227D01*
X88151099Y-93761714D01*
X88195247Y-93778461D01*
X88210604Y-93788185D01*
X88245960Y-93817005D01*
X88257926Y-93841137D01*
X88255020Y-93845800D01*
X88236909Y-93862088D01*
X88207672Y-93883817D01*
X88192725Y-93893987D01*
X88167270Y-93908397D01*
X88150728Y-93909773D01*
X88135370Y-93899827D01*
X88097094Y-93879684D01*
X88045590Y-93871400D01*
X87992957Y-93877742D01*
X87991961Y-93878030D01*
X87954838Y-93894158D01*
X87936463Y-93919405D01*
X87931380Y-93961158D01*
X87931188Y-94000879D01*
X88062423Y-94005168D01*
X88083331Y-94005873D01*
X88136043Y-94008326D01*
X88171381Y-94012180D01*
X88195267Y-94018878D01*
X88213624Y-94029864D01*
X88232376Y-94046580D01*
X88263337Y-94085244D01*
X88286029Y-94142456D01*
X88288254Y-94181824D01*
X88289413Y-94202333D01*
X88274244Y-94259419D01*
G36*
X89689167Y-94160571D02*
G01*
X89685962Y-94198018D01*
X89685413Y-94201450D01*
X89663838Y-94262835D01*
X89624438Y-94314877D01*
X89572752Y-94350135D01*
X89517248Y-94364729D01*
X89448977Y-94363597D01*
X89386173Y-94344029D01*
X89369815Y-94335771D01*
X89348779Y-94326923D01*
X89340774Y-94329676D01*
X89339505Y-94344029D01*
X89338922Y-94351186D01*
X89331394Y-94361772D01*
X89310488Y-94366645D01*
X89270346Y-94367822D01*
X89201188Y-94367822D01*
X89201188Y-94065930D01*
X89339505Y-94065930D01*
X89340496Y-94118230D01*
X89344519Y-94153050D01*
X89353108Y-94176905D01*
X89367797Y-94196895D01*
X89406584Y-94226618D01*
X89451974Y-94236582D01*
X89495989Y-94224260D01*
X89533060Y-94189888D01*
X89542859Y-94164735D01*
X89550097Y-94120194D01*
X89553279Y-94066155D01*
X89552277Y-94010728D01*
X89546961Y-93962022D01*
X89537204Y-93928148D01*
X89534087Y-93922593D01*
X89504038Y-93894674D01*
X89463315Y-93882306D01*
X89419579Y-93885183D01*
X89380491Y-93903000D01*
X89353710Y-93935452D01*
X89352603Y-93938181D01*
X89345963Y-93968634D01*
X89341278Y-94014139D01*
X89339505Y-94065930D01*
X89201188Y-94065930D01*
X89201188Y-93512773D01*
X89339505Y-93512773D01*
X89339505Y-93805878D01*
X89365124Y-93782693D01*
X89389792Y-93768282D01*
X89436480Y-93756236D01*
X89491056Y-93752354D01*
X89544354Y-93757120D01*
X89587207Y-93771014D01*
X89617878Y-93790779D01*
X89649471Y-93824449D01*
X89670733Y-93869730D01*
X89683514Y-93930981D01*
X89689664Y-94012563D01*
X89690568Y-94045540D01*
X89690633Y-94066155D01*
X89690761Y-94106813D01*
X89689167Y-94160571D01*
G37*
X89689167Y-94160571D02*
X89685962Y-94198018D01*
X89685413Y-94201450D01*
X89663838Y-94262835D01*
X89624438Y-94314877D01*
X89572752Y-94350135D01*
X89517248Y-94364729D01*
X89448977Y-94363597D01*
X89386173Y-94344029D01*
X89369815Y-94335771D01*
X89348779Y-94326923D01*
X89340774Y-94329676D01*
X89339505Y-94344029D01*
X89338922Y-94351186D01*
X89331394Y-94361772D01*
X89310488Y-94366645D01*
X89270346Y-94367822D01*
X89201188Y-94367822D01*
X89201188Y-94065930D01*
X89339505Y-94065930D01*
X89340496Y-94118230D01*
X89344519Y-94153050D01*
X89353108Y-94176905D01*
X89367797Y-94196895D01*
X89406584Y-94226618D01*
X89451974Y-94236582D01*
X89495989Y-94224260D01*
X89533060Y-94189888D01*
X89542859Y-94164735D01*
X89550097Y-94120194D01*
X89553279Y-94066155D01*
X89552277Y-94010728D01*
X89546961Y-93962022D01*
X89537204Y-93928148D01*
X89534087Y-93922593D01*
X89504038Y-93894674D01*
X89463315Y-93882306D01*
X89419579Y-93885183D01*
X89380491Y-93903000D01*
X89353710Y-93935452D01*
X89352603Y-93938181D01*
X89345963Y-93968634D01*
X89341278Y-94014139D01*
X89339505Y-94065930D01*
X89201188Y-94065930D01*
X89201188Y-93512773D01*
X89339505Y-93512773D01*
X89339505Y-93805878D01*
X89365124Y-93782693D01*
X89389792Y-93768282D01*
X89436480Y-93756236D01*
X89491056Y-93752354D01*
X89544354Y-93757120D01*
X89587207Y-93771014D01*
X89617878Y-93790779D01*
X89649471Y-93824449D01*
X89670733Y-93869730D01*
X89683514Y-93930981D01*
X89689664Y-94012563D01*
X89690568Y-94045540D01*
X89690633Y-94066155D01*
X89690761Y-94106813D01*
X89689167Y-94160571D01*
G36*
X89364389Y-88640018D02*
G01*
X89421237Y-88941570D01*
X89631001Y-89028041D01*
X89840764Y-89114512D01*
X90092410Y-88943395D01*
X90142216Y-88909661D01*
X90208244Y-88865381D01*
X90265410Y-88827561D01*
X90310744Y-88798142D01*
X90341280Y-88779067D01*
X90354046Y-88772278D01*
X90361887Y-88777106D01*
X90385325Y-88797339D01*
X90420794Y-88830543D01*
X90465289Y-88873670D01*
X90515805Y-88923670D01*
X90569336Y-88977495D01*
X90622877Y-89032095D01*
X90673423Y-89084423D01*
X90717968Y-89131428D01*
X90753507Y-89170063D01*
X90777034Y-89197278D01*
X90785544Y-89210024D01*
X90783565Y-89215500D01*
X90769857Y-89239927D01*
X90744825Y-89280129D01*
X90710499Y-89332952D01*
X90668907Y-89395247D01*
X90622079Y-89463862D01*
X90596380Y-89501283D01*
X90552173Y-89566432D01*
X90514272Y-89623289D01*
X90484698Y-89668770D01*
X90465472Y-89699793D01*
X90458614Y-89713274D01*
X90458726Y-89714021D01*
X90464776Y-89731110D01*
X90478654Y-89766006D01*
X90498427Y-89814151D01*
X90522160Y-89870986D01*
X90547918Y-89931953D01*
X90573766Y-89992492D01*
X90597771Y-90048047D01*
X90617998Y-90094057D01*
X90632511Y-90125965D01*
X90639377Y-90139212D01*
X90643439Y-90140387D01*
X90668121Y-90145687D01*
X90712111Y-90154467D01*
X90771887Y-90166040D01*
X90843929Y-90179721D01*
X90924716Y-90194823D01*
X90967294Y-90202830D01*
X91045445Y-90218107D01*
X91113775Y-90232215D01*
X91168551Y-90244345D01*
X91206037Y-90253686D01*
X91222500Y-90259427D01*
X91225457Y-90265119D01*
X91230362Y-90292930D01*
X91234216Y-90339250D01*
X91237021Y-90399720D01*
X91238781Y-90469983D01*
X91239499Y-90545680D01*
X91239177Y-90622453D01*
X91237819Y-90695944D01*
X91235428Y-90761794D01*
X91232006Y-90815645D01*
X91227556Y-90853138D01*
X91222082Y-90869916D01*
X91218760Y-90871809D01*
X91193987Y-90879926D01*
X91151011Y-90890666D01*
X91094802Y-90902853D01*
X91030325Y-90915310D01*
X91008570Y-90919277D01*
X90908093Y-90937729D01*
X90829126Y-90952559D01*
X90768934Y-90964380D01*
X90724778Y-90973809D01*
X90693920Y-90981460D01*
X90673625Y-90987948D01*
X90661154Y-90993888D01*
X90653771Y-90999894D01*
X90652913Y-91000902D01*
X90640838Y-91021919D01*
X90622971Y-91060376D01*
X90601042Y-91111761D01*
X90576784Y-91171563D01*
X90551927Y-91235270D01*
X90528205Y-91298371D01*
X90507347Y-91356355D01*
X90491087Y-91404709D01*
X90481156Y-91438922D01*
X90479285Y-91454483D01*
X90480536Y-91456502D01*
X90493486Y-91476028D01*
X90517840Y-91512042D01*
X90551340Y-91561228D01*
X90591727Y-91620267D01*
X90636745Y-91685842D01*
X90649100Y-91703884D01*
X90692545Y-91768599D01*
X90730091Y-91826476D01*
X90759594Y-91874082D01*
X90778914Y-91907985D01*
X90785905Y-91924752D01*
X90784398Y-91929161D01*
X90768695Y-91950882D01*
X90737714Y-91986354D01*
X90693673Y-92033188D01*
X90638790Y-92088996D01*
X90575286Y-92151392D01*
X90538988Y-92186317D01*
X90481595Y-92240711D01*
X90431361Y-92287302D01*
X90390984Y-92323636D01*
X90363161Y-92347261D01*
X90350590Y-92355724D01*
X90341952Y-92352587D01*
X90315360Y-92337747D01*
X90276741Y-92313477D01*
X90231134Y-92282852D01*
X90198707Y-92260503D01*
X90133970Y-92216122D01*
X90064886Y-92168987D01*
X90001787Y-92126155D01*
X89878178Y-92042547D01*
X89774417Y-92098650D01*
X89749984Y-92111599D01*
X89705552Y-92133749D01*
X89671191Y-92149041D01*
X89652828Y-92154743D01*
X89646818Y-92147421D01*
X89631895Y-92119541D01*
X89609852Y-92073575D01*
X89581917Y-92012441D01*
X89549317Y-91939055D01*
X89513276Y-91856335D01*
X89475023Y-91767197D01*
X89435783Y-91674559D01*
X89396783Y-91581337D01*
X89359249Y-91490450D01*
X89324409Y-91404814D01*
X89293488Y-91327345D01*
X89267714Y-91260962D01*
X89248311Y-91208582D01*
X89236508Y-91173121D01*
X89233531Y-91157496D01*
X89233732Y-91157039D01*
X89247601Y-91142595D01*
X89276611Y-91119974D01*
X89314772Y-91093864D01*
X89326817Y-91085892D01*
X89418469Y-91010256D01*
X89494323Y-90920169D01*
X89552581Y-90819381D01*
X89591448Y-90711640D01*
X89609128Y-90600697D01*
X89603826Y-90490303D01*
X89582347Y-90392115D01*
X89543782Y-90292966D01*
X89487562Y-90204512D01*
X89410410Y-90120487D01*
X89380095Y-90093645D01*
X89282094Y-90027510D01*
X89176227Y-89982970D01*
X89065561Y-89959625D01*
X88953164Y-89957078D01*
X88842105Y-89974929D01*
X88735451Y-90012780D01*
X88636270Y-90070232D01*
X88547631Y-90146887D01*
X88472600Y-90242345D01*
X88458175Y-90265985D01*
X88409143Y-90374034D01*
X88383103Y-90486548D01*
X88379372Y-90600614D01*
X88397268Y-90713318D01*
X88436109Y-90821745D01*
X88495214Y-90922982D01*
X88573900Y-91014114D01*
X88671485Y-91092228D01*
X88674654Y-91094333D01*
X88712411Y-91120940D01*
X88740709Y-91143561D01*
X88753634Y-91157496D01*
X88752003Y-91168421D01*
X88741864Y-91200231D01*
X88723884Y-91249534D01*
X88699292Y-91313413D01*
X88669311Y-91388948D01*
X88635170Y-91473223D01*
X88598092Y-91563320D01*
X88559306Y-91656321D01*
X88520036Y-91749308D01*
X88481509Y-91839364D01*
X88444950Y-91923571D01*
X88411586Y-91999010D01*
X88382643Y-92062765D01*
X88359346Y-92111917D01*
X88342923Y-92143549D01*
X88334598Y-92154743D01*
X88327674Y-92153227D01*
X88300477Y-92142331D01*
X88260280Y-92123228D01*
X88213009Y-92098650D01*
X88109248Y-92042547D01*
X87985639Y-92126155D01*
X87949120Y-92150913D01*
X87881194Y-92197171D01*
X87813475Y-92243503D01*
X87756291Y-92282852D01*
X87724732Y-92304297D01*
X87683714Y-92330939D01*
X87653301Y-92349178D01*
X87638446Y-92355941D01*
X87632065Y-92353070D01*
X87608996Y-92335485D01*
X87573433Y-92304523D01*
X87528471Y-92263231D01*
X87477206Y-92214653D01*
X87422733Y-92161835D01*
X87368148Y-92107823D01*
X87316547Y-92055661D01*
X87271024Y-92008396D01*
X87234675Y-91969072D01*
X87210595Y-91940736D01*
X87201881Y-91926432D01*
X87202383Y-91923711D01*
X87212755Y-91901560D01*
X87234912Y-91863235D01*
X87266712Y-91812200D01*
X87306016Y-91751914D01*
X87350681Y-91685842D01*
X87363207Y-91667617D01*
X87407193Y-91603485D01*
X87445937Y-91546789D01*
X87477182Y-91500844D01*
X87498669Y-91468970D01*
X87508140Y-91454483D01*
X87508373Y-91453862D01*
X87505578Y-91436139D01*
X87494903Y-91400235D01*
X87478081Y-91350662D01*
X87456843Y-91291932D01*
X87432921Y-91228556D01*
X87408046Y-91165046D01*
X87383950Y-91105913D01*
X87362365Y-91055669D01*
X87345023Y-91018826D01*
X87333655Y-90999894D01*
X87332516Y-90998719D01*
X87324376Y-90992773D01*
X87310629Y-90986776D01*
X87288537Y-90980114D01*
X87255363Y-90972173D01*
X87208370Y-90962337D01*
X87144820Y-90949991D01*
X87061976Y-90934520D01*
X86957100Y-90915310D01*
X86935348Y-90911267D01*
X86873036Y-90898769D01*
X86820619Y-90886927D01*
X86783066Y-90876917D01*
X86765343Y-90869916D01*
X86762378Y-90864075D01*
X86757435Y-90836016D01*
X86753518Y-90789500D01*
X86750629Y-90728886D01*
X86748773Y-90658532D01*
X86747952Y-90582796D01*
X86748168Y-90506037D01*
X86749426Y-90432612D01*
X86751728Y-90366880D01*
X86755076Y-90313200D01*
X86759474Y-90275930D01*
X86764926Y-90259427D01*
X86770491Y-90256989D01*
X86798178Y-90249305D01*
X86844979Y-90238436D01*
X86907157Y-90225192D01*
X86980979Y-90210384D01*
X87062710Y-90194823D01*
X87107336Y-90186509D01*
X87183824Y-90172092D01*
X87249660Y-90159467D01*
X87301323Y-90149321D01*
X87335293Y-90142341D01*
X87348048Y-90139212D01*
X87348528Y-90138568D01*
X87356651Y-90122181D01*
X87372137Y-90087852D01*
X87393050Y-90040136D01*
X87417455Y-89983586D01*
X87443416Y-89922758D01*
X87468997Y-89862206D01*
X87492262Y-89806485D01*
X87511277Y-89760150D01*
X87524105Y-89727755D01*
X87528812Y-89713855D01*
X87526736Y-89708965D01*
X87512920Y-89685692D01*
X87487860Y-89646519D01*
X87453568Y-89594520D01*
X87412059Y-89532768D01*
X87365346Y-89464336D01*
X87339718Y-89426860D01*
X87295490Y-89361156D01*
X87257570Y-89303492D01*
X87227980Y-89257014D01*
X87208743Y-89224865D01*
X87201881Y-89210190D01*
X87206649Y-89202230D01*
X87226593Y-89178446D01*
X87259313Y-89142451D01*
X87301805Y-89097295D01*
X87351065Y-89046028D01*
X87404091Y-88991701D01*
X87457877Y-88937364D01*
X87509421Y-88886067D01*
X87555720Y-88840859D01*
X87593769Y-88804792D01*
X87620565Y-88780914D01*
X87633105Y-88772278D01*
X87640066Y-88775636D01*
X87665627Y-88791210D01*
X87706874Y-88817715D01*
X87760837Y-88853210D01*
X87824542Y-88895750D01*
X87895016Y-88943395D01*
X88146662Y-89114512D01*
X88566188Y-88941570D01*
X88623036Y-88640018D01*
X88679885Y-88338466D01*
X89307540Y-88338466D01*
X89364389Y-88640018D01*
G37*
X89364389Y-88640018D02*
X89421237Y-88941570D01*
X89631001Y-89028041D01*
X89840764Y-89114512D01*
X90092410Y-88943395D01*
X90142216Y-88909661D01*
X90208244Y-88865381D01*
X90265410Y-88827561D01*
X90310744Y-88798142D01*
X90341280Y-88779067D01*
X90354046Y-88772278D01*
X90361887Y-88777106D01*
X90385325Y-88797339D01*
X90420794Y-88830543D01*
X90465289Y-88873670D01*
X90515805Y-88923670D01*
X90569336Y-88977495D01*
X90622877Y-89032095D01*
X90673423Y-89084423D01*
X90717968Y-89131428D01*
X90753507Y-89170063D01*
X90777034Y-89197278D01*
X90785544Y-89210024D01*
X90783565Y-89215500D01*
X90769857Y-89239927D01*
X90744825Y-89280129D01*
X90710499Y-89332952D01*
X90668907Y-89395247D01*
X90622079Y-89463862D01*
X90596380Y-89501283D01*
X90552173Y-89566432D01*
X90514272Y-89623289D01*
X90484698Y-89668770D01*
X90465472Y-89699793D01*
X90458614Y-89713274D01*
X90458726Y-89714021D01*
X90464776Y-89731110D01*
X90478654Y-89766006D01*
X90498427Y-89814151D01*
X90522160Y-89870986D01*
X90547918Y-89931953D01*
X90573766Y-89992492D01*
X90597771Y-90048047D01*
X90617998Y-90094057D01*
X90632511Y-90125965D01*
X90639377Y-90139212D01*
X90643439Y-90140387D01*
X90668121Y-90145687D01*
X90712111Y-90154467D01*
X90771887Y-90166040D01*
X90843929Y-90179721D01*
X90924716Y-90194823D01*
X90967294Y-90202830D01*
X91045445Y-90218107D01*
X91113775Y-90232215D01*
X91168551Y-90244345D01*
X91206037Y-90253686D01*
X91222500Y-90259427D01*
X91225457Y-90265119D01*
X91230362Y-90292930D01*
X91234216Y-90339250D01*
X91237021Y-90399720D01*
X91238781Y-90469983D01*
X91239499Y-90545680D01*
X91239177Y-90622453D01*
X91237819Y-90695944D01*
X91235428Y-90761794D01*
X91232006Y-90815645D01*
X91227556Y-90853138D01*
X91222082Y-90869916D01*
X91218760Y-90871809D01*
X91193987Y-90879926D01*
X91151011Y-90890666D01*
X91094802Y-90902853D01*
X91030325Y-90915310D01*
X91008570Y-90919277D01*
X90908093Y-90937729D01*
X90829126Y-90952559D01*
X90768934Y-90964380D01*
X90724778Y-90973809D01*
X90693920Y-90981460D01*
X90673625Y-90987948D01*
X90661154Y-90993888D01*
X90653771Y-90999894D01*
X90652913Y-91000902D01*
X90640838Y-91021919D01*
X90622971Y-91060376D01*
X90601042Y-91111761D01*
X90576784Y-91171563D01*
X90551927Y-91235270D01*
X90528205Y-91298371D01*
X90507347Y-91356355D01*
X90491087Y-91404709D01*
X90481156Y-91438922D01*
X90479285Y-91454483D01*
X90480536Y-91456502D01*
X90493486Y-91476028D01*
X90517840Y-91512042D01*
X90551340Y-91561228D01*
X90591727Y-91620267D01*
X90636745Y-91685842D01*
X90649100Y-91703884D01*
X90692545Y-91768599D01*
X90730091Y-91826476D01*
X90759594Y-91874082D01*
X90778914Y-91907985D01*
X90785905Y-91924752D01*
X90784398Y-91929161D01*
X90768695Y-91950882D01*
X90737714Y-91986354D01*
X90693673Y-92033188D01*
X90638790Y-92088996D01*
X90575286Y-92151392D01*
X90538988Y-92186317D01*
X90481595Y-92240711D01*
X90431361Y-92287302D01*
X90390984Y-92323636D01*
X90363161Y-92347261D01*
X90350590Y-92355724D01*
X90341952Y-92352587D01*
X90315360Y-92337747D01*
X90276741Y-92313477D01*
X90231134Y-92282852D01*
X90198707Y-92260503D01*
X90133970Y-92216122D01*
X90064886Y-92168987D01*
X90001787Y-92126155D01*
X89878178Y-92042547D01*
X89774417Y-92098650D01*
X89749984Y-92111599D01*
X89705552Y-92133749D01*
X89671191Y-92149041D01*
X89652828Y-92154743D01*
X89646818Y-92147421D01*
X89631895Y-92119541D01*
X89609852Y-92073575D01*
X89581917Y-92012441D01*
X89549317Y-91939055D01*
X89513276Y-91856335D01*
X89475023Y-91767197D01*
X89435783Y-91674559D01*
X89396783Y-91581337D01*
X89359249Y-91490450D01*
X89324409Y-91404814D01*
X89293488Y-91327345D01*
X89267714Y-91260962D01*
X89248311Y-91208582D01*
X89236508Y-91173121D01*
X89233531Y-91157496D01*
X89233732Y-91157039D01*
X89247601Y-91142595D01*
X89276611Y-91119974D01*
X89314772Y-91093864D01*
X89326817Y-91085892D01*
X89418469Y-91010256D01*
X89494323Y-90920169D01*
X89552581Y-90819381D01*
X89591448Y-90711640D01*
X89609128Y-90600697D01*
X89603826Y-90490303D01*
X89582347Y-90392115D01*
X89543782Y-90292966D01*
X89487562Y-90204512D01*
X89410410Y-90120487D01*
X89380095Y-90093645D01*
X89282094Y-90027510D01*
X89176227Y-89982970D01*
X89065561Y-89959625D01*
X88953164Y-89957078D01*
X88842105Y-89974929D01*
X88735451Y-90012780D01*
X88636270Y-90070232D01*
X88547631Y-90146887D01*
X88472600Y-90242345D01*
X88458175Y-90265985D01*
X88409143Y-90374034D01*
X88383103Y-90486548D01*
X88379372Y-90600614D01*
X88397268Y-90713318D01*
X88436109Y-90821745D01*
X88495214Y-90922982D01*
X88573900Y-91014114D01*
X88671485Y-91092228D01*
X88674654Y-91094333D01*
X88712411Y-91120940D01*
X88740709Y-91143561D01*
X88753634Y-91157496D01*
X88752003Y-91168421D01*
X88741864Y-91200231D01*
X88723884Y-91249534D01*
X88699292Y-91313413D01*
X88669311Y-91388948D01*
X88635170Y-91473223D01*
X88598092Y-91563320D01*
X88559306Y-91656321D01*
X88520036Y-91749308D01*
X88481509Y-91839364D01*
X88444950Y-91923571D01*
X88411586Y-91999010D01*
X88382643Y-92062765D01*
X88359346Y-92111917D01*
X88342923Y-92143549D01*
X88334598Y-92154743D01*
X88327674Y-92153227D01*
X88300477Y-92142331D01*
X88260280Y-92123228D01*
X88213009Y-92098650D01*
X88109248Y-92042547D01*
X87985639Y-92126155D01*
X87949120Y-92150913D01*
X87881194Y-92197171D01*
X87813475Y-92243503D01*
X87756291Y-92282852D01*
X87724732Y-92304297D01*
X87683714Y-92330939D01*
X87653301Y-92349178D01*
X87638446Y-92355941D01*
X87632065Y-92353070D01*
X87608996Y-92335485D01*
X87573433Y-92304523D01*
X87528471Y-92263231D01*
X87477206Y-92214653D01*
X87422733Y-92161835D01*
X87368148Y-92107823D01*
X87316547Y-92055661D01*
X87271024Y-92008396D01*
X87234675Y-91969072D01*
X87210595Y-91940736D01*
X87201881Y-91926432D01*
X87202383Y-91923711D01*
X87212755Y-91901560D01*
X87234912Y-91863235D01*
X87266712Y-91812200D01*
X87306016Y-91751914D01*
X87350681Y-91685842D01*
X87363207Y-91667617D01*
X87407193Y-91603485D01*
X87445937Y-91546789D01*
X87477182Y-91500844D01*
X87498669Y-91468970D01*
X87508140Y-91454483D01*
X87508373Y-91453862D01*
X87505578Y-91436139D01*
X87494903Y-91400235D01*
X87478081Y-91350662D01*
X87456843Y-91291932D01*
X87432921Y-91228556D01*
X87408046Y-91165046D01*
X87383950Y-91105913D01*
X87362365Y-91055669D01*
X87345023Y-91018826D01*
X87333655Y-90999894D01*
X87332516Y-90998719D01*
X87324376Y-90992773D01*
X87310629Y-90986776D01*
X87288537Y-90980114D01*
X87255363Y-90972173D01*
X87208370Y-90962337D01*
X87144820Y-90949991D01*
X87061976Y-90934520D01*
X86957100Y-90915310D01*
X86935348Y-90911267D01*
X86873036Y-90898769D01*
X86820619Y-90886927D01*
X86783066Y-90876917D01*
X86765343Y-90869916D01*
X86762378Y-90864075D01*
X86757435Y-90836016D01*
X86753518Y-90789500D01*
X86750629Y-90728886D01*
X86748773Y-90658532D01*
X86747952Y-90582796D01*
X86748168Y-90506037D01*
X86749426Y-90432612D01*
X86751728Y-90366880D01*
X86755076Y-90313200D01*
X86759474Y-90275930D01*
X86764926Y-90259427D01*
X86770491Y-90256989D01*
X86798178Y-90249305D01*
X86844979Y-90238436D01*
X86907157Y-90225192D01*
X86980979Y-90210384D01*
X87062710Y-90194823D01*
X87107336Y-90186509D01*
X87183824Y-90172092D01*
X87249660Y-90159467D01*
X87301323Y-90149321D01*
X87335293Y-90142341D01*
X87348048Y-90139212D01*
X87348528Y-90138568D01*
X87356651Y-90122181D01*
X87372137Y-90087852D01*
X87393050Y-90040136D01*
X87417455Y-89983586D01*
X87443416Y-89922758D01*
X87468997Y-89862206D01*
X87492262Y-89806485D01*
X87511277Y-89760150D01*
X87524105Y-89727755D01*
X87528812Y-89713855D01*
X87526736Y-89708965D01*
X87512920Y-89685692D01*
X87487860Y-89646519D01*
X87453568Y-89594520D01*
X87412059Y-89532768D01*
X87365346Y-89464336D01*
X87339718Y-89426860D01*
X87295490Y-89361156D01*
X87257570Y-89303492D01*
X87227980Y-89257014D01*
X87208743Y-89224865D01*
X87201881Y-89210190D01*
X87206649Y-89202230D01*
X87226593Y-89178446D01*
X87259313Y-89142451D01*
X87301805Y-89097295D01*
X87351065Y-89046028D01*
X87404091Y-88991701D01*
X87457877Y-88937364D01*
X87509421Y-88886067D01*
X87555720Y-88840859D01*
X87593769Y-88804792D01*
X87620565Y-88780914D01*
X87633105Y-88772278D01*
X87640066Y-88775636D01*
X87665627Y-88791210D01*
X87706874Y-88817715D01*
X87760837Y-88853210D01*
X87824542Y-88895750D01*
X87895016Y-88943395D01*
X88146662Y-89114512D01*
X88566188Y-88941570D01*
X88623036Y-88640018D01*
X88679885Y-88338466D01*
X89307540Y-88338466D01*
X89364389Y-88640018D01*
G36*
X87287128Y-92803945D02*
G01*
X87317954Y-92813568D01*
X87355916Y-92829563D01*
X87374296Y-92838159D01*
X87387561Y-92839713D01*
X87390495Y-92827798D01*
X87390498Y-92827461D01*
X87396709Y-92816087D01*
X87418131Y-92810256D01*
X87459653Y-92808614D01*
X87528812Y-92808614D01*
X87528812Y-93412179D01*
X87390495Y-93412179D01*
X87390495Y-92996027D01*
X87356110Y-92964161D01*
X87345368Y-92955104D01*
X87313370Y-92939630D01*
X87273965Y-92939010D01*
X87220312Y-92952664D01*
X87202225Y-92953529D01*
X87181008Y-92940283D01*
X87152768Y-92908800D01*
X87139069Y-92891385D01*
X87122868Y-92866797D01*
X87120371Y-92851145D01*
X87129442Y-92837941D01*
X87157289Y-92821245D01*
X87200540Y-92808030D01*
X87247464Y-92801478D01*
X87287128Y-92803945D01*
G37*
X87287128Y-92803945D02*
X87317954Y-92813568D01*
X87355916Y-92829563D01*
X87374296Y-92838159D01*
X87387561Y-92839713D01*
X87390495Y-92827798D01*
X87390498Y-92827461D01*
X87396709Y-92816087D01*
X87418131Y-92810256D01*
X87459653Y-92808614D01*
X87528812Y-92808614D01*
X87528812Y-93412179D01*
X87390495Y-93412179D01*
X87390495Y-92996027D01*
X87356110Y-92964161D01*
X87345368Y-92955104D01*
X87313370Y-92939630D01*
X87273965Y-92939010D01*
X87220312Y-92952664D01*
X87202225Y-92953529D01*
X87181008Y-92940283D01*
X87152768Y-92908800D01*
X87139069Y-92891385D01*
X87122868Y-92866797D01*
X87120371Y-92851145D01*
X87129442Y-92837941D01*
X87157289Y-92821245D01*
X87200540Y-92808030D01*
X87247464Y-92801478D01*
X87287128Y-92803945D01*
G36*
X88832997Y-93949130D02*
G01*
X88849997Y-93999850D01*
X88870107Y-94055997D01*
X88886899Y-94098532D01*
X88898986Y-94123990D01*
X88904980Y-94128903D01*
X88906426Y-94124630D01*
X88914254Y-94098422D01*
X88926723Y-94054649D01*
X88942447Y-93998211D01*
X88960043Y-93934010D01*
X89007914Y-93757971D01*
X89081007Y-93754152D01*
X89087177Y-93753846D01*
X89126592Y-93753441D01*
X89145533Y-93757487D01*
X89147945Y-93766726D01*
X89144898Y-93775749D01*
X89134874Y-93806632D01*
X89119180Y-93855544D01*
X89098934Y-93918987D01*
X89075256Y-93993462D01*
X89049263Y-94075471D01*
X88956736Y-94367822D01*
X88840993Y-94367822D01*
X88786457Y-94182352D01*
X88776386Y-94148294D01*
X88757775Y-94086378D01*
X88741872Y-94034787D01*
X88730109Y-93998130D01*
X88723918Y-93981018D01*
X88722154Y-93979741D01*
X88713571Y-93990779D01*
X88701316Y-94019969D01*
X88687426Y-94062750D01*
X88686692Y-94065263D01*
X88668096Y-94128400D01*
X88646818Y-94199889D01*
X88627321Y-94264734D01*
X88595705Y-94369122D01*
X88537402Y-94365328D01*
X88479098Y-94361535D01*
X88425098Y-94191782D01*
X88401390Y-94117193D01*
X88374833Y-94033539D01*
X88349404Y-93953342D01*
X88328354Y-93886857D01*
X88285609Y-93751683D01*
X88428612Y-93751683D01*
X88463274Y-93880570D01*
X88472488Y-93914625D01*
X88489915Y-93978115D01*
X88506054Y-94035874D01*
X88518322Y-94078614D01*
X88538709Y-94147773D01*
X88668745Y-93757971D01*
X88718476Y-93754237D01*
X88768206Y-93750504D01*
X88832997Y-93949130D01*
G37*
X88832997Y-93949130D02*
X88849997Y-93999850D01*
X88870107Y-94055997D01*
X88886899Y-94098532D01*
X88898986Y-94123990D01*
X88904980Y-94128903D01*
X88906426Y-94124630D01*
X88914254Y-94098422D01*
X88926723Y-94054649D01*
X88942447Y-93998211D01*
X88960043Y-93934010D01*
X89007914Y-93757971D01*
X89081007Y-93754152D01*
X89087177Y-93753846D01*
X89126592Y-93753441D01*
X89145533Y-93757487D01*
X89147945Y-93766726D01*
X89144898Y-93775749D01*
X89134874Y-93806632D01*
X89119180Y-93855544D01*
X89098934Y-93918987D01*
X89075256Y-93993462D01*
X89049263Y-94075471D01*
X88956736Y-94367822D01*
X88840993Y-94367822D01*
X88786457Y-94182352D01*
X88776386Y-94148294D01*
X88757775Y-94086378D01*
X88741872Y-94034787D01*
X88730109Y-93998130D01*
X88723918Y-93981018D01*
X88722154Y-93979741D01*
X88713571Y-93990779D01*
X88701316Y-94019969D01*
X88687426Y-94062750D01*
X88686692Y-94065263D01*
X88668096Y-94128400D01*
X88646818Y-94199889D01*
X88627321Y-94264734D01*
X88595705Y-94369122D01*
X88537402Y-94365328D01*
X88479098Y-94361535D01*
X88425098Y-94191782D01*
X88401390Y-94117193D01*
X88374833Y-94033539D01*
X88349404Y-93953342D01*
X88328354Y-93886857D01*
X88285609Y-93751683D01*
X88428612Y-93751683D01*
X88463274Y-93880570D01*
X88472488Y-93914625D01*
X88489915Y-93978115D01*
X88506054Y-94035874D01*
X88518322Y-94078614D01*
X88538709Y-94147773D01*
X88668745Y-93757971D01*
X88718476Y-93754237D01*
X88768206Y-93750504D01*
X88832997Y-93949130D01*
G36*
X90711421Y-93122936D02*
G01*
X90710322Y-93161371D01*
X90697926Y-93245367D01*
X90670608Y-93311595D01*
X90626941Y-93362784D01*
X90565495Y-93401663D01*
X90505888Y-93419812D01*
X90431110Y-93423284D01*
X90355664Y-93409930D01*
X90288366Y-93380425D01*
X90263428Y-93364012D01*
X90235951Y-93342973D01*
X90223414Y-93329129D01*
X90224124Y-93323417D01*
X90238158Y-93303955D01*
X90264533Y-93280376D01*
X90310240Y-93245513D01*
X90363799Y-93272262D01*
X90378282Y-93278882D01*
X90420916Y-93293273D01*
X90456649Y-93299010D01*
X90482998Y-93294282D01*
X90524347Y-93271514D01*
X90559104Y-93236170D01*
X90578983Y-93195273D01*
X90587083Y-93160693D01*
X90207129Y-93160693D01*
X90207199Y-93094679D01*
X90207774Y-93073757D01*
X90211972Y-93028862D01*
X90345445Y-93028862D01*
X90345690Y-93031434D01*
X90352604Y-93039443D01*
X90372141Y-93044364D01*
X90408467Y-93046843D01*
X90465748Y-93047525D01*
X90484575Y-93047517D01*
X90533470Y-93047065D01*
X90562863Y-93045113D01*
X90577115Y-93040558D01*
X90580582Y-93032299D01*
X90577625Y-93019233D01*
X90577173Y-93017752D01*
X90551699Y-92972285D01*
X90511539Y-92940981D01*
X90463651Y-92929327D01*
X90445949Y-92930259D01*
X90413094Y-92941408D01*
X90381575Y-92969763D01*
X90373085Y-92979789D01*
X90353336Y-93008423D01*
X90345445Y-93028862D01*
X90211972Y-93028862D01*
X90212512Y-93023091D01*
X90220459Y-92981166D01*
X90229168Y-92957696D01*
X90259790Y-92906646D01*
X90300799Y-92860283D01*
X90344168Y-92828514D01*
X90356699Y-92822614D01*
X90429661Y-92803046D01*
X90504168Y-92805109D01*
X90574217Y-92827931D01*
X90633807Y-92870639D01*
X90666038Y-92910025D01*
X90692392Y-92965510D01*
X90706482Y-93032299D01*
X90707022Y-93034861D01*
X90711421Y-93122936D01*
G37*
X90711421Y-93122936D02*
X90710322Y-93161371D01*
X90697926Y-93245367D01*
X90670608Y-93311595D01*
X90626941Y-93362784D01*
X90565495Y-93401663D01*
X90505888Y-93419812D01*
X90431110Y-93423284D01*
X90355664Y-93409930D01*
X90288366Y-93380425D01*
X90263428Y-93364012D01*
X90235951Y-93342973D01*
X90223414Y-93329129D01*
X90224124Y-93323417D01*
X90238158Y-93303955D01*
X90264533Y-93280376D01*
X90310240Y-93245513D01*
X90363799Y-93272262D01*
X90378282Y-93278882D01*
X90420916Y-93293273D01*
X90456649Y-93299010D01*
X90482998Y-93294282D01*
X90524347Y-93271514D01*
X90559104Y-93236170D01*
X90578983Y-93195273D01*
X90587083Y-93160693D01*
X90207129Y-93160693D01*
X90207199Y-93094679D01*
X90207774Y-93073757D01*
X90211972Y-93028862D01*
X90345445Y-93028862D01*
X90345690Y-93031434D01*
X90352604Y-93039443D01*
X90372141Y-93044364D01*
X90408467Y-93046843D01*
X90465748Y-93047525D01*
X90484575Y-93047517D01*
X90533470Y-93047065D01*
X90562863Y-93045113D01*
X90577115Y-93040558D01*
X90580582Y-93032299D01*
X90577625Y-93019233D01*
X90577173Y-93017752D01*
X90551699Y-92972285D01*
X90511539Y-92940981D01*
X90463651Y-92929327D01*
X90445949Y-92930259D01*
X90413094Y-92941408D01*
X90381575Y-92969763D01*
X90373085Y-92979789D01*
X90353336Y-93008423D01*
X90345445Y-93028862D01*
X90211972Y-93028862D01*
X90212512Y-93023091D01*
X90220459Y-92981166D01*
X90229168Y-92957696D01*
X90259790Y-92906646D01*
X90300799Y-92860283D01*
X90344168Y-92828514D01*
X90356699Y-92822614D01*
X90429661Y-92803046D01*
X90504168Y-92805109D01*
X90574217Y-92827931D01*
X90633807Y-92870639D01*
X90666038Y-92910025D01*
X90692392Y-92965510D01*
X90706482Y-93032299D01*
X90707022Y-93034861D01*
X90711421Y-93122936D01*
G36*
X91863373Y-93184310D02*
G01*
X91859688Y-93232332D01*
X91853410Y-93266368D01*
X91843044Y-93293338D01*
X91827092Y-93320158D01*
X91826412Y-93321175D01*
X91787132Y-93364629D01*
X91739072Y-93397772D01*
X91683185Y-93417439D01*
X91609666Y-93423824D01*
X91537609Y-93411268D01*
X91473201Y-93381011D01*
X91422627Y-93334294D01*
X91408108Y-93312221D01*
X91380993Y-93243602D01*
X91367546Y-93158939D01*
X91367776Y-93137523D01*
X91502920Y-93137523D01*
X91503174Y-93177574D01*
X91507421Y-93204313D01*
X91517096Y-93224859D01*
X91533638Y-93246331D01*
X91556593Y-93267639D01*
X91602505Y-93286653D01*
X91651802Y-93283122D01*
X91698917Y-93256694D01*
X91712207Y-93244072D01*
X91726397Y-93222465D01*
X91734266Y-93192094D01*
X91738726Y-93144770D01*
X91739955Y-93109219D01*
X91733224Y-93036620D01*
X91712567Y-92984642D01*
X91677894Y-92952999D01*
X91637249Y-92937847D01*
X91588777Y-92939123D01*
X91543845Y-92964703D01*
X91533103Y-92974442D01*
X91519548Y-92991480D01*
X91511505Y-93013772D01*
X91507043Y-93047947D01*
X91504228Y-93100638D01*
X91502920Y-93137523D01*
X91367776Y-93137523D01*
X91368583Y-93062351D01*
X91369907Y-93048651D01*
X91388374Y-92960908D01*
X91422540Y-92892793D01*
X91472479Y-92844231D01*
X91538261Y-92815148D01*
X91619961Y-92805471D01*
X91650828Y-92806379D01*
X91714128Y-92817493D01*
X91765889Y-92844021D01*
X91814147Y-92889436D01*
X91821865Y-92898551D01*
X91842681Y-92929248D01*
X91856362Y-92964007D01*
X91863948Y-93008056D01*
X91866479Y-93066621D01*
X91865672Y-93109219D01*
X91864997Y-93144931D01*
X91863373Y-93184310D01*
G37*
X91863373Y-93184310D02*
X91859688Y-93232332D01*
X91853410Y-93266368D01*
X91843044Y-93293338D01*
X91827092Y-93320158D01*
X91826412Y-93321175D01*
X91787132Y-93364629D01*
X91739072Y-93397772D01*
X91683185Y-93417439D01*
X91609666Y-93423824D01*
X91537609Y-93411268D01*
X91473201Y-93381011D01*
X91422627Y-93334294D01*
X91408108Y-93312221D01*
X91380993Y-93243602D01*
X91367546Y-93158939D01*
X91367776Y-93137523D01*
X91502920Y-93137523D01*
X91503174Y-93177574D01*
X91507421Y-93204313D01*
X91517096Y-93224859D01*
X91533638Y-93246331D01*
X91556593Y-93267639D01*
X91602505Y-93286653D01*
X91651802Y-93283122D01*
X91698917Y-93256694D01*
X91712207Y-93244072D01*
X91726397Y-93222465D01*
X91734266Y-93192094D01*
X91738726Y-93144770D01*
X91739955Y-93109219D01*
X91733224Y-93036620D01*
X91712567Y-92984642D01*
X91677894Y-92952999D01*
X91637249Y-92937847D01*
X91588777Y-92939123D01*
X91543845Y-92964703D01*
X91533103Y-92974442D01*
X91519548Y-92991480D01*
X91511505Y-93013772D01*
X91507043Y-93047947D01*
X91504228Y-93100638D01*
X91502920Y-93137523D01*
X91367776Y-93137523D01*
X91368583Y-93062351D01*
X91369907Y-93048651D01*
X91388374Y-92960908D01*
X91422540Y-92892793D01*
X91472479Y-92844231D01*
X91538261Y-92815148D01*
X91619961Y-92805471D01*
X91650828Y-92806379D01*
X91714128Y-92817493D01*
X91765889Y-92844021D01*
X91814147Y-92889436D01*
X91821865Y-92898551D01*
X91842681Y-92929248D01*
X91856362Y-92964007D01*
X91863948Y-93008056D01*
X91866479Y-93066621D01*
X91865672Y-93109219D01*
X91864997Y-93144931D01*
X91863373Y-93184310D01*
G36*
X86933409Y-92811493D02*
G01*
X87002021Y-92838224D01*
X87060048Y-92882351D01*
X87102907Y-92942958D01*
X87105801Y-92949137D01*
X87124176Y-93009409D01*
X87133357Y-93081407D01*
X87133285Y-93156369D01*
X87123901Y-93225536D01*
X87105149Y-93280149D01*
X87081995Y-93318212D01*
X87031030Y-93372135D01*
X86967306Y-93406411D01*
X86912785Y-93420272D01*
X86829767Y-93421785D01*
X86750326Y-93400882D01*
X86679879Y-93358464D01*
X86634284Y-93320880D01*
X86675351Y-93278510D01*
X86701296Y-93253409D01*
X86724764Y-93239434D01*
X86746524Y-93242511D01*
X86774356Y-93261287D01*
X86785454Y-93268638D01*
X86832337Y-93283683D01*
X86886224Y-93283673D01*
X86936675Y-93268168D01*
X86955672Y-93255716D01*
X86983537Y-93218946D01*
X86997506Y-93164939D01*
X86998405Y-93091331D01*
X86998403Y-93091289D01*
X86988009Y-93025433D01*
X86965114Y-92979772D01*
X86927439Y-92951528D01*
X86872708Y-92937920D01*
X86838241Y-92936090D01*
X86808126Y-92943584D01*
X86777240Y-92965295D01*
X86737272Y-92998926D01*
X86686656Y-92958250D01*
X86668163Y-92942667D01*
X86645065Y-92920340D01*
X86636039Y-92907183D01*
X86639236Y-92901253D01*
X86657646Y-92883048D01*
X86686973Y-92859895D01*
X86709920Y-92844830D01*
X86782774Y-92813880D01*
X86858799Y-92803073D01*
X86933409Y-92811493D01*
G37*
X86933409Y-92811493D02*
X87002021Y-92838224D01*
X87060048Y-92882351D01*
X87102907Y-92942958D01*
X87105801Y-92949137D01*
X87124176Y-93009409D01*
X87133357Y-93081407D01*
X87133285Y-93156369D01*
X87123901Y-93225536D01*
X87105149Y-93280149D01*
X87081995Y-93318212D01*
X87031030Y-93372135D01*
X86967306Y-93406411D01*
X86912785Y-93420272D01*
X86829767Y-93421785D01*
X86750326Y-93400882D01*
X86679879Y-93358464D01*
X86634284Y-93320880D01*
X86675351Y-93278510D01*
X86701296Y-93253409D01*
X86724764Y-93239434D01*
X86746524Y-93242511D01*
X86774356Y-93261287D01*
X86785454Y-93268638D01*
X86832337Y-93283683D01*
X86886224Y-93283673D01*
X86936675Y-93268168D01*
X86955672Y-93255716D01*
X86983537Y-93218946D01*
X86997506Y-93164939D01*
X86998405Y-93091331D01*
X86998403Y-93091289D01*
X86988009Y-93025433D01*
X86965114Y-92979772D01*
X86927439Y-92951528D01*
X86872708Y-92937920D01*
X86838241Y-92936090D01*
X86808126Y-92943584D01*
X86777240Y-92965295D01*
X86737272Y-92998926D01*
X86686656Y-92958250D01*
X86668163Y-92942667D01*
X86645065Y-92920340D01*
X86636039Y-92907183D01*
X86639236Y-92901253D01*
X86657646Y-92883048D01*
X86686973Y-92859895D01*
X86709920Y-92844830D01*
X86782774Y-92813880D01*
X86858799Y-92803073D01*
X86933409Y-92811493D01*
G36*
X85285481Y-80899518D02*
G01*
X85303442Y-80918029D01*
X85324042Y-80949111D01*
X85348874Y-80994796D01*
X85379529Y-81057118D01*
X85417599Y-81138111D01*
X85432233Y-81169494D01*
X85461982Y-81232678D01*
X85488076Y-81287284D01*
X85509071Y-81330330D01*
X85523518Y-81358833D01*
X85529970Y-81369810D01*
X85531329Y-81369229D01*
X85541321Y-81355282D01*
X85558612Y-81325744D01*
X85581209Y-81284127D01*
X85607117Y-81233943D01*
X85623090Y-81202454D01*
X85652040Y-81147101D01*
X85674528Y-81108084D01*
X85692744Y-81082606D01*
X85708875Y-81067871D01*
X85725109Y-81061082D01*
X85743636Y-81059440D01*
X85754139Y-81059915D01*
X85770255Y-81064122D01*
X85785569Y-81074986D01*
X85802167Y-81095259D01*
X85822136Y-81127694D01*
X85847562Y-81175044D01*
X85880531Y-81240062D01*
X85890264Y-81259317D01*
X85914722Y-81305986D01*
X85934957Y-81342149D01*
X85949090Y-81364537D01*
X85955239Y-81369885D01*
X85956606Y-81366613D01*
X85965981Y-81345704D01*
X85982841Y-81308765D01*
X86005758Y-81258914D01*
X86033299Y-81199266D01*
X86064034Y-81132938D01*
X86090749Y-81075717D01*
X86120372Y-81013728D01*
X86143443Y-80967989D01*
X86161422Y-80935948D01*
X86175769Y-80915054D01*
X86187945Y-80902758D01*
X86199411Y-80896506D01*
X86208821Y-80893614D01*
X86233926Y-80893465D01*
X86261069Y-80908808D01*
X86262369Y-80909793D01*
X86284453Y-80932428D01*
X86295502Y-80954653D01*
X86295548Y-80955293D01*
X86291007Y-80972955D01*
X86278143Y-81007521D01*
X86258384Y-81055866D01*
X86233160Y-81114865D01*
X86203898Y-81181395D01*
X86172029Y-81252331D01*
X86138980Y-81324547D01*
X86106180Y-81394920D01*
X86075059Y-81460325D01*
X86047044Y-81517637D01*
X86023565Y-81563732D01*
X86006051Y-81595486D01*
X85995930Y-81609773D01*
X85961522Y-81623142D01*
X85919825Y-81616781D01*
X85914460Y-81612084D01*
X85898631Y-81589933D01*
X85876429Y-81553172D01*
X85850012Y-81505455D01*
X85821539Y-81450433D01*
X85741765Y-81291190D01*
X85668578Y-81437782D01*
X85658882Y-81457072D01*
X85631904Y-81509420D01*
X85607875Y-81554210D01*
X85589111Y-81587194D01*
X85577925Y-81604129D01*
X85576779Y-81605372D01*
X85548658Y-81620659D01*
X85513596Y-81622342D01*
X85482555Y-81609773D01*
X85480129Y-81606924D01*
X85467869Y-81586299D01*
X85448131Y-81548748D01*
X85422227Y-81496920D01*
X85391464Y-81433463D01*
X85357154Y-81361025D01*
X85320604Y-81282256D01*
X85300364Y-81238133D01*
X85263591Y-81157405D01*
X85235134Y-81093727D01*
X85214110Y-81044792D01*
X85199633Y-81008297D01*
X85190818Y-80981935D01*
X85186783Y-80963401D01*
X85186641Y-80950392D01*
X85189509Y-80940601D01*
X85204166Y-80919718D01*
X85230769Y-80899417D01*
X85231524Y-80899075D01*
X85251114Y-80892074D01*
X85268569Y-80891544D01*
X85285481Y-80899518D01*
G37*
X85285481Y-80899518D02*
X85303442Y-80918029D01*
X85324042Y-80949111D01*
X85348874Y-80994796D01*
X85379529Y-81057118D01*
X85417599Y-81138111D01*
X85432233Y-81169494D01*
X85461982Y-81232678D01*
X85488076Y-81287284D01*
X85509071Y-81330330D01*
X85523518Y-81358833D01*
X85529970Y-81369810D01*
X85531329Y-81369229D01*
X85541321Y-81355282D01*
X85558612Y-81325744D01*
X85581209Y-81284127D01*
X85607117Y-81233943D01*
X85623090Y-81202454D01*
X85652040Y-81147101D01*
X85674528Y-81108084D01*
X85692744Y-81082606D01*
X85708875Y-81067871D01*
X85725109Y-81061082D01*
X85743636Y-81059440D01*
X85754139Y-81059915D01*
X85770255Y-81064122D01*
X85785569Y-81074986D01*
X85802167Y-81095259D01*
X85822136Y-81127694D01*
X85847562Y-81175044D01*
X85880531Y-81240062D01*
X85890264Y-81259317D01*
X85914722Y-81305986D01*
X85934957Y-81342149D01*
X85949090Y-81364537D01*
X85955239Y-81369885D01*
X85956606Y-81366613D01*
X85965981Y-81345704D01*
X85982841Y-81308765D01*
X86005758Y-81258914D01*
X86033299Y-81199266D01*
X86064034Y-81132938D01*
X86090749Y-81075717D01*
X86120372Y-81013728D01*
X86143443Y-80967989D01*
X86161422Y-80935948D01*
X86175769Y-80915054D01*
X86187945Y-80902758D01*
X86199411Y-80896506D01*
X86208821Y-80893614D01*
X86233926Y-80893465D01*
X86261069Y-80908808D01*
X86262369Y-80909793D01*
X86284453Y-80932428D01*
X86295502Y-80954653D01*
X86295548Y-80955293D01*
X86291007Y-80972955D01*
X86278143Y-81007521D01*
X86258384Y-81055866D01*
X86233160Y-81114865D01*
X86203898Y-81181395D01*
X86172029Y-81252331D01*
X86138980Y-81324547D01*
X86106180Y-81394920D01*
X86075059Y-81460325D01*
X86047044Y-81517637D01*
X86023565Y-81563732D01*
X86006051Y-81595486D01*
X85995930Y-81609773D01*
X85961522Y-81623142D01*
X85919825Y-81616781D01*
X85914460Y-81612084D01*
X85898631Y-81589933D01*
X85876429Y-81553172D01*
X85850012Y-81505455D01*
X85821539Y-81450433D01*
X85741765Y-81291190D01*
X85668578Y-81437782D01*
X85658882Y-81457072D01*
X85631904Y-81509420D01*
X85607875Y-81554210D01*
X85589111Y-81587194D01*
X85577925Y-81604129D01*
X85576779Y-81605372D01*
X85548658Y-81620659D01*
X85513596Y-81622342D01*
X85482555Y-81609773D01*
X85480129Y-81606924D01*
X85467869Y-81586299D01*
X85448131Y-81548748D01*
X85422227Y-81496920D01*
X85391464Y-81433463D01*
X85357154Y-81361025D01*
X85320604Y-81282256D01*
X85300364Y-81238133D01*
X85263591Y-81157405D01*
X85235134Y-81093727D01*
X85214110Y-81044792D01*
X85199633Y-81008297D01*
X85190818Y-80981935D01*
X85186783Y-80963401D01*
X85186641Y-80950392D01*
X85189509Y-80940601D01*
X85204166Y-80919718D01*
X85230769Y-80899417D01*
X85231524Y-80899075D01*
X85251114Y-80892074D01*
X85268569Y-80891544D01*
X85285481Y-80899518D01*
G36*
X90327672Y-80888932D02*
G01*
X90339080Y-80895069D01*
X90349629Y-80905731D01*
X90360915Y-80919851D01*
X90365368Y-80925812D01*
X90371367Y-80936308D01*
X90375946Y-80950133D01*
X90379298Y-80970038D01*
X90381612Y-80998772D01*
X90383080Y-81039085D01*
X90383892Y-81093727D01*
X90384239Y-81165447D01*
X90384313Y-81256996D01*
X90384290Y-81315526D01*
X90384071Y-81394613D01*
X90383462Y-81455556D01*
X90382271Y-81501102D01*
X90380308Y-81534003D01*
X90377382Y-81557008D01*
X90373302Y-81572866D01*
X90367876Y-81584326D01*
X90360915Y-81594140D01*
X90330487Y-81618533D01*
X90295544Y-81621412D01*
X90258563Y-81602322D01*
X90254379Y-81598847D01*
X90246203Y-81590319D01*
X90240143Y-81578768D01*
X90235760Y-81560936D01*
X90232618Y-81533564D01*
X90230281Y-81493394D01*
X90228310Y-81437168D01*
X90226268Y-81361629D01*
X90220624Y-81142498D01*
X89955335Y-81383139D01*
X89881501Y-81449915D01*
X89816321Y-81508031D01*
X89764127Y-81552989D01*
X89723052Y-81585911D01*
X89691234Y-81607919D01*
X89666805Y-81620134D01*
X89647903Y-81623679D01*
X89632662Y-81619676D01*
X89619218Y-81609247D01*
X89605706Y-81593514D01*
X89599461Y-81585031D01*
X89593829Y-81574453D01*
X89589618Y-81560295D01*
X89586666Y-81539843D01*
X89584811Y-81510382D01*
X89583892Y-81469201D01*
X89583747Y-81413584D01*
X89584214Y-81340819D01*
X89585131Y-81248191D01*
X89588446Y-80933239D01*
X89615097Y-80911673D01*
X89641162Y-80895481D01*
X89674020Y-80892710D01*
X89708551Y-80911663D01*
X89712863Y-80915248D01*
X89720995Y-80923777D01*
X89727024Y-80935369D01*
X89731385Y-80953275D01*
X89734513Y-80980746D01*
X89736842Y-81021034D01*
X89738808Y-81077391D01*
X89740846Y-81153069D01*
X89746490Y-81372918D01*
X89927113Y-81209124D01*
X90013851Y-81130491D01*
X90089622Y-81062098D01*
X90151759Y-81006748D01*
X90201857Y-80963378D01*
X90241514Y-80930921D01*
X90272327Y-80908313D01*
X90295893Y-80894488D01*
X90313809Y-80888383D01*
X90327672Y-80888932D01*
G37*
X90327672Y-80888932D02*
X90339080Y-80895069D01*
X90349629Y-80905731D01*
X90360915Y-80919851D01*
X90365368Y-80925812D01*
X90371367Y-80936308D01*
X90375946Y-80950133D01*
X90379298Y-80970038D01*
X90381612Y-80998772D01*
X90383080Y-81039085D01*
X90383892Y-81093727D01*
X90384239Y-81165447D01*
X90384313Y-81256996D01*
X90384290Y-81315526D01*
X90384071Y-81394613D01*
X90383462Y-81455556D01*
X90382271Y-81501102D01*
X90380308Y-81534003D01*
X90377382Y-81557008D01*
X90373302Y-81572866D01*
X90367876Y-81584326D01*
X90360915Y-81594140D01*
X90330487Y-81618533D01*
X90295544Y-81621412D01*
X90258563Y-81602322D01*
X90254379Y-81598847D01*
X90246203Y-81590319D01*
X90240143Y-81578768D01*
X90235760Y-81560936D01*
X90232618Y-81533564D01*
X90230281Y-81493394D01*
X90228310Y-81437168D01*
X90226268Y-81361629D01*
X90220624Y-81142498D01*
X89955335Y-81383139D01*
X89881501Y-81449915D01*
X89816321Y-81508031D01*
X89764127Y-81552989D01*
X89723052Y-81585911D01*
X89691234Y-81607919D01*
X89666805Y-81620134D01*
X89647903Y-81623679D01*
X89632662Y-81619676D01*
X89619218Y-81609247D01*
X89605706Y-81593514D01*
X89599461Y-81585031D01*
X89593829Y-81574453D01*
X89589618Y-81560295D01*
X89586666Y-81539843D01*
X89584811Y-81510382D01*
X89583892Y-81469201D01*
X89583747Y-81413584D01*
X89584214Y-81340819D01*
X89585131Y-81248191D01*
X89588446Y-80933239D01*
X89615097Y-80911673D01*
X89641162Y-80895481D01*
X89674020Y-80892710D01*
X89708551Y-80911663D01*
X89712863Y-80915248D01*
X89720995Y-80923777D01*
X89727024Y-80935369D01*
X89731385Y-80953275D01*
X89734513Y-80980746D01*
X89736842Y-81021034D01*
X89738808Y-81077391D01*
X89740846Y-81153069D01*
X89746490Y-81372918D01*
X89927113Y-81209124D01*
X90013851Y-81130491D01*
X90089622Y-81062098D01*
X90151759Y-81006748D01*
X90201857Y-80963378D01*
X90241514Y-80930921D01*
X90272327Y-80908313D01*
X90295893Y-80894488D01*
X90313809Y-80888383D01*
X90327672Y-80888932D01*
G36*
X88178942Y-81534215D02*
G01*
X88176014Y-81557135D01*
X88171937Y-81572937D01*
X88166522Y-81584359D01*
X88159582Y-81594140D01*
X88136185Y-81623885D01*
X87970493Y-81623291D01*
X87935697Y-81622993D01*
X87837214Y-81619562D01*
X87756252Y-81611879D01*
X87689158Y-81599322D01*
X87632275Y-81581267D01*
X87581948Y-81557092D01*
X87578589Y-81555175D01*
X87520777Y-81518457D01*
X87478423Y-81481491D01*
X87445607Y-81438006D01*
X87416407Y-81381729D01*
X87412125Y-81372113D01*
X87389548Y-81308927D01*
X87383813Y-81263373D01*
X87533058Y-81263373D01*
X87538671Y-81288101D01*
X87544397Y-81303979D01*
X87577327Y-81363887D01*
X87624665Y-81409640D01*
X87688431Y-81442776D01*
X87770640Y-81464830D01*
X87773434Y-81465332D01*
X87819719Y-81471295D01*
X87876115Y-81475523D01*
X87931053Y-81477129D01*
X88024935Y-81477129D01*
X88024935Y-81036862D01*
X87937446Y-81037310D01*
X87870526Y-81039786D01*
X87778128Y-81051038D01*
X87698813Y-81070577D01*
X87636839Y-81097551D01*
X87605899Y-81118280D01*
X87577779Y-81148046D01*
X87554439Y-81190474D01*
X87547312Y-81206440D01*
X87535488Y-81238942D01*
X87533058Y-81263373D01*
X87383813Y-81263373D01*
X87382576Y-81253549D01*
X87391178Y-81198523D01*
X87415320Y-81136391D01*
X87416116Y-81134698D01*
X87456567Y-81065276D01*
X87507252Y-81008678D01*
X87569977Y-80964110D01*
X87646553Y-80930781D01*
X87738788Y-80907901D01*
X87848491Y-80894676D01*
X87977470Y-80890315D01*
X87981042Y-80890310D01*
X88041062Y-80890450D01*
X88082993Y-80891486D01*
X88111107Y-80894080D01*
X88129676Y-80898893D01*
X88142973Y-80906584D01*
X88155270Y-80917816D01*
X88182979Y-80945525D01*
X88182979Y-81254960D01*
X88182954Y-81316566D01*
X88182729Y-81395351D01*
X88182111Y-81456061D01*
X88181554Y-81477129D01*
X88180912Y-81501436D01*
X88178942Y-81534215D01*
G37*
X88178942Y-81534215D02*
X88176014Y-81557135D01*
X88171937Y-81572937D01*
X88166522Y-81584359D01*
X88159582Y-81594140D01*
X88136185Y-81623885D01*
X87970493Y-81623291D01*
X87935697Y-81622993D01*
X87837214Y-81619562D01*
X87756252Y-81611879D01*
X87689158Y-81599322D01*
X87632275Y-81581267D01*
X87581948Y-81557092D01*
X87578589Y-81555175D01*
X87520777Y-81518457D01*
X87478423Y-81481491D01*
X87445607Y-81438006D01*
X87416407Y-81381729D01*
X87412125Y-81372113D01*
X87389548Y-81308927D01*
X87383813Y-81263373D01*
X87533058Y-81263373D01*
X87538671Y-81288101D01*
X87544397Y-81303979D01*
X87577327Y-81363887D01*
X87624665Y-81409640D01*
X87688431Y-81442776D01*
X87770640Y-81464830D01*
X87773434Y-81465332D01*
X87819719Y-81471295D01*
X87876115Y-81475523D01*
X87931053Y-81477129D01*
X88024935Y-81477129D01*
X88024935Y-81036862D01*
X87937446Y-81037310D01*
X87870526Y-81039786D01*
X87778128Y-81051038D01*
X87698813Y-81070577D01*
X87636839Y-81097551D01*
X87605899Y-81118280D01*
X87577779Y-81148046D01*
X87554439Y-81190474D01*
X87547312Y-81206440D01*
X87535488Y-81238942D01*
X87533058Y-81263373D01*
X87383813Y-81263373D01*
X87382576Y-81253549D01*
X87391178Y-81198523D01*
X87415320Y-81136391D01*
X87416116Y-81134698D01*
X87456567Y-81065276D01*
X87507252Y-81008678D01*
X87569977Y-80964110D01*
X87646553Y-80930781D01*
X87738788Y-80907901D01*
X87848491Y-80894676D01*
X87977470Y-80890315D01*
X87981042Y-80890310D01*
X88041062Y-80890450D01*
X88082993Y-80891486D01*
X88111107Y-80894080D01*
X88129676Y-80898893D01*
X88142973Y-80906584D01*
X88155270Y-80917816D01*
X88182979Y-80945525D01*
X88182979Y-81254960D01*
X88182954Y-81316566D01*
X88182729Y-81395351D01*
X88182111Y-81456061D01*
X88181554Y-81477129D01*
X88180912Y-81501436D01*
X88178942Y-81534215D01*
G36*
X83475513Y-80912685D02*
G01*
X83481145Y-80918875D01*
X83486235Y-80927081D01*
X83490322Y-80938857D01*
X83493500Y-80956316D01*
X83495866Y-80981570D01*
X83497517Y-81016730D01*
X83498548Y-81063909D01*
X83499056Y-81125217D01*
X83499138Y-81202767D01*
X83498888Y-81298671D01*
X83498404Y-81415040D01*
X83498336Y-81429215D01*
X83497750Y-81490977D01*
X83496427Y-81534660D01*
X83493882Y-81564041D01*
X83489627Y-81582895D01*
X83483175Y-81594999D01*
X83474041Y-81604129D01*
X83440583Y-81621546D01*
X83405635Y-81618644D01*
X83374732Y-81594140D01*
X83365723Y-81580937D01*
X83358271Y-81562401D01*
X83353903Y-81536373D01*
X83351848Y-81497827D01*
X83351335Y-81441740D01*
X83351335Y-81319085D01*
X82854624Y-81319085D01*
X82854624Y-81453911D01*
X82854551Y-81489702D01*
X82853788Y-81536032D01*
X82851612Y-81566566D01*
X82847315Y-81585597D01*
X82840191Y-81597414D01*
X82829534Y-81606311D01*
X82797283Y-81621381D01*
X82761996Y-81618713D01*
X82731265Y-81594140D01*
X82726610Y-81587885D01*
X82720674Y-81577361D01*
X82716143Y-81563431D01*
X82712827Y-81543357D01*
X82710538Y-81514400D01*
X82709087Y-81473820D01*
X82708284Y-81418880D01*
X82707941Y-81346839D01*
X82707868Y-81254960D01*
X82707868Y-80945525D01*
X82735577Y-80917816D01*
X82766956Y-80895573D01*
X82800185Y-80892884D01*
X82832046Y-80912685D01*
X82840332Y-80922455D01*
X82847744Y-80938347D01*
X82852081Y-80962315D01*
X82854117Y-80999188D01*
X82854624Y-81053796D01*
X82854624Y-81172329D01*
X83351335Y-81172329D01*
X83351335Y-81056816D01*
X83351773Y-81005118D01*
X83353737Y-80970594D01*
X83358253Y-80948018D01*
X83366346Y-80932166D01*
X83379044Y-80917816D01*
X83410422Y-80895573D01*
X83443651Y-80892884D01*
X83475513Y-80912685D01*
G37*
X83475513Y-80912685D02*
X83481145Y-80918875D01*
X83486235Y-80927081D01*
X83490322Y-80938857D01*
X83493500Y-80956316D01*
X83495866Y-80981570D01*
X83497517Y-81016730D01*
X83498548Y-81063909D01*
X83499056Y-81125217D01*
X83499138Y-81202767D01*
X83498888Y-81298671D01*
X83498404Y-81415040D01*
X83498336Y-81429215D01*
X83497750Y-81490977D01*
X83496427Y-81534660D01*
X83493882Y-81564041D01*
X83489627Y-81582895D01*
X83483175Y-81594999D01*
X83474041Y-81604129D01*
X83440583Y-81621546D01*
X83405635Y-81618644D01*
X83374732Y-81594140D01*
X83365723Y-81580937D01*
X83358271Y-81562401D01*
X83353903Y-81536373D01*
X83351848Y-81497827D01*
X83351335Y-81441740D01*
X83351335Y-81319085D01*
X82854624Y-81319085D01*
X82854624Y-81453911D01*
X82854551Y-81489702D01*
X82853788Y-81536032D01*
X82851612Y-81566566D01*
X82847315Y-81585597D01*
X82840191Y-81597414D01*
X82829534Y-81606311D01*
X82797283Y-81621381D01*
X82761996Y-81618713D01*
X82731265Y-81594140D01*
X82726610Y-81587885D01*
X82720674Y-81577361D01*
X82716143Y-81563431D01*
X82712827Y-81543357D01*
X82710538Y-81514400D01*
X82709087Y-81473820D01*
X82708284Y-81418880D01*
X82707941Y-81346839D01*
X82707868Y-81254960D01*
X82707868Y-80945525D01*
X82735577Y-80917816D01*
X82766956Y-80895573D01*
X82800185Y-80892884D01*
X82832046Y-80912685D01*
X82840332Y-80922455D01*
X82847744Y-80938347D01*
X82852081Y-80962315D01*
X82854117Y-80999188D01*
X82854624Y-81053796D01*
X82854624Y-81172329D01*
X83351335Y-81172329D01*
X83351335Y-81056816D01*
X83351773Y-81005118D01*
X83353737Y-80970594D01*
X83358253Y-80948018D01*
X83366346Y-80932166D01*
X83379044Y-80917816D01*
X83410422Y-80895573D01*
X83443651Y-80892884D01*
X83475513Y-80912685D01*
G36*
X84851185Y-80895989D02*
G01*
X84876906Y-80911687D01*
X84903557Y-80933267D01*
X84903557Y-81580724D01*
X84876906Y-81602304D01*
X84845546Y-81619779D01*
X84809745Y-81620615D01*
X84778307Y-81600122D01*
X84774431Y-81595456D01*
X84768965Y-81585989D01*
X84764758Y-81572307D01*
X84761646Y-81551788D01*
X84759466Y-81521808D01*
X84758055Y-81479744D01*
X84757250Y-81422972D01*
X84756886Y-81348870D01*
X84756801Y-81254813D01*
X84756801Y-80933267D01*
X84783452Y-80911687D01*
X84807165Y-80896917D01*
X84830179Y-80890107D01*
X84851185Y-80895989D01*
G37*
X84851185Y-80895989D02*
X84876906Y-80911687D01*
X84903557Y-80933267D01*
X84903557Y-81580724D01*
X84876906Y-81602304D01*
X84845546Y-81619779D01*
X84809745Y-81620615D01*
X84778307Y-81600122D01*
X84774431Y-81595456D01*
X84768965Y-81585989D01*
X84764758Y-81572307D01*
X84761646Y-81551788D01*
X84759466Y-81521808D01*
X84758055Y-81479744D01*
X84757250Y-81422972D01*
X84756886Y-81348870D01*
X84756801Y-81254813D01*
X84756801Y-80933267D01*
X84783452Y-80911687D01*
X84807165Y-80896917D01*
X84830179Y-80890107D01*
X84851185Y-80895989D01*
G36*
X96664019Y-79791158D02*
G01*
X96662264Y-79882872D01*
X96660133Y-79960965D01*
X96657589Y-80026572D01*
X96654598Y-80080829D01*
X96651122Y-80124871D01*
X96647127Y-80159833D01*
X96642576Y-80186851D01*
X96637434Y-80207060D01*
X96631666Y-80221595D01*
X96625235Y-80231592D01*
X96618106Y-80238186D01*
X96610242Y-80242513D01*
X96601609Y-80245707D01*
X96592171Y-80248904D01*
X96581891Y-80253239D01*
X96576107Y-80255411D01*
X96565497Y-80257784D01*
X96549732Y-80259958D01*
X96527697Y-80261941D01*
X96498277Y-80263744D01*
X96460356Y-80265373D01*
X96412819Y-80266839D01*
X96354551Y-80268149D01*
X96284437Y-80269313D01*
X96201361Y-80270339D01*
X96104208Y-80271236D01*
X95991863Y-80272013D01*
X95863212Y-80272678D01*
X95717137Y-80273240D01*
X95552525Y-80273708D01*
X95368260Y-80274090D01*
X95163227Y-80274396D01*
X94936311Y-80274633D01*
X94686396Y-80274811D01*
X94412368Y-80274939D01*
X94113110Y-80275024D01*
X93787508Y-80275076D01*
X93684326Y-80275086D01*
X93365790Y-80275093D01*
X93073274Y-80275053D01*
X92805675Y-80274958D01*
X92561891Y-80274801D01*
X92340819Y-80274573D01*
X92141359Y-80274267D01*
X91962408Y-80273873D01*
X91802863Y-80273386D01*
X91661623Y-80272795D01*
X91537586Y-80272095D01*
X91429650Y-80271275D01*
X91336713Y-80270329D01*
X91257672Y-80269248D01*
X91191426Y-80268025D01*
X91136872Y-80266651D01*
X91092909Y-80265119D01*
X91058434Y-80263420D01*
X91032346Y-80261546D01*
X91013543Y-80259490D01*
X91000922Y-80257244D01*
X90993381Y-80254798D01*
X90990982Y-80253710D01*
X90981160Y-80250135D01*
X90972153Y-80247524D01*
X90963924Y-80244741D01*
X90956437Y-80240648D01*
X90949655Y-80234108D01*
X90943542Y-80223985D01*
X90938062Y-80209141D01*
X90933177Y-80188439D01*
X90928851Y-80160743D01*
X90925048Y-80124916D01*
X90921731Y-80079821D01*
X90918863Y-80024320D01*
X90916409Y-79957277D01*
X90914331Y-79877555D01*
X90912594Y-79784018D01*
X90911160Y-79675527D01*
X90910689Y-79625288D01*
X91272742Y-79625288D01*
X91273139Y-79630099D01*
X91280422Y-79633998D01*
X91296876Y-79637080D01*
X91324788Y-79639442D01*
X91366444Y-79641178D01*
X91424129Y-79642384D01*
X91500129Y-79643156D01*
X91596731Y-79643589D01*
X91716221Y-79643779D01*
X91860883Y-79643821D01*
X92466860Y-79643821D01*
X92415633Y-79551146D01*
X92364406Y-79458470D01*
X92364406Y-76767443D01*
X92415633Y-76674767D01*
X92466860Y-76582092D01*
X91383698Y-76582092D01*
X91375866Y-79431010D01*
X91337468Y-79513016D01*
X91317223Y-79553663D01*
X91294300Y-79594380D01*
X91276988Y-79619422D01*
X91276945Y-79619470D01*
X91272742Y-79625288D01*
X90910689Y-79625288D01*
X90909993Y-79550946D01*
X90909057Y-79409138D01*
X90908315Y-79248967D01*
X90907730Y-79069295D01*
X90907266Y-78868985D01*
X90906887Y-78646900D01*
X90906556Y-78401904D01*
X90906236Y-78132860D01*
X90905891Y-77838630D01*
X90905485Y-77518078D01*
X90905432Y-77479272D01*
X90904979Y-77160751D01*
X90904546Y-76868420D01*
X90904164Y-76601141D01*
X90903867Y-76357777D01*
X90903685Y-76137190D01*
X90903652Y-75938243D01*
X90903798Y-75759798D01*
X90904157Y-75600719D01*
X90904761Y-75459867D01*
X90905641Y-75336105D01*
X90906829Y-75228295D01*
X90908358Y-75135301D01*
X90910259Y-75055985D01*
X90912565Y-74989208D01*
X90915308Y-74933835D01*
X90918519Y-74888727D01*
X90922232Y-74852747D01*
X90926477Y-74824757D01*
X90931288Y-74803620D01*
X90936695Y-74788199D01*
X90942732Y-74777356D01*
X90949430Y-74769954D01*
X90956822Y-74764855D01*
X90964938Y-74760921D01*
X90973812Y-74757016D01*
X90983476Y-74752002D01*
X90986304Y-74750404D01*
X91029091Y-74734937D01*
X91075930Y-74728580D01*
X91128731Y-74728582D01*
X91129611Y-74848715D01*
X91129834Y-74862540D01*
X91146616Y-75003063D01*
X91189360Y-75135283D01*
X91257470Y-75257800D01*
X91350355Y-75369211D01*
X91400199Y-75414651D01*
X91511182Y-75489968D01*
X91632275Y-75542491D01*
X91759952Y-75572190D01*
X91890684Y-75579038D01*
X92020947Y-75563007D01*
X92147212Y-75524069D01*
X92251009Y-75469983D01*
X92710394Y-75469983D01*
X92770806Y-75513447D01*
X92821897Y-75554296D01*
X92893890Y-75620924D01*
X92975547Y-75704428D01*
X93063777Y-75801626D01*
X93155487Y-75909335D01*
X93179104Y-75938138D01*
X93219314Y-75987540D01*
X93271874Y-76052353D01*
X93335043Y-76130414D01*
X93407079Y-76219559D01*
X93486241Y-76317626D01*
X93570789Y-76422452D01*
X93658980Y-76531872D01*
X93699431Y-76582092D01*
X93749073Y-76643724D01*
X93839327Y-76755845D01*
X93928002Y-76866072D01*
X94013355Y-76972240D01*
X94093645Y-77072188D01*
X94167131Y-77163751D01*
X94232072Y-77244767D01*
X94286727Y-77313072D01*
X94329353Y-77366503D01*
X94358211Y-77402896D01*
X94371558Y-77420090D01*
X94372660Y-77426551D01*
X94368995Y-77438840D01*
X94359500Y-77458173D01*
X94343225Y-77485922D01*
X94319223Y-77523458D01*
X94286547Y-77572152D01*
X94244248Y-77633377D01*
X94191378Y-77708502D01*
X94126990Y-77798900D01*
X94050135Y-77905942D01*
X93959867Y-78031000D01*
X93855236Y-78175444D01*
X93735296Y-78340646D01*
X93639729Y-78472145D01*
X93523135Y-78632453D01*
X93420575Y-78773235D01*
X93330856Y-78896052D01*
X93252787Y-79002467D01*
X93185175Y-79094043D01*
X93126825Y-79172342D01*
X93076547Y-79238927D01*
X93033148Y-79295359D01*
X92995433Y-79343202D01*
X92962212Y-79384017D01*
X92932290Y-79419368D01*
X92904476Y-79450816D01*
X92877577Y-79479924D01*
X92850400Y-79508254D01*
X92821752Y-79537370D01*
X92716179Y-79643821D01*
X94135541Y-79643879D01*
X94131082Y-79557867D01*
X94130866Y-79553545D01*
X94130019Y-79519161D01*
X94131624Y-79486216D01*
X94136753Y-79452906D01*
X94146480Y-79417426D01*
X94161878Y-79377973D01*
X94184021Y-79332741D01*
X94213982Y-79279925D01*
X94252835Y-79217722D01*
X94301653Y-79144325D01*
X94361509Y-79057932D01*
X94433477Y-78956738D01*
X94518630Y-78838936D01*
X94618041Y-78702724D01*
X94732785Y-78546297D01*
X95137812Y-77994889D01*
X95141380Y-78634230D01*
X95141696Y-78693868D01*
X95142254Y-78854505D01*
X95142000Y-78991137D01*
X95140637Y-79106350D01*
X95137864Y-79202731D01*
X95133385Y-79282864D01*
X95126900Y-79349335D01*
X95118110Y-79404731D01*
X95106717Y-79451636D01*
X95092422Y-79492636D01*
X95074927Y-79530317D01*
X95053934Y-79567265D01*
X95029142Y-79606065D01*
X95004221Y-79643821D01*
X96299371Y-79643821D01*
X96265916Y-79599200D01*
X96260677Y-79592141D01*
X96218789Y-79527442D01*
X96189914Y-79462038D01*
X96170953Y-79387096D01*
X96158808Y-79293781D01*
X96158474Y-79289713D01*
X96156712Y-79251223D01*
X96155120Y-79187004D01*
X96153707Y-79098524D01*
X96152479Y-78987251D01*
X96151443Y-78854651D01*
X96150605Y-78702193D01*
X96149973Y-78531344D01*
X96149554Y-78343570D01*
X96149355Y-78140341D01*
X96149382Y-77923122D01*
X96149642Y-77693383D01*
X96150142Y-77452589D01*
X96150672Y-77236596D01*
X96151239Y-77001483D01*
X96151798Y-76791127D01*
X96152417Y-76604054D01*
X96153168Y-76438790D01*
X96154121Y-76293861D01*
X96155345Y-76167795D01*
X96156910Y-76059116D01*
X96158888Y-75966352D01*
X96161347Y-75888028D01*
X96164358Y-75822670D01*
X96167991Y-75768806D01*
X96172316Y-75724961D01*
X96177403Y-75689661D01*
X96183322Y-75661433D01*
X96190144Y-75638803D01*
X96197938Y-75620297D01*
X96206775Y-75604442D01*
X96216724Y-75589763D01*
X96227856Y-75574788D01*
X96240241Y-75558041D01*
X96252219Y-75541260D01*
X96275372Y-75508079D01*
X96289240Y-75487146D01*
X96289575Y-75486269D01*
X96284733Y-75482310D01*
X96267644Y-75479007D01*
X96236408Y-75476309D01*
X96189122Y-75474165D01*
X96123885Y-75472524D01*
X96038797Y-75471337D01*
X95931954Y-75470551D01*
X95801456Y-75470117D01*
X95645401Y-75469983D01*
X94991209Y-75469983D01*
X95025687Y-75510958D01*
X95045669Y-75539101D01*
X95078930Y-75605456D01*
X95108078Y-75687983D01*
X95130325Y-75779527D01*
X95131743Y-75788217D01*
X95135961Y-75834031D01*
X95139156Y-75904837D01*
X95141336Y-76001123D01*
X95142508Y-76123380D01*
X95142682Y-76272099D01*
X95141865Y-76447770D01*
X95137812Y-77034260D01*
X94719055Y-76504707D01*
X94707061Y-76489538D01*
X94600868Y-76355103D01*
X94510208Y-76239972D01*
X94433638Y-76142187D01*
X94369714Y-76059791D01*
X94316994Y-75990826D01*
X94274036Y-75933334D01*
X94239396Y-75885358D01*
X94211632Y-75844941D01*
X94189301Y-75810124D01*
X94170959Y-75778951D01*
X94155165Y-75749463D01*
X94140475Y-75719703D01*
X94117877Y-75667025D01*
X94103278Y-75611454D01*
X94099395Y-75551514D01*
X94099785Y-75469983D01*
X92710394Y-75469983D01*
X92251009Y-75469983D01*
X92265953Y-75462196D01*
X92373644Y-75377359D01*
X92403581Y-75347450D01*
X92492064Y-75236710D01*
X92554851Y-75116532D01*
X92592276Y-74986139D01*
X92604676Y-74844758D01*
X92604676Y-74728578D01*
X94575575Y-74728578D01*
X94698707Y-74728573D01*
X94963230Y-74728537D01*
X95202189Y-74728511D01*
X95416905Y-74728547D01*
X95608700Y-74728697D01*
X95778894Y-74729014D01*
X95928810Y-74729550D01*
X96059769Y-74730356D01*
X96173092Y-74731486D01*
X96270101Y-74732992D01*
X96352116Y-74734925D01*
X96420461Y-74737339D01*
X96476455Y-74740284D01*
X96521420Y-74743814D01*
X96556678Y-74747981D01*
X96583550Y-74752837D01*
X96603358Y-74758434D01*
X96617422Y-74764824D01*
X96627065Y-74772060D01*
X96633608Y-74780194D01*
X96638372Y-74789279D01*
X96642679Y-74799366D01*
X96647850Y-74810507D01*
X96647942Y-74810689D01*
X96650453Y-74817982D01*
X96652755Y-74830195D01*
X96654859Y-74848453D01*
X96656773Y-74873885D01*
X96658505Y-74907617D01*
X96660065Y-74950776D01*
X96661460Y-75004489D01*
X96662700Y-75069883D01*
X96663794Y-75148086D01*
X96664750Y-75240224D01*
X96665577Y-75347424D01*
X96666284Y-75470814D01*
X96666880Y-75611519D01*
X96667372Y-75770668D01*
X96667771Y-75949388D01*
X96668084Y-76148805D01*
X96668320Y-76370046D01*
X96668489Y-76614238D01*
X96668599Y-76882509D01*
X96668659Y-77175985D01*
X96668676Y-77495794D01*
X96668677Y-77558621D01*
X96668707Y-77875097D01*
X96668754Y-78165463D01*
X96668782Y-78430855D01*
X96668754Y-78672408D01*
X96668637Y-78891258D01*
X96668392Y-79088539D01*
X96667985Y-79265387D01*
X96667380Y-79422938D01*
X96666541Y-79562327D01*
X96665802Y-79643821D01*
X96665432Y-79684688D01*
X96664019Y-79791158D01*
G37*
X96664019Y-79791158D02*
X96662264Y-79882872D01*
X96660133Y-79960965D01*
X96657589Y-80026572D01*
X96654598Y-80080829D01*
X96651122Y-80124871D01*
X96647127Y-80159833D01*
X96642576Y-80186851D01*
X96637434Y-80207060D01*
X96631666Y-80221595D01*
X96625235Y-80231592D01*
X96618106Y-80238186D01*
X96610242Y-80242513D01*
X96601609Y-80245707D01*
X96592171Y-80248904D01*
X96581891Y-80253239D01*
X96576107Y-80255411D01*
X96565497Y-80257784D01*
X96549732Y-80259958D01*
X96527697Y-80261941D01*
X96498277Y-80263744D01*
X96460356Y-80265373D01*
X96412819Y-80266839D01*
X96354551Y-80268149D01*
X96284437Y-80269313D01*
X96201361Y-80270339D01*
X96104208Y-80271236D01*
X95991863Y-80272013D01*
X95863212Y-80272678D01*
X95717137Y-80273240D01*
X95552525Y-80273708D01*
X95368260Y-80274090D01*
X95163227Y-80274396D01*
X94936311Y-80274633D01*
X94686396Y-80274811D01*
X94412368Y-80274939D01*
X94113110Y-80275024D01*
X93787508Y-80275076D01*
X93684326Y-80275086D01*
X93365790Y-80275093D01*
X93073274Y-80275053D01*
X92805675Y-80274958D01*
X92561891Y-80274801D01*
X92340819Y-80274573D01*
X92141359Y-80274267D01*
X91962408Y-80273873D01*
X91802863Y-80273386D01*
X91661623Y-80272795D01*
X91537586Y-80272095D01*
X91429650Y-80271275D01*
X91336713Y-80270329D01*
X91257672Y-80269248D01*
X91191426Y-80268025D01*
X91136872Y-80266651D01*
X91092909Y-80265119D01*
X91058434Y-80263420D01*
X91032346Y-80261546D01*
X91013543Y-80259490D01*
X91000922Y-80257244D01*
X90993381Y-80254798D01*
X90990982Y-80253710D01*
X90981160Y-80250135D01*
X90972153Y-80247524D01*
X90963924Y-80244741D01*
X90956437Y-80240648D01*
X90949655Y-80234108D01*
X90943542Y-80223985D01*
X90938062Y-80209141D01*
X90933177Y-80188439D01*
X90928851Y-80160743D01*
X90925048Y-80124916D01*
X90921731Y-80079821D01*
X90918863Y-80024320D01*
X90916409Y-79957277D01*
X90914331Y-79877555D01*
X90912594Y-79784018D01*
X90911160Y-79675527D01*
X90910689Y-79625288D01*
X91272742Y-79625288D01*
X91273139Y-79630099D01*
X91280422Y-79633998D01*
X91296876Y-79637080D01*
X91324788Y-79639442D01*
X91366444Y-79641178D01*
X91424129Y-79642384D01*
X91500129Y-79643156D01*
X91596731Y-79643589D01*
X91716221Y-79643779D01*
X91860883Y-79643821D01*
X92466860Y-79643821D01*
X92415633Y-79551146D01*
X92364406Y-79458470D01*
X92364406Y-76767443D01*
X92415633Y-76674767D01*
X92466860Y-76582092D01*
X91383698Y-76582092D01*
X91375866Y-79431010D01*
X91337468Y-79513016D01*
X91317223Y-79553663D01*
X91294300Y-79594380D01*
X91276988Y-79619422D01*
X91276945Y-79619470D01*
X91272742Y-79625288D01*
X90910689Y-79625288D01*
X90909993Y-79550946D01*
X90909057Y-79409138D01*
X90908315Y-79248967D01*
X90907730Y-79069295D01*
X90907266Y-78868985D01*
X90906887Y-78646900D01*
X90906556Y-78401904D01*
X90906236Y-78132860D01*
X90905891Y-77838630D01*
X90905485Y-77518078D01*
X90905432Y-77479272D01*
X90904979Y-77160751D01*
X90904546Y-76868420D01*
X90904164Y-76601141D01*
X90903867Y-76357777D01*
X90903685Y-76137190D01*
X90903652Y-75938243D01*
X90903798Y-75759798D01*
X90904157Y-75600719D01*
X90904761Y-75459867D01*
X90905641Y-75336105D01*
X90906829Y-75228295D01*
X90908358Y-75135301D01*
X90910259Y-75055985D01*
X90912565Y-74989208D01*
X90915308Y-74933835D01*
X90918519Y-74888727D01*
X90922232Y-74852747D01*
X90926477Y-74824757D01*
X90931288Y-74803620D01*
X90936695Y-74788199D01*
X90942732Y-74777356D01*
X90949430Y-74769954D01*
X90956822Y-74764855D01*
X90964938Y-74760921D01*
X90973812Y-74757016D01*
X90983476Y-74752002D01*
X90986304Y-74750404D01*
X91029091Y-74734937D01*
X91075930Y-74728580D01*
X91128731Y-74728582D01*
X91129611Y-74848715D01*
X91129834Y-74862540D01*
X91146616Y-75003063D01*
X91189360Y-75135283D01*
X91257470Y-75257800D01*
X91350355Y-75369211D01*
X91400199Y-75414651D01*
X91511182Y-75489968D01*
X91632275Y-75542491D01*
X91759952Y-75572190D01*
X91890684Y-75579038D01*
X92020947Y-75563007D01*
X92147212Y-75524069D01*
X92251009Y-75469983D01*
X92710394Y-75469983D01*
X92770806Y-75513447D01*
X92821897Y-75554296D01*
X92893890Y-75620924D01*
X92975547Y-75704428D01*
X93063777Y-75801626D01*
X93155487Y-75909335D01*
X93179104Y-75938138D01*
X93219314Y-75987540D01*
X93271874Y-76052353D01*
X93335043Y-76130414D01*
X93407079Y-76219559D01*
X93486241Y-76317626D01*
X93570789Y-76422452D01*
X93658980Y-76531872D01*
X93699431Y-76582092D01*
X93749073Y-76643724D01*
X93839327Y-76755845D01*
X93928002Y-76866072D01*
X94013355Y-76972240D01*
X94093645Y-77072188D01*
X94167131Y-77163751D01*
X94232072Y-77244767D01*
X94286727Y-77313072D01*
X94329353Y-77366503D01*
X94358211Y-77402896D01*
X94371558Y-77420090D01*
X94372660Y-77426551D01*
X94368995Y-77438840D01*
X94359500Y-77458173D01*
X94343225Y-77485922D01*
X94319223Y-77523458D01*
X94286547Y-77572152D01*
X94244248Y-77633377D01*
X94191378Y-77708502D01*
X94126990Y-77798900D01*
X94050135Y-77905942D01*
X93959867Y-78031000D01*
X93855236Y-78175444D01*
X93735296Y-78340646D01*
X93639729Y-78472145D01*
X93523135Y-78632453D01*
X93420575Y-78773235D01*
X93330856Y-78896052D01*
X93252787Y-79002467D01*
X93185175Y-79094043D01*
X93126825Y-79172342D01*
X93076547Y-79238927D01*
X93033148Y-79295359D01*
X92995433Y-79343202D01*
X92962212Y-79384017D01*
X92932290Y-79419368D01*
X92904476Y-79450816D01*
X92877577Y-79479924D01*
X92850400Y-79508254D01*
X92821752Y-79537370D01*
X92716179Y-79643821D01*
X94135541Y-79643879D01*
X94131082Y-79557867D01*
X94130866Y-79553545D01*
X94130019Y-79519161D01*
X94131624Y-79486216D01*
X94136753Y-79452906D01*
X94146480Y-79417426D01*
X94161878Y-79377973D01*
X94184021Y-79332741D01*
X94213982Y-79279925D01*
X94252835Y-79217722D01*
X94301653Y-79144325D01*
X94361509Y-79057932D01*
X94433477Y-78956738D01*
X94518630Y-78838936D01*
X94618041Y-78702724D01*
X94732785Y-78546297D01*
X95137812Y-77994889D01*
X95141380Y-78634230D01*
X95141696Y-78693868D01*
X95142254Y-78854505D01*
X95142000Y-78991137D01*
X95140637Y-79106350D01*
X95137864Y-79202731D01*
X95133385Y-79282864D01*
X95126900Y-79349335D01*
X95118110Y-79404731D01*
X95106717Y-79451636D01*
X95092422Y-79492636D01*
X95074927Y-79530317D01*
X95053934Y-79567265D01*
X95029142Y-79606065D01*
X95004221Y-79643821D01*
X96299371Y-79643821D01*
X96265916Y-79599200D01*
X96260677Y-79592141D01*
X96218789Y-79527442D01*
X96189914Y-79462038D01*
X96170953Y-79387096D01*
X96158808Y-79293781D01*
X96158474Y-79289713D01*
X96156712Y-79251223D01*
X96155120Y-79187004D01*
X96153707Y-79098524D01*
X96152479Y-78987251D01*
X96151443Y-78854651D01*
X96150605Y-78702193D01*
X96149973Y-78531344D01*
X96149554Y-78343570D01*
X96149355Y-78140341D01*
X96149382Y-77923122D01*
X96149642Y-77693383D01*
X96150142Y-77452589D01*
X96150672Y-77236596D01*
X96151239Y-77001483D01*
X96151798Y-76791127D01*
X96152417Y-76604054D01*
X96153168Y-76438790D01*
X96154121Y-76293861D01*
X96155345Y-76167795D01*
X96156910Y-76059116D01*
X96158888Y-75966352D01*
X96161347Y-75888028D01*
X96164358Y-75822670D01*
X96167991Y-75768806D01*
X96172316Y-75724961D01*
X96177403Y-75689661D01*
X96183322Y-75661433D01*
X96190144Y-75638803D01*
X96197938Y-75620297D01*
X96206775Y-75604442D01*
X96216724Y-75589763D01*
X96227856Y-75574788D01*
X96240241Y-75558041D01*
X96252219Y-75541260D01*
X96275372Y-75508079D01*
X96289240Y-75487146D01*
X96289575Y-75486269D01*
X96284733Y-75482310D01*
X96267644Y-75479007D01*
X96236408Y-75476309D01*
X96189122Y-75474165D01*
X96123885Y-75472524D01*
X96038797Y-75471337D01*
X95931954Y-75470551D01*
X95801456Y-75470117D01*
X95645401Y-75469983D01*
X94991209Y-75469983D01*
X95025687Y-75510958D01*
X95045669Y-75539101D01*
X95078930Y-75605456D01*
X95108078Y-75687983D01*
X95130325Y-75779527D01*
X95131743Y-75788217D01*
X95135961Y-75834031D01*
X95139156Y-75904837D01*
X95141336Y-76001123D01*
X95142508Y-76123380D01*
X95142682Y-76272099D01*
X95141865Y-76447770D01*
X95137812Y-77034260D01*
X94719055Y-76504707D01*
X94707061Y-76489538D01*
X94600868Y-76355103D01*
X94510208Y-76239972D01*
X94433638Y-76142187D01*
X94369714Y-76059791D01*
X94316994Y-75990826D01*
X94274036Y-75933334D01*
X94239396Y-75885358D01*
X94211632Y-75844941D01*
X94189301Y-75810124D01*
X94170959Y-75778951D01*
X94155165Y-75749463D01*
X94140475Y-75719703D01*
X94117877Y-75667025D01*
X94103278Y-75611454D01*
X94099395Y-75551514D01*
X94099785Y-75469983D01*
X92710394Y-75469983D01*
X92251009Y-75469983D01*
X92265953Y-75462196D01*
X92373644Y-75377359D01*
X92403581Y-75347450D01*
X92492064Y-75236710D01*
X92554851Y-75116532D01*
X92592276Y-74986139D01*
X92604676Y-74844758D01*
X92604676Y-74728578D01*
X94575575Y-74728578D01*
X94698707Y-74728573D01*
X94963230Y-74728537D01*
X95202189Y-74728511D01*
X95416905Y-74728547D01*
X95608700Y-74728697D01*
X95778894Y-74729014D01*
X95928810Y-74729550D01*
X96059769Y-74730356D01*
X96173092Y-74731486D01*
X96270101Y-74732992D01*
X96352116Y-74734925D01*
X96420461Y-74737339D01*
X96476455Y-74740284D01*
X96521420Y-74743814D01*
X96556678Y-74747981D01*
X96583550Y-74752837D01*
X96603358Y-74758434D01*
X96617422Y-74764824D01*
X96627065Y-74772060D01*
X96633608Y-74780194D01*
X96638372Y-74789279D01*
X96642679Y-74799366D01*
X96647850Y-74810507D01*
X96647942Y-74810689D01*
X96650453Y-74817982D01*
X96652755Y-74830195D01*
X96654859Y-74848453D01*
X96656773Y-74873885D01*
X96658505Y-74907617D01*
X96660065Y-74950776D01*
X96661460Y-75004489D01*
X96662700Y-75069883D01*
X96663794Y-75148086D01*
X96664750Y-75240224D01*
X96665577Y-75347424D01*
X96666284Y-75470814D01*
X96666880Y-75611519D01*
X96667372Y-75770668D01*
X96667771Y-75949388D01*
X96668084Y-76148805D01*
X96668320Y-76370046D01*
X96668489Y-76614238D01*
X96668599Y-76882509D01*
X96668659Y-77175985D01*
X96668676Y-77495794D01*
X96668677Y-77558621D01*
X96668707Y-77875097D01*
X96668754Y-78165463D01*
X96668782Y-78430855D01*
X96668754Y-78672408D01*
X96668637Y-78891258D01*
X96668392Y-79088539D01*
X96667985Y-79265387D01*
X96667380Y-79422938D01*
X96666541Y-79562327D01*
X96665802Y-79643821D01*
X96665432Y-79684688D01*
X96664019Y-79791158D01*
G36*
X89175582Y-80919851D02*
G01*
X89180531Y-80926535D01*
X89186375Y-80937106D01*
X89190836Y-80951193D01*
X89194100Y-80971518D01*
X89196353Y-81000805D01*
X89197781Y-81041777D01*
X89198571Y-81097157D01*
X89198908Y-81169668D01*
X89198979Y-81262034D01*
X89198950Y-81327951D01*
X89198718Y-81406268D01*
X89198098Y-81466536D01*
X89196905Y-81511433D01*
X89194958Y-81543642D01*
X89192073Y-81565840D01*
X89188067Y-81580709D01*
X89182758Y-81590929D01*
X89175962Y-81599178D01*
X89171447Y-81603835D01*
X89163217Y-81610322D01*
X89151857Y-81615234D01*
X89134589Y-81618789D01*
X89108634Y-81621207D01*
X89071215Y-81622707D01*
X89019552Y-81623507D01*
X88950868Y-81623827D01*
X88862385Y-81623885D01*
X88842710Y-81623878D01*
X88755685Y-81623612D01*
X88688033Y-81622846D01*
X88637078Y-81621432D01*
X88600146Y-81619220D01*
X88574562Y-81616062D01*
X88557650Y-81611809D01*
X88546736Y-81606311D01*
X88536243Y-81596325D01*
X88522982Y-81565208D01*
X88524165Y-81529320D01*
X88540329Y-81497773D01*
X88542518Y-81495497D01*
X88551206Y-81489229D01*
X88564548Y-81484563D01*
X88585531Y-81481267D01*
X88617142Y-81479108D01*
X88662369Y-81477854D01*
X88724199Y-81477271D01*
X88805618Y-81477129D01*
X89052224Y-81477129D01*
X89052224Y-81319085D01*
X88889785Y-81319085D01*
X88854117Y-81319004D01*
X88798347Y-81318207D01*
X88759209Y-81316202D01*
X88732755Y-81312561D01*
X88715038Y-81306852D01*
X88702108Y-81298647D01*
X88698465Y-81295463D01*
X88680057Y-81264488D01*
X88679423Y-81228152D01*
X88696962Y-81194533D01*
X88697024Y-81194464D01*
X88706695Y-81185838D01*
X88719988Y-81179782D01*
X88740696Y-81175851D01*
X88772607Y-81173596D01*
X88819513Y-81172571D01*
X88885203Y-81172329D01*
X89053350Y-81172329D01*
X89049965Y-81107418D01*
X89046579Y-81042507D01*
X88804502Y-81039454D01*
X88779486Y-81039126D01*
X88697866Y-81037646D01*
X88635547Y-81035262D01*
X88589933Y-81031267D01*
X88558431Y-81024953D01*
X88538446Y-81015614D01*
X88527383Y-81002543D01*
X88522648Y-80985032D01*
X88521646Y-80962375D01*
X88521652Y-80960010D01*
X88522806Y-80939979D01*
X88527603Y-80924186D01*
X88538411Y-80912130D01*
X88557596Y-80903307D01*
X88587524Y-80897215D01*
X88630562Y-80893351D01*
X88689078Y-80891214D01*
X88765436Y-80890300D01*
X88862005Y-80890107D01*
X89152185Y-80890107D01*
X89175582Y-80919851D01*
G37*
X89175582Y-80919851D02*
X89180531Y-80926535D01*
X89186375Y-80937106D01*
X89190836Y-80951193D01*
X89194100Y-80971518D01*
X89196353Y-81000805D01*
X89197781Y-81041777D01*
X89198571Y-81097157D01*
X89198908Y-81169668D01*
X89198979Y-81262034D01*
X89198950Y-81327951D01*
X89198718Y-81406268D01*
X89198098Y-81466536D01*
X89196905Y-81511433D01*
X89194958Y-81543642D01*
X89192073Y-81565840D01*
X89188067Y-81580709D01*
X89182758Y-81590929D01*
X89175962Y-81599178D01*
X89171447Y-81603835D01*
X89163217Y-81610322D01*
X89151857Y-81615234D01*
X89134589Y-81618789D01*
X89108634Y-81621207D01*
X89071215Y-81622707D01*
X89019552Y-81623507D01*
X88950868Y-81623827D01*
X88862385Y-81623885D01*
X88842710Y-81623878D01*
X88755685Y-81623612D01*
X88688033Y-81622846D01*
X88637078Y-81621432D01*
X88600146Y-81619220D01*
X88574562Y-81616062D01*
X88557650Y-81611809D01*
X88546736Y-81606311D01*
X88536243Y-81596325D01*
X88522982Y-81565208D01*
X88524165Y-81529320D01*
X88540329Y-81497773D01*
X88542518Y-81495497D01*
X88551206Y-81489229D01*
X88564548Y-81484563D01*
X88585531Y-81481267D01*
X88617142Y-81479108D01*
X88662369Y-81477854D01*
X88724199Y-81477271D01*
X88805618Y-81477129D01*
X89052224Y-81477129D01*
X89052224Y-81319085D01*
X88889785Y-81319085D01*
X88854117Y-81319004D01*
X88798347Y-81318207D01*
X88759209Y-81316202D01*
X88732755Y-81312561D01*
X88715038Y-81306852D01*
X88702108Y-81298647D01*
X88698465Y-81295463D01*
X88680057Y-81264488D01*
X88679423Y-81228152D01*
X88696962Y-81194533D01*
X88697024Y-81194464D01*
X88706695Y-81185838D01*
X88719988Y-81179782D01*
X88740696Y-81175851D01*
X88772607Y-81173596D01*
X88819513Y-81172571D01*
X88885203Y-81172329D01*
X89053350Y-81172329D01*
X89049965Y-81107418D01*
X89046579Y-81042507D01*
X88804502Y-81039454D01*
X88779486Y-81039126D01*
X88697866Y-81037646D01*
X88635547Y-81035262D01*
X88589933Y-81031267D01*
X88558431Y-81024953D01*
X88538446Y-81015614D01*
X88527383Y-81002543D01*
X88522648Y-80985032D01*
X88521646Y-80962375D01*
X88521652Y-80960010D01*
X88522806Y-80939979D01*
X88527603Y-80924186D01*
X88538411Y-80912130D01*
X88557596Y-80903307D01*
X88587524Y-80897215D01*
X88630562Y-80893351D01*
X88689078Y-80891214D01*
X88765436Y-80890300D01*
X88862005Y-80890107D01*
X89152185Y-80890107D01*
X89175582Y-80919851D01*
G36*
X93852513Y-80890123D02*
G01*
X93929610Y-80890315D01*
X93988556Y-80890900D01*
X94032143Y-80892091D01*
X94063162Y-80894104D01*
X94084404Y-80897152D01*
X94098661Y-80901449D01*
X94108724Y-80907212D01*
X94117385Y-80914652D01*
X94119170Y-80916333D01*
X94126414Y-80923872D01*
X94132056Y-80932890D01*
X94136296Y-80946024D01*
X94139335Y-80965912D01*
X94141373Y-80995191D01*
X94142609Y-81036498D01*
X94143244Y-81092471D01*
X94143479Y-81165747D01*
X94143513Y-81258963D01*
X94143476Y-81331753D01*
X94143227Y-81409929D01*
X94142591Y-81470143D01*
X94141394Y-81515022D01*
X94139463Y-81547192D01*
X94136625Y-81569279D01*
X94132706Y-81583910D01*
X94127534Y-81593710D01*
X94120935Y-81601307D01*
X94117601Y-81604484D01*
X94109079Y-81610594D01*
X94097077Y-81615269D01*
X94078866Y-81618699D01*
X94051719Y-81621076D01*
X94012908Y-81622592D01*
X93959703Y-81623438D01*
X93889377Y-81623805D01*
X93799201Y-81623885D01*
X93757093Y-81623873D01*
X93675946Y-81623691D01*
X93613454Y-81623138D01*
X93566888Y-81622022D01*
X93533520Y-81620153D01*
X93510623Y-81617338D01*
X93495467Y-81613386D01*
X93485325Y-81608106D01*
X93477468Y-81601307D01*
X93462742Y-81579707D01*
X93454890Y-81550507D01*
X93460389Y-81526600D01*
X93477468Y-81499707D01*
X93482447Y-81495099D01*
X93492222Y-81488812D01*
X93506338Y-81484186D01*
X93527833Y-81480970D01*
X93559747Y-81478910D01*
X93605121Y-81477752D01*
X93666992Y-81477242D01*
X93748401Y-81477129D01*
X93996757Y-81477129D01*
X93996757Y-81319085D01*
X93835580Y-81319085D01*
X93799762Y-81318939D01*
X93734138Y-81317216D01*
X93686897Y-81312781D01*
X93655162Y-81304677D01*
X93636056Y-81291946D01*
X93626702Y-81273632D01*
X93624224Y-81248778D01*
X93625021Y-81228522D01*
X93630273Y-81206696D01*
X93643067Y-81191344D01*
X93666407Y-81181349D01*
X93703296Y-81175593D01*
X93756738Y-81172959D01*
X93829737Y-81172329D01*
X93997884Y-81172329D01*
X93994498Y-81107418D01*
X93991113Y-81042507D01*
X93743396Y-81039458D01*
X93680805Y-81038579D01*
X93612344Y-81037135D01*
X93561440Y-81035204D01*
X93525187Y-81032554D01*
X93500680Y-81028950D01*
X93485014Y-81024161D01*
X93475285Y-81017953D01*
X93469270Y-81011550D01*
X93456261Y-80979868D01*
X93459822Y-80944182D01*
X93479597Y-80913124D01*
X93482848Y-80910201D01*
X93491828Y-80903850D01*
X93503932Y-80898997D01*
X93521938Y-80895443D01*
X93548626Y-80892986D01*
X93586776Y-80891425D01*
X93639165Y-80890558D01*
X93708573Y-80890186D01*
X93797780Y-80890107D01*
X93852513Y-80890123D01*
G37*
X93852513Y-80890123D02*
X93929610Y-80890315D01*
X93988556Y-80890900D01*
X94032143Y-80892091D01*
X94063162Y-80894104D01*
X94084404Y-80897152D01*
X94098661Y-80901449D01*
X94108724Y-80907212D01*
X94117385Y-80914652D01*
X94119170Y-80916333D01*
X94126414Y-80923872D01*
X94132056Y-80932890D01*
X94136296Y-80946024D01*
X94139335Y-80965912D01*
X94141373Y-80995191D01*
X94142609Y-81036498D01*
X94143244Y-81092471D01*
X94143479Y-81165747D01*
X94143513Y-81258963D01*
X94143476Y-81331753D01*
X94143227Y-81409929D01*
X94142591Y-81470143D01*
X94141394Y-81515022D01*
X94139463Y-81547192D01*
X94136625Y-81569279D01*
X94132706Y-81583910D01*
X94127534Y-81593710D01*
X94120935Y-81601307D01*
X94117601Y-81604484D01*
X94109079Y-81610594D01*
X94097077Y-81615269D01*
X94078866Y-81618699D01*
X94051719Y-81621076D01*
X94012908Y-81622592D01*
X93959703Y-81623438D01*
X93889377Y-81623805D01*
X93799201Y-81623885D01*
X93757093Y-81623873D01*
X93675946Y-81623691D01*
X93613454Y-81623138D01*
X93566888Y-81622022D01*
X93533520Y-81620153D01*
X93510623Y-81617338D01*
X93495467Y-81613386D01*
X93485325Y-81608106D01*
X93477468Y-81601307D01*
X93462742Y-81579707D01*
X93454890Y-81550507D01*
X93460389Y-81526600D01*
X93477468Y-81499707D01*
X93482447Y-81495099D01*
X93492222Y-81488812D01*
X93506338Y-81484186D01*
X93527833Y-81480970D01*
X93559747Y-81478910D01*
X93605121Y-81477752D01*
X93666992Y-81477242D01*
X93748401Y-81477129D01*
X93996757Y-81477129D01*
X93996757Y-81319085D01*
X93835580Y-81319085D01*
X93799762Y-81318939D01*
X93734138Y-81317216D01*
X93686897Y-81312781D01*
X93655162Y-81304677D01*
X93636056Y-81291946D01*
X93626702Y-81273632D01*
X93624224Y-81248778D01*
X93625021Y-81228522D01*
X93630273Y-81206696D01*
X93643067Y-81191344D01*
X93666407Y-81181349D01*
X93703296Y-81175593D01*
X93756738Y-81172959D01*
X93829737Y-81172329D01*
X93997884Y-81172329D01*
X93994498Y-81107418D01*
X93991113Y-81042507D01*
X93743396Y-81039458D01*
X93680805Y-81038579D01*
X93612344Y-81037135D01*
X93561440Y-81035204D01*
X93525187Y-81032554D01*
X93500680Y-81028950D01*
X93485014Y-81024161D01*
X93475285Y-81017953D01*
X93469270Y-81011550D01*
X93456261Y-80979868D01*
X93459822Y-80944182D01*
X93479597Y-80913124D01*
X93482848Y-80910201D01*
X93491828Y-80903850D01*
X93503932Y-80898997D01*
X93521938Y-80895443D01*
X93548626Y-80892986D01*
X93586776Y-80891425D01*
X93639165Y-80890558D01*
X93708573Y-80890186D01*
X93797780Y-80890107D01*
X93852513Y-80890123D01*
G36*
X87448449Y-78816584D02*
G01*
X87435122Y-78919587D01*
X87415013Y-79005389D01*
X87382927Y-79093666D01*
X87308550Y-79239147D01*
X87213481Y-79367143D01*
X87098705Y-79476781D01*
X86965206Y-79567190D01*
X86813967Y-79637496D01*
X86645974Y-79686829D01*
X86577470Y-79697956D01*
X86479580Y-79705689D01*
X86372971Y-79707428D01*
X86266552Y-79703313D01*
X86169232Y-79693485D01*
X86089920Y-79678084D01*
X86050066Y-79665958D01*
X85959550Y-79630474D01*
X85867539Y-79585423D01*
X85783525Y-79535691D01*
X85717002Y-79486164D01*
X85716184Y-79485449D01*
X85679730Y-79454540D01*
X85651683Y-79432531D01*
X85638056Y-79424146D01*
X85636566Y-79426148D01*
X85633195Y-79447774D01*
X85630852Y-79488108D01*
X85629974Y-79540848D01*
X85629974Y-79657551D01*
X85115109Y-79657551D01*
X85101403Y-79657549D01*
X84986452Y-79657348D01*
X84880951Y-79656847D01*
X84787901Y-79656085D01*
X84710304Y-79655097D01*
X84651161Y-79653922D01*
X84613473Y-79652597D01*
X84600244Y-79651159D01*
X84600552Y-79649902D01*
X84609207Y-79631349D01*
X84627350Y-79596493D01*
X84651731Y-79551618D01*
X84703217Y-79458470D01*
X84710766Y-78538829D01*
X85684893Y-78538829D01*
X85685276Y-78611488D01*
X85687131Y-78687833D01*
X85690766Y-78743016D01*
X85696445Y-78780630D01*
X85704433Y-78804269D01*
X85714709Y-78821149D01*
X85753405Y-78867165D01*
X85805252Y-78915069D01*
X85862079Y-78957752D01*
X85915712Y-78988101D01*
X85945469Y-78999237D01*
X86013986Y-79014064D01*
X86103475Y-79021644D01*
X86197825Y-79020496D01*
X86287421Y-79004904D01*
X86362205Y-78972694D01*
X86426908Y-78922415D01*
X86445109Y-78903818D01*
X86492498Y-78840394D01*
X86518139Y-78772032D01*
X86525839Y-78689773D01*
X86523753Y-78646315D01*
X86503122Y-78556853D01*
X86459782Y-78480067D01*
X86392944Y-78415091D01*
X86301818Y-78361063D01*
X86185615Y-78317118D01*
X86138768Y-78305586D01*
X86082055Y-78297690D01*
X86010682Y-78293305D01*
X85918298Y-78291830D01*
X85903291Y-78291831D01*
X85834176Y-78292675D01*
X85774807Y-78294714D01*
X85731087Y-78297681D01*
X85708920Y-78301309D01*
X85706369Y-78302487D01*
X85698122Y-78309883D01*
X85692281Y-78324747D01*
X85688442Y-78351075D01*
X85686200Y-78392866D01*
X85685152Y-78454118D01*
X85684893Y-78538829D01*
X84710766Y-78538829D01*
X84711163Y-78490524D01*
X84712344Y-78349543D01*
X84713996Y-78169741D01*
X84715730Y-78013647D01*
X84717687Y-77879053D01*
X84720006Y-77763753D01*
X84722827Y-77665537D01*
X84726291Y-77582200D01*
X84730537Y-77511533D01*
X84735707Y-77451328D01*
X84741939Y-77399379D01*
X84749374Y-77353478D01*
X84758153Y-77311417D01*
X84768414Y-77270989D01*
X84780300Y-77229985D01*
X84793948Y-77186200D01*
X84847717Y-77048933D01*
X84921352Y-76922070D01*
X85013053Y-76813456D01*
X85123662Y-76722522D01*
X85254017Y-76648701D01*
X85404958Y-76591423D01*
X85577324Y-76550121D01*
X85771956Y-76524226D01*
X85839982Y-76519077D01*
X85954549Y-76515312D01*
X86068103Y-76518702D01*
X86185960Y-76529820D01*
X86313437Y-76549236D01*
X86455850Y-76577522D01*
X86618514Y-76615251D01*
X86656114Y-76624380D01*
X86750536Y-76646844D01*
X86840030Y-76667527D01*
X86919168Y-76685209D01*
X86982523Y-76698668D01*
X87024667Y-76706681D01*
X87121901Y-76722651D01*
X86985203Y-77053966D01*
X86951010Y-77136688D01*
X86917372Y-77217744D01*
X86888510Y-77286949D01*
X86865842Y-77340916D01*
X86850784Y-77376260D01*
X86844754Y-77389594D01*
X86843806Y-77389785D01*
X86826331Y-77383832D01*
X86791970Y-77368576D01*
X86746921Y-77346731D01*
X86653289Y-77304191D01*
X86524445Y-77257678D01*
X86392573Y-77222058D01*
X86262831Y-77198226D01*
X86140376Y-77187075D01*
X86030364Y-77189502D01*
X85937952Y-77206400D01*
X85873456Y-77233212D01*
X85800207Y-77288158D01*
X85743820Y-77362700D01*
X85705908Y-77454543D01*
X85688086Y-77561395D01*
X85681810Y-77659875D01*
X86009432Y-77660772D01*
X86119919Y-77661699D01*
X86242125Y-77664989D01*
X86346522Y-77671199D01*
X86438511Y-77680932D01*
X86523491Y-77694791D01*
X86606864Y-77713381D01*
X86694028Y-77737306D01*
X86824447Y-77782844D01*
X86977847Y-77857836D01*
X87112475Y-77949695D01*
X87227003Y-78057128D01*
X87320103Y-78178843D01*
X87390448Y-78313549D01*
X87436710Y-78459953D01*
X87443955Y-78499384D01*
X87453243Y-78596981D01*
X87454413Y-78689773D01*
X87454615Y-78705882D01*
X87448449Y-78816584D01*
G37*
X87448449Y-78816584D02*
X87435122Y-78919587D01*
X87415013Y-79005389D01*
X87382927Y-79093666D01*
X87308550Y-79239147D01*
X87213481Y-79367143D01*
X87098705Y-79476781D01*
X86965206Y-79567190D01*
X86813967Y-79637496D01*
X86645974Y-79686829D01*
X86577470Y-79697956D01*
X86479580Y-79705689D01*
X86372971Y-79707428D01*
X86266552Y-79703313D01*
X86169232Y-79693485D01*
X86089920Y-79678084D01*
X86050066Y-79665958D01*
X85959550Y-79630474D01*
X85867539Y-79585423D01*
X85783525Y-79535691D01*
X85717002Y-79486164D01*
X85716184Y-79485449D01*
X85679730Y-79454540D01*
X85651683Y-79432531D01*
X85638056Y-79424146D01*
X85636566Y-79426148D01*
X85633195Y-79447774D01*
X85630852Y-79488108D01*
X85629974Y-79540848D01*
X85629974Y-79657551D01*
X85115109Y-79657551D01*
X85101403Y-79657549D01*
X84986452Y-79657348D01*
X84880951Y-79656847D01*
X84787901Y-79656085D01*
X84710304Y-79655097D01*
X84651161Y-79653922D01*
X84613473Y-79652597D01*
X84600244Y-79651159D01*
X84600552Y-79649902D01*
X84609207Y-79631349D01*
X84627350Y-79596493D01*
X84651731Y-79551618D01*
X84703217Y-79458470D01*
X84710766Y-78538829D01*
X85684893Y-78538829D01*
X85685276Y-78611488D01*
X85687131Y-78687833D01*
X85690766Y-78743016D01*
X85696445Y-78780630D01*
X85704433Y-78804269D01*
X85714709Y-78821149D01*
X85753405Y-78867165D01*
X85805252Y-78915069D01*
X85862079Y-78957752D01*
X85915712Y-78988101D01*
X85945469Y-78999237D01*
X86013986Y-79014064D01*
X86103475Y-79021644D01*
X86197825Y-79020496D01*
X86287421Y-79004904D01*
X86362205Y-78972694D01*
X86426908Y-78922415D01*
X86445109Y-78903818D01*
X86492498Y-78840394D01*
X86518139Y-78772032D01*
X86525839Y-78689773D01*
X86523753Y-78646315D01*
X86503122Y-78556853D01*
X86459782Y-78480067D01*
X86392944Y-78415091D01*
X86301818Y-78361063D01*
X86185615Y-78317118D01*
X86138768Y-78305586D01*
X86082055Y-78297690D01*
X86010682Y-78293305D01*
X85918298Y-78291830D01*
X85903291Y-78291831D01*
X85834176Y-78292675D01*
X85774807Y-78294714D01*
X85731087Y-78297681D01*
X85708920Y-78301309D01*
X85706369Y-78302487D01*
X85698122Y-78309883D01*
X85692281Y-78324747D01*
X85688442Y-78351075D01*
X85686200Y-78392866D01*
X85685152Y-78454118D01*
X85684893Y-78538829D01*
X84710766Y-78538829D01*
X84711163Y-78490524D01*
X84712344Y-78349543D01*
X84713996Y-78169741D01*
X84715730Y-78013647D01*
X84717687Y-77879053D01*
X84720006Y-77763753D01*
X84722827Y-77665537D01*
X84726291Y-77582200D01*
X84730537Y-77511533D01*
X84735707Y-77451328D01*
X84741939Y-77399379D01*
X84749374Y-77353478D01*
X84758153Y-77311417D01*
X84768414Y-77270989D01*
X84780300Y-77229985D01*
X84793948Y-77186200D01*
X84847717Y-77048933D01*
X84921352Y-76922070D01*
X85013053Y-76813456D01*
X85123662Y-76722522D01*
X85254017Y-76648701D01*
X85404958Y-76591423D01*
X85577324Y-76550121D01*
X85771956Y-76524226D01*
X85839982Y-76519077D01*
X85954549Y-76515312D01*
X86068103Y-76518702D01*
X86185960Y-76529820D01*
X86313437Y-76549236D01*
X86455850Y-76577522D01*
X86618514Y-76615251D01*
X86656114Y-76624380D01*
X86750536Y-76646844D01*
X86840030Y-76667527D01*
X86919168Y-76685209D01*
X86982523Y-76698668D01*
X87024667Y-76706681D01*
X87121901Y-76722651D01*
X86985203Y-77053966D01*
X86951010Y-77136688D01*
X86917372Y-77217744D01*
X86888510Y-77286949D01*
X86865842Y-77340916D01*
X86850784Y-77376260D01*
X86844754Y-77389594D01*
X86843806Y-77389785D01*
X86826331Y-77383832D01*
X86791970Y-77368576D01*
X86746921Y-77346731D01*
X86653289Y-77304191D01*
X86524445Y-77257678D01*
X86392573Y-77222058D01*
X86262831Y-77198226D01*
X86140376Y-77187075D01*
X86030364Y-77189502D01*
X85937952Y-77206400D01*
X85873456Y-77233212D01*
X85800207Y-77288158D01*
X85743820Y-77362700D01*
X85705908Y-77454543D01*
X85688086Y-77561395D01*
X85681810Y-77659875D01*
X86009432Y-77660772D01*
X86119919Y-77661699D01*
X86242125Y-77664989D01*
X86346522Y-77671199D01*
X86438511Y-77680932D01*
X86523491Y-77694791D01*
X86606864Y-77713381D01*
X86694028Y-77737306D01*
X86824447Y-77782844D01*
X86977847Y-77857836D01*
X87112475Y-77949695D01*
X87227003Y-78057128D01*
X87320103Y-78178843D01*
X87390448Y-78313549D01*
X87436710Y-78459953D01*
X87443955Y-78499384D01*
X87453243Y-78596981D01*
X87454413Y-78689773D01*
X87454615Y-78705882D01*
X87448449Y-78816584D01*
G36*
X91981916Y-80894503D02*
G01*
X92016070Y-80917816D01*
X92043779Y-80945525D01*
X92043779Y-81258577D01*
X92043738Y-81342607D01*
X92043480Y-81416829D01*
X92042809Y-81473581D01*
X92041531Y-81515552D01*
X92039452Y-81545429D01*
X92036378Y-81565901D01*
X92032113Y-81579654D01*
X92026463Y-81589377D01*
X92019234Y-81597757D01*
X91987770Y-81619221D01*
X91952605Y-81620987D01*
X91919601Y-81601307D01*
X91914295Y-81595438D01*
X91908845Y-81586354D01*
X91904679Y-81573013D01*
X91901625Y-81552797D01*
X91899511Y-81523089D01*
X91898165Y-81481272D01*
X91897417Y-81424729D01*
X91897093Y-81350842D01*
X91897024Y-81256996D01*
X91897063Y-81181334D01*
X91897318Y-81103425D01*
X91897962Y-81043415D01*
X91899166Y-80998688D01*
X91901103Y-80966625D01*
X91903943Y-80944611D01*
X91907858Y-80930027D01*
X91913021Y-80920258D01*
X91919601Y-80912685D01*
X91948785Y-80893663D01*
X91981916Y-80894503D01*
G37*
X91981916Y-80894503D02*
X92016070Y-80917816D01*
X92043779Y-80945525D01*
X92043779Y-81258577D01*
X92043738Y-81342607D01*
X92043480Y-81416829D01*
X92042809Y-81473581D01*
X92041531Y-81515552D01*
X92039452Y-81545429D01*
X92036378Y-81565901D01*
X92032113Y-81579654D01*
X92026463Y-81589377D01*
X92019234Y-81597757D01*
X91987770Y-81619221D01*
X91952605Y-81620987D01*
X91919601Y-81601307D01*
X91914295Y-81595438D01*
X91908845Y-81586354D01*
X91904679Y-81573013D01*
X91901625Y-81552797D01*
X91899511Y-81523089D01*
X91898165Y-81481272D01*
X91897417Y-81424729D01*
X91897093Y-81350842D01*
X91897024Y-81256996D01*
X91897063Y-81181334D01*
X91897318Y-81103425D01*
X91897962Y-81043415D01*
X91899166Y-80998688D01*
X91901103Y-80966625D01*
X91903943Y-80944611D01*
X91907858Y-80930027D01*
X91913021Y-80920258D01*
X91919601Y-80912685D01*
X91948785Y-80893663D01*
X91981916Y-80894503D01*
G36*
X91124929Y-80895219D02*
G01*
X91230936Y-80911534D01*
X91324748Y-80939585D01*
X91403544Y-80978492D01*
X91464498Y-81027374D01*
X91490568Y-81060235D01*
X91520076Y-81109434D01*
X91545347Y-81163292D01*
X91562997Y-81214459D01*
X91569637Y-81255584D01*
X91568077Y-81275299D01*
X91555136Y-81326632D01*
X91531973Y-81383158D01*
X91502081Y-81437075D01*
X91468952Y-81480579D01*
X91458756Y-81490927D01*
X91391671Y-81542702D01*
X91311545Y-81582594D01*
X91225335Y-81606996D01*
X91170371Y-81615108D01*
X91076918Y-81621713D01*
X90987137Y-81619626D01*
X90904648Y-81609380D01*
X90833065Y-81591510D01*
X90776007Y-81566548D01*
X90737090Y-81535028D01*
X90735715Y-81533052D01*
X90728627Y-81507826D01*
X90724388Y-81460575D01*
X90722979Y-81391111D01*
X90723839Y-81328878D01*
X90728559Y-81281496D01*
X90740249Y-81249393D01*
X90762018Y-81229840D01*
X90796977Y-81220110D01*
X90848235Y-81217473D01*
X90918902Y-81219201D01*
X90967522Y-81222213D01*
X91017718Y-81230406D01*
X91050212Y-81244459D01*
X91067671Y-81265694D01*
X91072762Y-81295434D01*
X91072656Y-81299976D01*
X91063954Y-81334770D01*
X91039944Y-81358187D01*
X90998679Y-81371387D01*
X90938210Y-81375529D01*
X90869735Y-81375529D01*
X90869735Y-81413881D01*
X90869785Y-81423016D01*
X90872006Y-81440267D01*
X90881273Y-81450561D01*
X90902654Y-81457499D01*
X90941215Y-81464681D01*
X90946689Y-81465615D01*
X91043639Y-81475518D01*
X91133631Y-81472599D01*
X91214539Y-81457869D01*
X91284238Y-81432339D01*
X91340603Y-81397018D01*
X91381508Y-81352919D01*
X91404830Y-81301052D01*
X91408442Y-81242428D01*
X91402924Y-81213534D01*
X91376240Y-81157644D01*
X91330052Y-81111985D01*
X91265070Y-81077148D01*
X91182008Y-81053730D01*
X91157334Y-81049281D01*
X91068005Y-81038782D01*
X90988198Y-81040011D01*
X90910105Y-81052946D01*
X90874962Y-81059736D01*
X90829524Y-81060753D01*
X90798209Y-81048222D01*
X90778056Y-81021435D01*
X90771672Y-80993188D01*
X90781158Y-80961964D01*
X90790487Y-80948539D01*
X90824722Y-80925007D01*
X90877344Y-80907135D01*
X90945860Y-80895639D01*
X91027779Y-80891232D01*
X91124929Y-80895219D01*
G37*
X91124929Y-80895219D02*
X91230936Y-80911534D01*
X91324748Y-80939585D01*
X91403544Y-80978492D01*
X91464498Y-81027374D01*
X91490568Y-81060235D01*
X91520076Y-81109434D01*
X91545347Y-81163292D01*
X91562997Y-81214459D01*
X91569637Y-81255584D01*
X91568077Y-81275299D01*
X91555136Y-81326632D01*
X91531973Y-81383158D01*
X91502081Y-81437075D01*
X91468952Y-81480579D01*
X91458756Y-81490927D01*
X91391671Y-81542702D01*
X91311545Y-81582594D01*
X91225335Y-81606996D01*
X91170371Y-81615108D01*
X91076918Y-81621713D01*
X90987137Y-81619626D01*
X90904648Y-81609380D01*
X90833065Y-81591510D01*
X90776007Y-81566548D01*
X90737090Y-81535028D01*
X90735715Y-81533052D01*
X90728627Y-81507826D01*
X90724388Y-81460575D01*
X90722979Y-81391111D01*
X90723839Y-81328878D01*
X90728559Y-81281496D01*
X90740249Y-81249393D01*
X90762018Y-81229840D01*
X90796977Y-81220110D01*
X90848235Y-81217473D01*
X90918902Y-81219201D01*
X90967522Y-81222213D01*
X91017718Y-81230406D01*
X91050212Y-81244459D01*
X91067671Y-81265694D01*
X91072762Y-81295434D01*
X91072656Y-81299976D01*
X91063954Y-81334770D01*
X91039944Y-81358187D01*
X90998679Y-81371387D01*
X90938210Y-81375529D01*
X90869735Y-81375529D01*
X90869735Y-81413881D01*
X90869785Y-81423016D01*
X90872006Y-81440267D01*
X90881273Y-81450561D01*
X90902654Y-81457499D01*
X90941215Y-81464681D01*
X90946689Y-81465615D01*
X91043639Y-81475518D01*
X91133631Y-81472599D01*
X91214539Y-81457869D01*
X91284238Y-81432339D01*
X91340603Y-81397018D01*
X91381508Y-81352919D01*
X91404830Y-81301052D01*
X91408442Y-81242428D01*
X91402924Y-81213534D01*
X91376240Y-81157644D01*
X91330052Y-81111985D01*
X91265070Y-81077148D01*
X91182008Y-81053730D01*
X91157334Y-81049281D01*
X91068005Y-81038782D01*
X90988198Y-81040011D01*
X90910105Y-81052946D01*
X90874962Y-81059736D01*
X90829524Y-81060753D01*
X90798209Y-81048222D01*
X90778056Y-81021435D01*
X90771672Y-80993188D01*
X90781158Y-80961964D01*
X90790487Y-80948539D01*
X90824722Y-80925007D01*
X90877344Y-80907135D01*
X90945860Y-80895639D01*
X91027779Y-80891232D01*
X91124929Y-80895219D01*
G36*
X84348329Y-78400905D02*
G01*
X84339999Y-78512957D01*
X84325607Y-78616100D01*
X84304508Y-78716429D01*
X84276057Y-78820038D01*
X84232915Y-78943881D01*
X84153677Y-79111064D01*
X84056480Y-79260809D01*
X83942812Y-79391700D01*
X83814159Y-79502322D01*
X83672008Y-79591260D01*
X83517846Y-79657098D01*
X83353161Y-79698422D01*
X83351179Y-79698754D01*
X83230824Y-79710334D01*
X83098586Y-79708789D01*
X82963891Y-79695070D01*
X82836171Y-79670131D01*
X82724853Y-79634925D01*
X82677338Y-79613501D01*
X82615456Y-79580938D01*
X82551867Y-79543694D01*
X82493208Y-79505869D01*
X82446113Y-79471562D01*
X82417217Y-79444872D01*
X82410584Y-79437544D01*
X82402676Y-79434983D01*
X82397390Y-79447699D01*
X82393495Y-79479747D01*
X82389758Y-79535179D01*
X82382893Y-79650686D01*
X81857056Y-79654282D01*
X81331219Y-79657879D01*
X81367603Y-79595794D01*
X81369772Y-79592124D01*
X81380352Y-79574892D01*
X81389950Y-79559541D01*
X81398618Y-79544737D01*
X81406407Y-79529147D01*
X81413369Y-79511437D01*
X81419556Y-79490272D01*
X81425018Y-79464321D01*
X81429809Y-79432248D01*
X81433979Y-79392720D01*
X81437581Y-79344405D01*
X81440665Y-79285967D01*
X81443284Y-79216074D01*
X81445489Y-79133392D01*
X81447331Y-79036587D01*
X81448863Y-78924325D01*
X81450099Y-78799053D01*
X82451541Y-78799053D01*
X82520190Y-78844081D01*
X82546590Y-78860301D01*
X82607039Y-78892705D01*
X82664352Y-78918509D01*
X82689452Y-78927246D01*
X82769318Y-78944689D01*
X82870298Y-78953596D01*
X82921646Y-78955449D01*
X82969310Y-78955027D01*
X83004791Y-78950267D01*
X83036616Y-78939862D01*
X83073310Y-78922507D01*
X83143829Y-78876017D01*
X83204922Y-78810254D01*
X83253824Y-78725506D01*
X83291002Y-78620445D01*
X83316919Y-78493743D01*
X83332043Y-78344070D01*
X83336837Y-78170100D01*
X83336604Y-78130548D01*
X83329712Y-77947292D01*
X83312975Y-77787833D01*
X83285988Y-77650491D01*
X83248342Y-77533582D01*
X83199631Y-77435425D01*
X83139448Y-77354336D01*
X83114480Y-77329588D01*
X83037100Y-77278029D01*
X82946263Y-77246655D01*
X82845906Y-77235643D01*
X82739962Y-77245172D01*
X82632366Y-77275420D01*
X82527055Y-77326566D01*
X82451541Y-77371830D01*
X82451541Y-78799053D01*
X81450099Y-78799053D01*
X81450136Y-78795273D01*
X81451202Y-78648098D01*
X81452112Y-78481466D01*
X81452918Y-78294042D01*
X81453672Y-78084494D01*
X81454425Y-77851488D01*
X81455229Y-77593690D01*
X81456136Y-77309767D01*
X81463001Y-75215983D01*
X82008758Y-75212393D01*
X82048446Y-75212152D01*
X82165217Y-75211673D01*
X82272022Y-75211575D01*
X82365945Y-75211840D01*
X82444071Y-75212447D01*
X82503485Y-75213376D01*
X82541271Y-75214607D01*
X82554514Y-75216120D01*
X82552820Y-75220917D01*
X82540181Y-75243658D01*
X82519247Y-75276729D01*
X82517159Y-75279891D01*
X82500929Y-75305425D01*
X82487320Y-75330269D01*
X82476103Y-75356982D01*
X82467046Y-75388122D01*
X82459918Y-75426250D01*
X82454490Y-75473923D01*
X82450530Y-75533701D01*
X82447807Y-75608143D01*
X82446092Y-75699808D01*
X82445152Y-75811256D01*
X82444757Y-75945044D01*
X82444676Y-76103733D01*
X82444820Y-76227629D01*
X82445261Y-76349267D01*
X82445966Y-76459559D01*
X82446904Y-76555821D01*
X82448044Y-76635367D01*
X82449352Y-76695511D01*
X82450797Y-76733566D01*
X82452346Y-76746848D01*
X82457345Y-76744787D01*
X82479318Y-76730270D01*
X82510698Y-76706429D01*
X82556191Y-76674367D01*
X82641665Y-76627127D01*
X82739359Y-76584988D01*
X82840153Y-76552218D01*
X82924839Y-76535508D01*
X83030310Y-76524857D01*
X83144458Y-76521166D01*
X83258476Y-76524442D01*
X83363554Y-76534688D01*
X83450883Y-76551908D01*
X83539804Y-76580916D01*
X83688145Y-76651237D01*
X83825497Y-76744725D01*
X83949328Y-76859225D01*
X84057102Y-76992587D01*
X84146286Y-77142656D01*
X84168427Y-77188674D01*
X84230474Y-77343896D01*
X84278983Y-77512361D01*
X84314567Y-77697040D01*
X84337840Y-77900901D01*
X84349414Y-78126915D01*
X84349952Y-78170100D01*
X84351242Y-78273849D01*
X84348329Y-78400905D01*
G37*
X84348329Y-78400905D02*
X84339999Y-78512957D01*
X84325607Y-78616100D01*
X84304508Y-78716429D01*
X84276057Y-78820038D01*
X84232915Y-78943881D01*
X84153677Y-79111064D01*
X84056480Y-79260809D01*
X83942812Y-79391700D01*
X83814159Y-79502322D01*
X83672008Y-79591260D01*
X83517846Y-79657098D01*
X83353161Y-79698422D01*
X83351179Y-79698754D01*
X83230824Y-79710334D01*
X83098586Y-79708789D01*
X82963891Y-79695070D01*
X82836171Y-79670131D01*
X82724853Y-79634925D01*
X82677338Y-79613501D01*
X82615456Y-79580938D01*
X82551867Y-79543694D01*
X82493208Y-79505869D01*
X82446113Y-79471562D01*
X82417217Y-79444872D01*
X82410584Y-79437544D01*
X82402676Y-79434983D01*
X82397390Y-79447699D01*
X82393495Y-79479747D01*
X82389758Y-79535179D01*
X82382893Y-79650686D01*
X81857056Y-79654282D01*
X81331219Y-79657879D01*
X81367603Y-79595794D01*
X81369772Y-79592124D01*
X81380352Y-79574892D01*
X81389950Y-79559541D01*
X81398618Y-79544737D01*
X81406407Y-79529147D01*
X81413369Y-79511437D01*
X81419556Y-79490272D01*
X81425018Y-79464321D01*
X81429809Y-79432248D01*
X81433979Y-79392720D01*
X81437581Y-79344405D01*
X81440665Y-79285967D01*
X81443284Y-79216074D01*
X81445489Y-79133392D01*
X81447331Y-79036587D01*
X81448863Y-78924325D01*
X81450099Y-78799053D01*
X82451541Y-78799053D01*
X82520190Y-78844081D01*
X82546590Y-78860301D01*
X82607039Y-78892705D01*
X82664352Y-78918509D01*
X82689452Y-78927246D01*
X82769318Y-78944689D01*
X82870298Y-78953596D01*
X82921646Y-78955449D01*
X82969310Y-78955027D01*
X83004791Y-78950267D01*
X83036616Y-78939862D01*
X83073310Y-78922507D01*
X83143829Y-78876017D01*
X83204922Y-78810254D01*
X83253824Y-78725506D01*
X83291002Y-78620445D01*
X83316919Y-78493743D01*
X83332043Y-78344070D01*
X83336837Y-78170100D01*
X83336604Y-78130548D01*
X83329712Y-77947292D01*
X83312975Y-77787833D01*
X83285988Y-77650491D01*
X83248342Y-77533582D01*
X83199631Y-77435425D01*
X83139448Y-77354336D01*
X83114480Y-77329588D01*
X83037100Y-77278029D01*
X82946263Y-77246655D01*
X82845906Y-77235643D01*
X82739962Y-77245172D01*
X82632366Y-77275420D01*
X82527055Y-77326566D01*
X82451541Y-77371830D01*
X82451541Y-78799053D01*
X81450099Y-78799053D01*
X81450136Y-78795273D01*
X81451202Y-78648098D01*
X81452112Y-78481466D01*
X81452918Y-78294042D01*
X81453672Y-78084494D01*
X81454425Y-77851488D01*
X81455229Y-77593690D01*
X81456136Y-77309767D01*
X81463001Y-75215983D01*
X82008758Y-75212393D01*
X82048446Y-75212152D01*
X82165217Y-75211673D01*
X82272022Y-75211575D01*
X82365945Y-75211840D01*
X82444071Y-75212447D01*
X82503485Y-75213376D01*
X82541271Y-75214607D01*
X82554514Y-75216120D01*
X82552820Y-75220917D01*
X82540181Y-75243658D01*
X82519247Y-75276729D01*
X82517159Y-75279891D01*
X82500929Y-75305425D01*
X82487320Y-75330269D01*
X82476103Y-75356982D01*
X82467046Y-75388122D01*
X82459918Y-75426250D01*
X82454490Y-75473923D01*
X82450530Y-75533701D01*
X82447807Y-75608143D01*
X82446092Y-75699808D01*
X82445152Y-75811256D01*
X82444757Y-75945044D01*
X82444676Y-76103733D01*
X82444820Y-76227629D01*
X82445261Y-76349267D01*
X82445966Y-76459559D01*
X82446904Y-76555821D01*
X82448044Y-76635367D01*
X82449352Y-76695511D01*
X82450797Y-76733566D01*
X82452346Y-76746848D01*
X82457345Y-76744787D01*
X82479318Y-76730270D01*
X82510698Y-76706429D01*
X82556191Y-76674367D01*
X82641665Y-76627127D01*
X82739359Y-76584988D01*
X82840153Y-76552218D01*
X82924839Y-76535508D01*
X83030310Y-76524857D01*
X83144458Y-76521166D01*
X83258476Y-76524442D01*
X83363554Y-76534688D01*
X83450883Y-76551908D01*
X83539804Y-76580916D01*
X83688145Y-76651237D01*
X83825497Y-76744725D01*
X83949328Y-76859225D01*
X84057102Y-76992587D01*
X84146286Y-77142656D01*
X84168427Y-77188674D01*
X84230474Y-77343896D01*
X84278983Y-77512361D01*
X84314567Y-77697040D01*
X84337840Y-77900901D01*
X84349414Y-78126915D01*
X84349952Y-78170100D01*
X84351242Y-78273849D01*
X84348329Y-78400905D01*
G36*
X92836632Y-80890976D02*
G01*
X92902879Y-80896406D01*
X92958179Y-80906004D01*
X93009062Y-80920865D01*
X93080374Y-80953998D01*
X93131531Y-80996680D01*
X93162354Y-81048745D01*
X93172668Y-81110023D01*
X93171731Y-81141272D01*
X93165939Y-81166069D01*
X93151132Y-81187739D01*
X93123159Y-81215089D01*
X93115181Y-81222418D01*
X93091471Y-81243321D01*
X93069077Y-81260291D01*
X93045044Y-81274245D01*
X93016416Y-81286096D01*
X92980239Y-81296760D01*
X92933559Y-81307151D01*
X92873420Y-81318186D01*
X92796869Y-81330778D01*
X92700950Y-81345844D01*
X92682587Y-81348878D01*
X92620257Y-81362498D01*
X92575039Y-81378232D01*
X92548755Y-81395303D01*
X92543226Y-81412937D01*
X92545847Y-81417208D01*
X92563779Y-81432273D01*
X92591905Y-81448907D01*
X92604705Y-81454897D01*
X92626003Y-81462090D01*
X92652389Y-81466867D01*
X92688233Y-81469686D01*
X92737907Y-81471004D01*
X92805779Y-81471277D01*
X92823564Y-81471204D01*
X92891185Y-81470093D01*
X92956124Y-81467868D01*
X93011749Y-81464802D01*
X93051430Y-81461167D01*
X93086941Y-81457099D01*
X93116194Y-81456316D01*
X93135094Y-81460916D01*
X93150208Y-81471591D01*
X93153864Y-81475184D01*
X93170206Y-81506958D01*
X93168886Y-81542612D01*
X93149929Y-81573230D01*
X93129559Y-81584836D01*
X93093575Y-81597531D01*
X93051151Y-81607581D01*
X93047701Y-81608180D01*
X93005031Y-81613396D01*
X92947645Y-81617770D01*
X92882628Y-81620858D01*
X92817068Y-81622217D01*
X92800836Y-81622258D01*
X92702523Y-81619781D01*
X92622471Y-81611775D01*
X92557292Y-81597243D01*
X92503596Y-81575189D01*
X92457995Y-81544616D01*
X92417102Y-81504526D01*
X92396981Y-81478299D01*
X92385355Y-81448752D01*
X92382446Y-81409035D01*
X92382587Y-81397066D01*
X92386460Y-81364385D01*
X92398844Y-81337859D01*
X92424009Y-81307011D01*
X92445221Y-81284871D01*
X92471617Y-81262325D01*
X92501334Y-81243957D01*
X92537564Y-81228701D01*
X92583496Y-81215489D01*
X92642323Y-81203254D01*
X92717235Y-81190929D01*
X92811424Y-81177446D01*
X92856736Y-81170436D01*
X92924690Y-81155877D01*
X92973826Y-81139377D01*
X93003393Y-81121479D01*
X93012643Y-81102725D01*
X93000827Y-81083655D01*
X92967195Y-81064811D01*
X92964149Y-81063597D01*
X92917790Y-81051519D01*
X92855140Y-81043319D01*
X92781706Y-81039159D01*
X92702996Y-81039201D01*
X92624518Y-81043609D01*
X92551779Y-81052545D01*
X92547852Y-81053194D01*
X92499036Y-81060901D01*
X92466784Y-81064513D01*
X92445787Y-81063916D01*
X92430733Y-81058994D01*
X92416313Y-81049636D01*
X92415143Y-81048765D01*
X92390626Y-81018391D01*
X92385833Y-80982890D01*
X92401639Y-80948309D01*
X92406185Y-80943853D01*
X92435799Y-80928713D01*
X92482781Y-80915590D01*
X92543085Y-80904790D01*
X92612667Y-80896621D01*
X92687482Y-80891391D01*
X92763485Y-80889407D01*
X92836632Y-80890976D01*
G37*
X92836632Y-80890976D02*
X92902879Y-80896406D01*
X92958179Y-80906004D01*
X93009062Y-80920865D01*
X93080374Y-80953998D01*
X93131531Y-80996680D01*
X93162354Y-81048745D01*
X93172668Y-81110023D01*
X93171731Y-81141272D01*
X93165939Y-81166069D01*
X93151132Y-81187739D01*
X93123159Y-81215089D01*
X93115181Y-81222418D01*
X93091471Y-81243321D01*
X93069077Y-81260291D01*
X93045044Y-81274245D01*
X93016416Y-81286096D01*
X92980239Y-81296760D01*
X92933559Y-81307151D01*
X92873420Y-81318186D01*
X92796869Y-81330778D01*
X92700950Y-81345844D01*
X92682587Y-81348878D01*
X92620257Y-81362498D01*
X92575039Y-81378232D01*
X92548755Y-81395303D01*
X92543226Y-81412937D01*
X92545847Y-81417208D01*
X92563779Y-81432273D01*
X92591905Y-81448907D01*
X92604705Y-81454897D01*
X92626003Y-81462090D01*
X92652389Y-81466867D01*
X92688233Y-81469686D01*
X92737907Y-81471004D01*
X92805779Y-81471277D01*
X92823564Y-81471204D01*
X92891185Y-81470093D01*
X92956124Y-81467868D01*
X93011749Y-81464802D01*
X93051430Y-81461167D01*
X93086941Y-81457099D01*
X93116194Y-81456316D01*
X93135094Y-81460916D01*
X93150208Y-81471591D01*
X93153864Y-81475184D01*
X93170206Y-81506958D01*
X93168886Y-81542612D01*
X93149929Y-81573230D01*
X93129559Y-81584836D01*
X93093575Y-81597531D01*
X93051151Y-81607581D01*
X93047701Y-81608180D01*
X93005031Y-81613396D01*
X92947645Y-81617770D01*
X92882628Y-81620858D01*
X92817068Y-81622217D01*
X92800836Y-81622258D01*
X92702523Y-81619781D01*
X92622471Y-81611775D01*
X92557292Y-81597243D01*
X92503596Y-81575189D01*
X92457995Y-81544616D01*
X92417102Y-81504526D01*
X92396981Y-81478299D01*
X92385355Y-81448752D01*
X92382446Y-81409035D01*
X92382587Y-81397066D01*
X92386460Y-81364385D01*
X92398844Y-81337859D01*
X92424009Y-81307011D01*
X92445221Y-81284871D01*
X92471617Y-81262325D01*
X92501334Y-81243957D01*
X92537564Y-81228701D01*
X92583496Y-81215489D01*
X92642323Y-81203254D01*
X92717235Y-81190929D01*
X92811424Y-81177446D01*
X92856736Y-81170436D01*
X92924690Y-81155877D01*
X92973826Y-81139377D01*
X93003393Y-81121479D01*
X93012643Y-81102725D01*
X93000827Y-81083655D01*
X92967195Y-81064811D01*
X92964149Y-81063597D01*
X92917790Y-81051519D01*
X92855140Y-81043319D01*
X92781706Y-81039159D01*
X92702996Y-81039201D01*
X92624518Y-81043609D01*
X92551779Y-81052545D01*
X92547852Y-81053194D01*
X92499036Y-81060901D01*
X92466784Y-81064513D01*
X92445787Y-81063916D01*
X92430733Y-81058994D01*
X92416313Y-81049636D01*
X92415143Y-81048765D01*
X92390626Y-81018391D01*
X92385833Y-80982890D01*
X92401639Y-80948309D01*
X92406185Y-80943853D01*
X92435799Y-80928713D01*
X92482781Y-80915590D01*
X92543085Y-80904790D01*
X92612667Y-80896621D01*
X92687482Y-80891391D01*
X92763485Y-80889407D01*
X92836632Y-80890976D01*
G36*
X91948499Y-74281429D02*
G01*
X92054023Y-74307284D01*
X92154047Y-74353689D01*
X92245421Y-74420651D01*
X92324992Y-74508176D01*
X92389607Y-74616274D01*
X92406930Y-74654354D01*
X92420964Y-74692951D01*
X92428839Y-74731537D01*
X92432290Y-74779263D01*
X92433055Y-74845281D01*
X92432592Y-74900229D01*
X92429806Y-74950728D01*
X92422974Y-74990128D01*
X92410391Y-75027476D01*
X92390351Y-75071821D01*
X92384553Y-75083639D01*
X92316032Y-75191849D01*
X92229852Y-75280881D01*
X92128459Y-75348645D01*
X92014298Y-75393054D01*
X91955721Y-75405446D01*
X91836886Y-75411245D01*
X91721787Y-75392482D01*
X91613799Y-75351080D01*
X91516296Y-75288963D01*
X91432655Y-75208055D01*
X91366250Y-75110280D01*
X91320456Y-74997562D01*
X91303701Y-74905319D01*
X91302192Y-74803525D01*
X91315819Y-74704508D01*
X91343932Y-74618740D01*
X91376417Y-74557421D01*
X91448734Y-74460136D01*
X91534465Y-74383355D01*
X91630460Y-74327086D01*
X91733566Y-74291338D01*
X91840629Y-74276116D01*
X91948499Y-74281429D01*
G37*
X91948499Y-74281429D02*
X92054023Y-74307284D01*
X92154047Y-74353689D01*
X92245421Y-74420651D01*
X92324992Y-74508176D01*
X92389607Y-74616274D01*
X92406930Y-74654354D01*
X92420964Y-74692951D01*
X92428839Y-74731537D01*
X92432290Y-74779263D01*
X92433055Y-74845281D01*
X92432592Y-74900229D01*
X92429806Y-74950728D01*
X92422974Y-74990128D01*
X92410391Y-75027476D01*
X92390351Y-75071821D01*
X92384553Y-75083639D01*
X92316032Y-75191849D01*
X92229852Y-75280881D01*
X92128459Y-75348645D01*
X92014298Y-75393054D01*
X91955721Y-75405446D01*
X91836886Y-75411245D01*
X91721787Y-75392482D01*
X91613799Y-75351080D01*
X91516296Y-75288963D01*
X91432655Y-75208055D01*
X91366250Y-75110280D01*
X91320456Y-74997562D01*
X91303701Y-74905319D01*
X91302192Y-74803525D01*
X91315819Y-74704508D01*
X91343932Y-74618740D01*
X91376417Y-74557421D01*
X91448734Y-74460136D01*
X91534465Y-74383355D01*
X91630460Y-74327086D01*
X91733566Y-74291338D01*
X91840629Y-74276116D01*
X91948499Y-74281429D01*
G36*
X88836334Y-75412926D02*
G01*
X89020835Y-75429863D01*
X89192236Y-75464022D01*
X89356914Y-75516839D01*
X89521243Y-75589753D01*
X89683911Y-75682849D01*
X89858486Y-75809762D01*
X90020375Y-75956498D01*
X90166015Y-76119424D01*
X90291839Y-76294907D01*
X90394284Y-76479316D01*
X90403583Y-76499044D01*
X90481460Y-76689461D01*
X90540635Y-76887325D01*
X90581874Y-77096418D01*
X90605939Y-77320518D01*
X90613598Y-77563407D01*
X90604286Y-77814491D01*
X90574731Y-78061760D01*
X90524474Y-78293231D01*
X90453064Y-78510547D01*
X90360053Y-78715350D01*
X90244991Y-78909281D01*
X90136909Y-79057442D01*
X89987671Y-79224148D01*
X89825008Y-79366937D01*
X89648992Y-79485762D01*
X89459694Y-79580577D01*
X89257184Y-79651335D01*
X89041535Y-79697990D01*
X89039074Y-79698353D01*
X88997545Y-79701997D01*
X88934875Y-79704700D01*
X88856860Y-79706335D01*
X88769295Y-79706778D01*
X88677974Y-79705900D01*
X88613971Y-79704615D01*
X88519010Y-79701638D01*
X88442915Y-79697376D01*
X88380199Y-79691374D01*
X88325372Y-79683177D01*
X88272947Y-79672330D01*
X88213964Y-79658313D01*
X88152427Y-79642351D01*
X88096773Y-79625606D01*
X88041950Y-79606116D01*
X87982909Y-79581921D01*
X87914598Y-79551058D01*
X87831965Y-79511567D01*
X87729960Y-79461487D01*
X87447839Y-79322063D01*
X87673800Y-78950915D01*
X87703383Y-78902338D01*
X87756530Y-78815137D01*
X87804101Y-78737179D01*
X87844355Y-78671306D01*
X87875555Y-78620364D01*
X87895963Y-78587195D01*
X87903839Y-78574643D01*
X87906029Y-78575018D01*
X87923675Y-78587302D01*
X87954676Y-78612795D01*
X87994134Y-78647542D01*
X88064407Y-78707577D01*
X88189858Y-78796354D01*
X88311576Y-78858242D01*
X88399532Y-78889148D01*
X88548304Y-78920733D01*
X88694476Y-78926332D01*
X88835930Y-78906325D01*
X88970545Y-78861094D01*
X89096201Y-78791021D01*
X89210780Y-78696487D01*
X89274536Y-78626859D01*
X89364354Y-78498072D01*
X89438054Y-78348621D01*
X89495988Y-78177740D01*
X89538508Y-77984665D01*
X89540438Y-77972679D01*
X89549350Y-77894991D01*
X89555984Y-77798465D01*
X89560287Y-77689697D01*
X89562206Y-77575282D01*
X89561685Y-77461816D01*
X89558672Y-77355894D01*
X89553113Y-77264111D01*
X89544954Y-77193065D01*
X89513681Y-77032128D01*
X89461061Y-76844134D01*
X89394882Y-76679548D01*
X89315234Y-76538497D01*
X89222204Y-76421108D01*
X89115881Y-76327511D01*
X88996354Y-76257830D01*
X88863711Y-76212195D01*
X88834282Y-76206531D01*
X88760531Y-76199136D01*
X88674343Y-76196722D01*
X88585371Y-76199156D01*
X88503273Y-76206308D01*
X88437704Y-76218043D01*
X88328473Y-76255409D01*
X88201714Y-76323626D01*
X88088845Y-76413398D01*
X88068924Y-76432309D01*
X88032827Y-76465766D01*
X88007316Y-76488286D01*
X87996951Y-76495776D01*
X87994400Y-76492194D01*
X87978693Y-76469571D01*
X87950319Y-76428495D01*
X87911151Y-76371684D01*
X87863065Y-76301860D01*
X87807935Y-76221741D01*
X87747636Y-76134049D01*
X87501001Y-75775250D01*
X87556098Y-75758743D01*
X87561847Y-75756872D01*
X87599272Y-75742014D01*
X87653231Y-75718056D01*
X87717389Y-75687879D01*
X87785416Y-75654365D01*
X87815059Y-75639548D01*
X87979663Y-75563049D01*
X88131377Y-75503893D01*
X88276035Y-75460566D01*
X88419473Y-75431555D01*
X88567525Y-75415347D01*
X88726028Y-75410428D01*
X88836334Y-75412926D01*
G37*
X88836334Y-75412926D02*
X89020835Y-75429863D01*
X89192236Y-75464022D01*
X89356914Y-75516839D01*
X89521243Y-75589753D01*
X89683911Y-75682849D01*
X89858486Y-75809762D01*
X90020375Y-75956498D01*
X90166015Y-76119424D01*
X90291839Y-76294907D01*
X90394284Y-76479316D01*
X90403583Y-76499044D01*
X90481460Y-76689461D01*
X90540635Y-76887325D01*
X90581874Y-77096418D01*
X90605939Y-77320518D01*
X90613598Y-77563407D01*
X90604286Y-77814491D01*
X90574731Y-78061760D01*
X90524474Y-78293231D01*
X90453064Y-78510547D01*
X90360053Y-78715350D01*
X90244991Y-78909281D01*
X90136909Y-79057442D01*
X89987671Y-79224148D01*
X89825008Y-79366937D01*
X89648992Y-79485762D01*
X89459694Y-79580577D01*
X89257184Y-79651335D01*
X89041535Y-79697990D01*
X89039074Y-79698353D01*
X88997545Y-79701997D01*
X88934875Y-79704700D01*
X88856860Y-79706335D01*
X88769295Y-79706778D01*
X88677974Y-79705900D01*
X88613971Y-79704615D01*
X88519010Y-79701638D01*
X88442915Y-79697376D01*
X88380199Y-79691374D01*
X88325372Y-79683177D01*
X88272947Y-79672330D01*
X88213964Y-79658313D01*
X88152427Y-79642351D01*
X88096773Y-79625606D01*
X88041950Y-79606116D01*
X87982909Y-79581921D01*
X87914598Y-79551058D01*
X87831965Y-79511567D01*
X87729960Y-79461487D01*
X87447839Y-79322063D01*
X87673800Y-78950915D01*
X87703383Y-78902338D01*
X87756530Y-78815137D01*
X87804101Y-78737179D01*
X87844355Y-78671306D01*
X87875555Y-78620364D01*
X87895963Y-78587195D01*
X87903839Y-78574643D01*
X87906029Y-78575018D01*
X87923675Y-78587302D01*
X87954676Y-78612795D01*
X87994134Y-78647542D01*
X88064407Y-78707577D01*
X88189858Y-78796354D01*
X88311576Y-78858242D01*
X88399532Y-78889148D01*
X88548304Y-78920733D01*
X88694476Y-78926332D01*
X88835930Y-78906325D01*
X88970545Y-78861094D01*
X89096201Y-78791021D01*
X89210780Y-78696487D01*
X89274536Y-78626859D01*
X89364354Y-78498072D01*
X89438054Y-78348621D01*
X89495988Y-78177740D01*
X89538508Y-77984665D01*
X89540438Y-77972679D01*
X89549350Y-77894991D01*
X89555984Y-77798465D01*
X89560287Y-77689697D01*
X89562206Y-77575282D01*
X89561685Y-77461816D01*
X89558672Y-77355894D01*
X89553113Y-77264111D01*
X89544954Y-77193065D01*
X89513681Y-77032128D01*
X89461061Y-76844134D01*
X89394882Y-76679548D01*
X89315234Y-76538497D01*
X89222204Y-76421108D01*
X89115881Y-76327511D01*
X88996354Y-76257830D01*
X88863711Y-76212195D01*
X88834282Y-76206531D01*
X88760531Y-76199136D01*
X88674343Y-76196722D01*
X88585371Y-76199156D01*
X88503273Y-76206308D01*
X88437704Y-76218043D01*
X88328473Y-76255409D01*
X88201714Y-76323626D01*
X88088845Y-76413398D01*
X88068924Y-76432309D01*
X88032827Y-76465766D01*
X88007316Y-76488286D01*
X87996951Y-76495776D01*
X87994400Y-76492194D01*
X87978693Y-76469571D01*
X87950319Y-76428495D01*
X87911151Y-76371684D01*
X87863065Y-76301860D01*
X87807935Y-76221741D01*
X87747636Y-76134049D01*
X87501001Y-75775250D01*
X87556098Y-75758743D01*
X87561847Y-75756872D01*
X87599272Y-75742014D01*
X87653231Y-75718056D01*
X87717389Y-75687879D01*
X87785416Y-75654365D01*
X87815059Y-75639548D01*
X87979663Y-75563049D01*
X88131377Y-75503893D01*
X88276035Y-75460566D01*
X88419473Y-75431555D01*
X88567525Y-75415347D01*
X88726028Y-75410428D01*
X88836334Y-75412926D01*
G36*
X84151546Y-80890108D02*
G01*
X84245669Y-80890198D01*
X84320184Y-80890538D01*
X84377590Y-80891279D01*
X84420390Y-80892575D01*
X84451083Y-80894577D01*
X84472170Y-80897436D01*
X84486152Y-80901306D01*
X84495529Y-80906338D01*
X84502801Y-80912685D01*
X84521607Y-80945402D01*
X84523054Y-80982979D01*
X84506696Y-81016218D01*
X84505336Y-81017671D01*
X84494133Y-81026032D01*
X84477031Y-81031587D01*
X84449861Y-81034880D01*
X84408457Y-81036458D01*
X84348652Y-81036862D01*
X84209290Y-81036862D01*
X84209290Y-81300629D01*
X84209215Y-81376457D01*
X84208807Y-81443123D01*
X84207825Y-81492907D01*
X84206029Y-81528824D01*
X84203178Y-81553890D01*
X84199032Y-81571121D01*
X84193350Y-81583532D01*
X84185893Y-81594140D01*
X84183603Y-81596946D01*
X84152425Y-81619588D01*
X84118045Y-81621152D01*
X84085113Y-81601307D01*
X84078134Y-81593231D01*
X84072662Y-81582633D01*
X84068642Y-81566789D01*
X84065851Y-81542813D01*
X84064067Y-81507814D01*
X84063068Y-81458904D01*
X84062631Y-81393194D01*
X84062535Y-81307796D01*
X84062535Y-81036862D01*
X83916599Y-81036862D01*
X83905499Y-81036861D01*
X83848981Y-81036636D01*
X83810137Y-81035497D01*
X83784744Y-81032697D01*
X83768583Y-81027490D01*
X83757431Y-81019129D01*
X83747068Y-81006866D01*
X83731220Y-80976178D01*
X83734322Y-80942398D01*
X83759966Y-80909862D01*
X83764908Y-80906145D01*
X83775117Y-80901309D01*
X83790543Y-80897546D01*
X83813665Y-80894723D01*
X83846962Y-80892710D01*
X83892916Y-80891373D01*
X83954007Y-80890582D01*
X84032714Y-80890203D01*
X84131519Y-80890107D01*
X84151546Y-80890108D01*
G37*
X84151546Y-80890108D02*
X84245669Y-80890198D01*
X84320184Y-80890538D01*
X84377590Y-80891279D01*
X84420390Y-80892575D01*
X84451083Y-80894577D01*
X84472170Y-80897436D01*
X84486152Y-80901306D01*
X84495529Y-80906338D01*
X84502801Y-80912685D01*
X84521607Y-80945402D01*
X84523054Y-80982979D01*
X84506696Y-81016218D01*
X84505336Y-81017671D01*
X84494133Y-81026032D01*
X84477031Y-81031587D01*
X84449861Y-81034880D01*
X84408457Y-81036458D01*
X84348652Y-81036862D01*
X84209290Y-81036862D01*
X84209290Y-81300629D01*
X84209215Y-81376457D01*
X84208807Y-81443123D01*
X84207825Y-81492907D01*
X84206029Y-81528824D01*
X84203178Y-81553890D01*
X84199032Y-81571121D01*
X84193350Y-81583532D01*
X84185893Y-81594140D01*
X84183603Y-81596946D01*
X84152425Y-81619588D01*
X84118045Y-81621152D01*
X84085113Y-81601307D01*
X84078134Y-81593231D01*
X84072662Y-81582633D01*
X84068642Y-81566789D01*
X84065851Y-81542813D01*
X84064067Y-81507814D01*
X84063068Y-81458904D01*
X84062631Y-81393194D01*
X84062535Y-81307796D01*
X84062535Y-81036862D01*
X83916599Y-81036862D01*
X83905499Y-81036861D01*
X83848981Y-81036636D01*
X83810137Y-81035497D01*
X83784744Y-81032697D01*
X83768583Y-81027490D01*
X83757431Y-81019129D01*
X83747068Y-81006866D01*
X83731220Y-80976178D01*
X83734322Y-80942398D01*
X83759966Y-80909862D01*
X83764908Y-80906145D01*
X83775117Y-80901309D01*
X83790543Y-80897546D01*
X83813665Y-80894723D01*
X83846962Y-80892710D01*
X83892916Y-80891373D01*
X83954007Y-80890582D01*
X84032714Y-80890203D01*
X84131519Y-80890107D01*
X84151546Y-80890108D01*
G36*
X95272649Y-81156081D02*
G01*
X95272401Y-81256996D01*
X95272362Y-81332657D01*
X95272107Y-81410566D01*
X95271463Y-81470576D01*
X95270259Y-81515304D01*
X95268322Y-81547366D01*
X95265482Y-81569380D01*
X95261567Y-81583964D01*
X95256405Y-81593734D01*
X95249824Y-81601307D01*
X95242856Y-81607541D01*
X95229858Y-81614841D01*
X95210710Y-81619594D01*
X95181307Y-81622332D01*
X95137541Y-81623585D01*
X95075307Y-81623885D01*
X95026361Y-81623509D01*
X94919501Y-81619081D01*
X94830273Y-81608993D01*
X94755475Y-81592405D01*
X94691904Y-81568475D01*
X94636358Y-81536361D01*
X94585633Y-81495222D01*
X94579645Y-81489370D01*
X94542778Y-81440861D01*
X94511678Y-81380053D01*
X94490196Y-81315809D01*
X94484915Y-81277066D01*
X94632132Y-81277066D01*
X94650414Y-81328001D01*
X94680084Y-81373918D01*
X94726781Y-81416327D01*
X94788171Y-81446130D01*
X94867317Y-81465266D01*
X94868807Y-81465504D01*
X94917778Y-81471296D01*
X94976472Y-81475436D01*
X95032513Y-81477044D01*
X95125646Y-81477129D01*
X95125646Y-81036862D01*
X95049446Y-81036848D01*
X95046418Y-81036857D01*
X94995298Y-81038822D01*
X94935195Y-81043547D01*
X94878487Y-81050075D01*
X94828529Y-81059371D01*
X94753777Y-81085640D01*
X94696268Y-81124939D01*
X94654767Y-81177973D01*
X94633550Y-81229240D01*
X94632132Y-81277066D01*
X94484915Y-81277066D01*
X94482179Y-81256996D01*
X94483458Y-81235779D01*
X94495770Y-81178363D01*
X94518299Y-81118453D01*
X94547529Y-81064403D01*
X94579946Y-81024572D01*
X94599487Y-81007550D01*
X94654199Y-80968362D01*
X94714502Y-80938233D01*
X94783698Y-80916272D01*
X94865090Y-80901590D01*
X94961979Y-80893299D01*
X95077668Y-80890507D01*
X95117150Y-80890106D01*
X95162861Y-80889693D01*
X95198662Y-80891497D01*
X95225753Y-80897779D01*
X95245335Y-80910799D01*
X95258609Y-80932818D01*
X95266777Y-80966095D01*
X95271039Y-81012891D01*
X95271636Y-81036862D01*
X95272596Y-81075467D01*
X95272649Y-81156081D01*
G37*
X95272649Y-81156081D02*
X95272401Y-81256996D01*
X95272362Y-81332657D01*
X95272107Y-81410566D01*
X95271463Y-81470576D01*
X95270259Y-81515304D01*
X95268322Y-81547366D01*
X95265482Y-81569380D01*
X95261567Y-81583964D01*
X95256405Y-81593734D01*
X95249824Y-81601307D01*
X95242856Y-81607541D01*
X95229858Y-81614841D01*
X95210710Y-81619594D01*
X95181307Y-81622332D01*
X95137541Y-81623585D01*
X95075307Y-81623885D01*
X95026361Y-81623509D01*
X94919501Y-81619081D01*
X94830273Y-81608993D01*
X94755475Y-81592405D01*
X94691904Y-81568475D01*
X94636358Y-81536361D01*
X94585633Y-81495222D01*
X94579645Y-81489370D01*
X94542778Y-81440861D01*
X94511678Y-81380053D01*
X94490196Y-81315809D01*
X94484915Y-81277066D01*
X94632132Y-81277066D01*
X94650414Y-81328001D01*
X94680084Y-81373918D01*
X94726781Y-81416327D01*
X94788171Y-81446130D01*
X94867317Y-81465266D01*
X94868807Y-81465504D01*
X94917778Y-81471296D01*
X94976472Y-81475436D01*
X95032513Y-81477044D01*
X95125646Y-81477129D01*
X95125646Y-81036862D01*
X95049446Y-81036848D01*
X95046418Y-81036857D01*
X94995298Y-81038822D01*
X94935195Y-81043547D01*
X94878487Y-81050075D01*
X94828529Y-81059371D01*
X94753777Y-81085640D01*
X94696268Y-81124939D01*
X94654767Y-81177973D01*
X94633550Y-81229240D01*
X94632132Y-81277066D01*
X94484915Y-81277066D01*
X94482179Y-81256996D01*
X94483458Y-81235779D01*
X94495770Y-81178363D01*
X94518299Y-81118453D01*
X94547529Y-81064403D01*
X94579946Y-81024572D01*
X94599487Y-81007550D01*
X94654199Y-80968362D01*
X94714502Y-80938233D01*
X94783698Y-80916272D01*
X94865090Y-80901590D01*
X94961979Y-80893299D01*
X95077668Y-80890507D01*
X95117150Y-80890106D01*
X95162861Y-80889693D01*
X95198662Y-80891497D01*
X95225753Y-80897779D01*
X95245335Y-80910799D01*
X95258609Y-80932818D01*
X95266777Y-80966095D01*
X95271039Y-81012891D01*
X95271636Y-81036862D01*
X95272596Y-81075467D01*
X95272649Y-81156081D01*
%TD*%
M02*
