%TF.GenerationSoftware,KiCad,Pcbnew,(6.0.9)*%
%TF.CreationDate,2023-01-13T23:22:46-06:00*%
%TF.ProjectId,PlantHumidifier,506c616e-7448-4756-9d69-646966696572,A*%
%TF.SameCoordinates,Original*%
%TF.FileFunction,Copper,L2,Bot*%
%TF.FilePolarity,Positive*%
%FSLAX46Y46*%
G04 Gerber Fmt 4.6, Leading zero omitted, Abs format (unit mm)*
G04 Created by KiCad (PCBNEW (6.0.9)) date 2023-01-13 23:22:46*
%MOMM*%
%LPD*%
G01*
G04 APERTURE LIST*
G04 Aperture macros list*
%AMRoundRect*
0 Rectangle with rounded corners*
0 $1 Rounding radius*
0 $2 $3 $4 $5 $6 $7 $8 $9 X,Y pos of 4 corners*
0 Add a 4 corners polygon primitive as box body*
4,1,4,$2,$3,$4,$5,$6,$7,$8,$9,$2,$3,0*
0 Add four circle primitives for the rounded corners*
1,1,$1+$1,$2,$3*
1,1,$1+$1,$4,$5*
1,1,$1+$1,$6,$7*
1,1,$1+$1,$8,$9*
0 Add four rect primitives between the rounded corners*
20,1,$1+$1,$2,$3,$4,$5,0*
20,1,$1+$1,$4,$5,$6,$7,0*
20,1,$1+$1,$6,$7,$8,$9,0*
20,1,$1+$1,$8,$9,$2,$3,0*%
G04 Aperture macros list end*
%TA.AperFunction,ComponentPad*%
%ADD10RoundRect,0.250000X0.600000X0.725000X-0.600000X0.725000X-0.600000X-0.725000X0.600000X-0.725000X0*%
%TD*%
%TA.AperFunction,ComponentPad*%
%ADD11O,1.700000X1.950000*%
%TD*%
%TA.AperFunction,ComponentPad*%
%ADD12RoundRect,0.250000X-0.725000X0.600000X-0.725000X-0.600000X0.725000X-0.600000X0.725000X0.600000X0*%
%TD*%
%TA.AperFunction,ComponentPad*%
%ADD13O,1.950000X1.700000*%
%TD*%
%TA.AperFunction,ComponentPad*%
%ADD14RoundRect,0.250000X0.725000X-0.600000X0.725000X0.600000X-0.725000X0.600000X-0.725000X-0.600000X0*%
%TD*%
%TA.AperFunction,ComponentPad*%
%ADD15R,2.000000X2.000000*%
%TD*%
%TA.AperFunction,ComponentPad*%
%ADD16O,2.000000X1.600000*%
%TD*%
%TA.AperFunction,ComponentPad*%
%ADD17R,1.308000X1.308000*%
%TD*%
%TA.AperFunction,ComponentPad*%
%ADD18C,1.308000*%
%TD*%
%TA.AperFunction,ViaPad*%
%ADD19C,0.800000*%
%TD*%
G04 APERTURE END LIST*
D10*
%TO.P,J2,1,Pin_1*%
%TO.N,+5V*%
X94000000Y-61775000D03*
D11*
%TO.P,J2,2,Pin_2*%
%TO.N,GND*%
X91500000Y-61775000D03*
%TO.P,J2,3,Pin_3*%
%TO.N,/Encoder_B*%
X89000000Y-61775000D03*
%TO.P,J2,4,Pin_4*%
%TO.N,/Encoder_A*%
X86500000Y-61775000D03*
%TO.P,J2,5,Pin_5*%
%TO.N,/Rst_n*%
X84000000Y-61775000D03*
%TD*%
D12*
%TO.P,J4,1,Pin_1*%
%TO.N,/DHT22_Sense*%
X68000000Y-90300000D03*
D13*
%TO.P,J4,2,Pin_2*%
%TO.N,+3V3*%
X68000000Y-92800000D03*
%TO.P,J4,3,Pin_3*%
%TO.N,unconnected-(J4-Pad3)*%
X68000000Y-95300000D03*
%TO.P,J4,4,Pin_4*%
%TO.N,GND*%
X68000000Y-97800000D03*
%TD*%
D14*
%TO.P,J3,1,Pin_1*%
%TO.N,+5V*%
X110500000Y-88150000D03*
D13*
%TO.P,J3,2,Pin_2*%
%TO.N,GND*%
X110500000Y-85650000D03*
%TO.P,J3,3,Pin_3*%
%TO.N,/OLED_SDA*%
X110500000Y-83150000D03*
%TO.P,J3,4,Pin_4*%
%TO.N,/OLED_SCL*%
X110500000Y-80650000D03*
%TD*%
D15*
%TO.P,U1,1,~{RST}*%
%TO.N,/Rst_n*%
X77574000Y-75565000D03*
D16*
%TO.P,U1,2,A0*%
%TO.N,unconnected-(U1-Pad2)*%
X77574000Y-78105000D03*
%TO.P,U1,3,D0*%
%TO.N,/Encoder_A*%
X77574000Y-80645000D03*
%TO.P,U1,4,SCK/D5*%
%TO.N,/Encoder_B*%
X77574000Y-83185000D03*
%TO.P,U1,5,MISO/D6*%
%TO.N,/Atomizer*%
X77574000Y-85725000D03*
%TO.P,U1,6,MOSI/D7*%
%TO.N,/DHT22_Sense*%
X77574000Y-88265000D03*
%TO.P,U1,7,CS/D8*%
%TO.N,unconnected-(U1-Pad7)*%
X77574000Y-90805000D03*
%TO.P,U1,8,3V3*%
%TO.N,+3V3*%
X77574000Y-93345000D03*
%TO.P,U1,9,5V*%
%TO.N,+5V*%
X100434000Y-93345000D03*
%TO.P,U1,10,GND*%
%TO.N,GND*%
X100434000Y-90805000D03*
%TO.P,U1,11,D4*%
%TO.N,unconnected-(U1-Pad11)*%
X100434000Y-88265000D03*
%TO.P,U1,12,D3*%
%TO.N,unconnected-(U1-Pad12)*%
X100434000Y-85725000D03*
%TO.P,U1,13,SDA/D2*%
%TO.N,/OLED_SDA*%
X100434000Y-83185000D03*
%TO.P,U1,14,SCL/D1*%
%TO.N,/OLED_SCL*%
X100434000Y-80645000D03*
%TO.P,U1,15,RX*%
%TO.N,unconnected-(U1-Pad15)*%
X100434000Y-78105000D03*
%TO.P,U1,16,TX*%
%TO.N,unconnected-(U1-Pad16)*%
X100434000Y-75565000D03*
%TD*%
D17*
%TO.P,J1,1,1*%
%TO.N,/Atomizer*%
X68400000Y-77700000D03*
D18*
%TO.P,J1,2,2*%
%TO.N,unconnected-(J1-Pad2)*%
X68400000Y-79700000D03*
%TO.P,J1,3,3*%
%TO.N,+5V*%
X68400000Y-81700000D03*
%TO.P,J1,4,4*%
%TO.N,GND*%
X68400000Y-83700000D03*
%TD*%
D19*
%TO.N,GND*%
X66800000Y-83637500D03*
X91500000Y-59900000D03*
X66107600Y-97800000D03*
X106832400Y-91236800D03*
X112425000Y-85600000D03*
%TD*%
%TA.AperFunction,Conductor*%
%TO.N,GND*%
G36*
X117712785Y-52175468D02*
G01*
X117734204Y-52177351D01*
X117750000Y-52180136D01*
X117760684Y-52178252D01*
X117765730Y-52178252D01*
X117784638Y-52177012D01*
X118106334Y-52191058D01*
X118136751Y-52192386D01*
X118147527Y-52193329D01*
X118525958Y-52243151D01*
X118536611Y-52245029D01*
X118909273Y-52327646D01*
X118919722Y-52330446D01*
X119283755Y-52445225D01*
X119293921Y-52448925D01*
X119505288Y-52536475D01*
X119646579Y-52595000D01*
X119656370Y-52599566D01*
X119994954Y-52775822D01*
X120004300Y-52781218D01*
X120326256Y-52986326D01*
X120335085Y-52992507D01*
X120637940Y-53224896D01*
X120646206Y-53231833D01*
X120927659Y-53489737D01*
X120935263Y-53497341D01*
X121193167Y-53778794D01*
X121200104Y-53787060D01*
X121432493Y-54089915D01*
X121438674Y-54098744D01*
X121643782Y-54420700D01*
X121649178Y-54430046D01*
X121801904Y-54723429D01*
X121825431Y-54768624D01*
X121830003Y-54778428D01*
X121976075Y-55131079D01*
X121979775Y-55141245D01*
X122094554Y-55505278D01*
X122097354Y-55515727D01*
X122179971Y-55888389D01*
X122181849Y-55899042D01*
X122231671Y-56277473D01*
X122232614Y-56288249D01*
X122247784Y-56635683D01*
X122247988Y-56640359D01*
X122246748Y-56659270D01*
X122246748Y-56664316D01*
X122244864Y-56675000D01*
X122246748Y-56685683D01*
X122247616Y-56690606D01*
X122249500Y-56712139D01*
X122249500Y-104887861D01*
X122247616Y-104909391D01*
X122244864Y-104925000D01*
X122246748Y-104935684D01*
X122246748Y-104940730D01*
X122247988Y-104959638D01*
X122234797Y-105261751D01*
X122232614Y-105311751D01*
X122231671Y-105322527D01*
X122181849Y-105700958D01*
X122179971Y-105711611D01*
X122097354Y-106084273D01*
X122094554Y-106094722D01*
X121979775Y-106458755D01*
X121976075Y-106468921D01*
X121949721Y-106532546D01*
X121846653Y-106781376D01*
X121830003Y-106821572D01*
X121825434Y-106831370D01*
X121649178Y-107169954D01*
X121643782Y-107179300D01*
X121438674Y-107501256D01*
X121432493Y-107510085D01*
X121200104Y-107812940D01*
X121193167Y-107821206D01*
X120935263Y-108102659D01*
X120927659Y-108110263D01*
X120646206Y-108368167D01*
X120637940Y-108375104D01*
X120335085Y-108607493D01*
X120326256Y-108613674D01*
X120004300Y-108818782D01*
X119994954Y-108824178D01*
X119656370Y-109000434D01*
X119646579Y-109005000D01*
X119505288Y-109063525D01*
X119293921Y-109151075D01*
X119283755Y-109154775D01*
X118919722Y-109269554D01*
X118909273Y-109272354D01*
X118536611Y-109354971D01*
X118525958Y-109356849D01*
X118147527Y-109406671D01*
X118136751Y-109407614D01*
X118106334Y-109408942D01*
X117784638Y-109422988D01*
X117765730Y-109421748D01*
X117760684Y-109421748D01*
X117750000Y-109419864D01*
X117734573Y-109422584D01*
X117712938Y-109424467D01*
X60637215Y-109374532D01*
X60615795Y-109372649D01*
X60600000Y-109369864D01*
X60589316Y-109371748D01*
X60584270Y-109371748D01*
X60565362Y-109372988D01*
X60243666Y-109358942D01*
X60213249Y-109357614D01*
X60202473Y-109356671D01*
X59824042Y-109306849D01*
X59813389Y-109304971D01*
X59440727Y-109222354D01*
X59430278Y-109219554D01*
X59066245Y-109104775D01*
X59056079Y-109101075D01*
X58824139Y-109005003D01*
X58703421Y-108955000D01*
X58693630Y-108950434D01*
X58355046Y-108774178D01*
X58345700Y-108768782D01*
X58023744Y-108563674D01*
X58014915Y-108557493D01*
X57712060Y-108325104D01*
X57703794Y-108318167D01*
X57422341Y-108060263D01*
X57414737Y-108052659D01*
X57156833Y-107771206D01*
X57149896Y-107762940D01*
X56917507Y-107460085D01*
X56911326Y-107451256D01*
X56706218Y-107129300D01*
X56700822Y-107119954D01*
X56524566Y-106781370D01*
X56519997Y-106771572D01*
X56373925Y-106418921D01*
X56370225Y-106408755D01*
X56255446Y-106044722D01*
X56252646Y-106034273D01*
X56170029Y-105661611D01*
X56168151Y-105650958D01*
X56118329Y-105272527D01*
X56117386Y-105261751D01*
X56112677Y-105153904D01*
X56102012Y-104909638D01*
X56103252Y-104890730D01*
X56103252Y-104885684D01*
X56105136Y-104875000D01*
X56102384Y-104859391D01*
X56100500Y-104837861D01*
X56100500Y-104683789D01*
X59195996Y-104683789D01*
X59204913Y-104921295D01*
X59205990Y-104926430D01*
X59205991Y-104926435D01*
X59252639Y-105148758D01*
X59253719Y-105153904D01*
X59341020Y-105374963D01*
X59343741Y-105379447D01*
X59343743Y-105379451D01*
X59411233Y-105490670D01*
X59464319Y-105578153D01*
X59620090Y-105757664D01*
X59803880Y-105908362D01*
X59808441Y-105910958D01*
X59808442Y-105910959D01*
X60005875Y-106023345D01*
X60005880Y-106023347D01*
X60010433Y-106025939D01*
X60233844Y-106107034D01*
X60467725Y-106149326D01*
X60492619Y-106150500D01*
X60659680Y-106150500D01*
X60662296Y-106150278D01*
X60662297Y-106150278D01*
X60831590Y-106135913D01*
X60836823Y-106135469D01*
X61066874Y-106075760D01*
X61283576Y-105978143D01*
X61480732Y-105845409D01*
X61652705Y-105681355D01*
X61794579Y-105490670D01*
X61796958Y-105485991D01*
X61899913Y-105283493D01*
X61899915Y-105283488D01*
X61902295Y-105278807D01*
X61905913Y-105267157D01*
X61971215Y-105056848D01*
X61972775Y-105051824D01*
X61973466Y-105046612D01*
X62003315Y-104821412D01*
X62003315Y-104821408D01*
X62004004Y-104816211D01*
X61999032Y-104683789D01*
X116345996Y-104683789D01*
X116354913Y-104921295D01*
X116355990Y-104926430D01*
X116355991Y-104926435D01*
X116402639Y-105148758D01*
X116403719Y-105153904D01*
X116491020Y-105374963D01*
X116493741Y-105379447D01*
X116493743Y-105379451D01*
X116561233Y-105490670D01*
X116614319Y-105578153D01*
X116770090Y-105757664D01*
X116953880Y-105908362D01*
X116958441Y-105910958D01*
X116958442Y-105910959D01*
X117155875Y-106023345D01*
X117155880Y-106023347D01*
X117160433Y-106025939D01*
X117383844Y-106107034D01*
X117617725Y-106149326D01*
X117642619Y-106150500D01*
X117809680Y-106150500D01*
X117812296Y-106150278D01*
X117812297Y-106150278D01*
X117981590Y-106135913D01*
X117986823Y-106135469D01*
X118216874Y-106075760D01*
X118433576Y-105978143D01*
X118630732Y-105845409D01*
X118802705Y-105681355D01*
X118944579Y-105490670D01*
X118946958Y-105485991D01*
X119049913Y-105283493D01*
X119049915Y-105283488D01*
X119052295Y-105278807D01*
X119055913Y-105267157D01*
X119121215Y-105056848D01*
X119122775Y-105051824D01*
X119123466Y-105046612D01*
X119153315Y-104821412D01*
X119153315Y-104821408D01*
X119154004Y-104816211D01*
X119145087Y-104578705D01*
X119117700Y-104448176D01*
X119097361Y-104351242D01*
X119097360Y-104351239D01*
X119096281Y-104346096D01*
X119008980Y-104125037D01*
X118941607Y-104014009D01*
X118888408Y-103926341D01*
X118885681Y-103921847D01*
X118729910Y-103742336D01*
X118546120Y-103591638D01*
X118428687Y-103524791D01*
X118344125Y-103476655D01*
X118344120Y-103476653D01*
X118339567Y-103474061D01*
X118116156Y-103392966D01*
X117882275Y-103350674D01*
X117857381Y-103349500D01*
X117690320Y-103349500D01*
X117687704Y-103349722D01*
X117687703Y-103349722D01*
X117676484Y-103350674D01*
X117513177Y-103364531D01*
X117283126Y-103424240D01*
X117066424Y-103521857D01*
X116869268Y-103654591D01*
X116697295Y-103818645D01*
X116555421Y-104009330D01*
X116553042Y-104014008D01*
X116553042Y-104014009D01*
X116498875Y-104120549D01*
X116447705Y-104221193D01*
X116377225Y-104448176D01*
X116345996Y-104683789D01*
X61999032Y-104683789D01*
X61995087Y-104578705D01*
X61967700Y-104448176D01*
X61947361Y-104351242D01*
X61947360Y-104351239D01*
X61946281Y-104346096D01*
X61858980Y-104125037D01*
X61791607Y-104014009D01*
X61738408Y-103926341D01*
X61735681Y-103921847D01*
X61579910Y-103742336D01*
X61396120Y-103591638D01*
X61278687Y-103524791D01*
X61194125Y-103476655D01*
X61194120Y-103476653D01*
X61189567Y-103474061D01*
X60966156Y-103392966D01*
X60732275Y-103350674D01*
X60707381Y-103349500D01*
X60540320Y-103349500D01*
X60537704Y-103349722D01*
X60537703Y-103349722D01*
X60526484Y-103350674D01*
X60363177Y-103364531D01*
X60133126Y-103424240D01*
X59916424Y-103521857D01*
X59719268Y-103654591D01*
X59547295Y-103818645D01*
X59405421Y-104009330D01*
X59403042Y-104014008D01*
X59403042Y-104014009D01*
X59348875Y-104120549D01*
X59297705Y-104221193D01*
X59227225Y-104448176D01*
X59195996Y-104683789D01*
X56100500Y-104683789D01*
X56100500Y-98062326D01*
X66547667Y-98062326D01*
X66600168Y-98258264D01*
X66603857Y-98268397D01*
X66699110Y-98472667D01*
X66704508Y-98482017D01*
X66833784Y-98666643D01*
X66840719Y-98674907D01*
X67000093Y-98834281D01*
X67008357Y-98841216D01*
X67192983Y-98970492D01*
X67202333Y-98975890D01*
X67406603Y-99071143D01*
X67416736Y-99074832D01*
X67634447Y-99133167D01*
X67645078Y-99135041D01*
X67732239Y-99142667D01*
X67746951Y-99139710D01*
X67750000Y-99128147D01*
X67750000Y-99126391D01*
X68250000Y-99126391D01*
X68254228Y-99140790D01*
X68266012Y-99142820D01*
X68354922Y-99135041D01*
X68365553Y-99133167D01*
X68583264Y-99074832D01*
X68593397Y-99071143D01*
X68797667Y-98975890D01*
X68807017Y-98970492D01*
X68991643Y-98841216D01*
X68999907Y-98834281D01*
X69159279Y-98674909D01*
X69166215Y-98666643D01*
X69295498Y-98482008D01*
X69300886Y-98472676D01*
X69396143Y-98268397D01*
X69399832Y-98258264D01*
X69451022Y-98067221D01*
X69450691Y-98053347D01*
X69442875Y-98050000D01*
X68267830Y-98050000D01*
X68252831Y-98054404D01*
X68251644Y-98055774D01*
X68250000Y-98063332D01*
X68250000Y-99126391D01*
X67750000Y-99126391D01*
X67750000Y-98067830D01*
X67745596Y-98052831D01*
X67744226Y-98051644D01*
X67736668Y-98050000D01*
X66562194Y-98050000D01*
X66548877Y-98053910D01*
X66547667Y-98062326D01*
X56100500Y-98062326D01*
X56100500Y-97532779D01*
X66548978Y-97532779D01*
X66549309Y-97546653D01*
X66557125Y-97550000D01*
X69437806Y-97550000D01*
X69451123Y-97546090D01*
X69452333Y-97537674D01*
X69399832Y-97341736D01*
X69396143Y-97331603D01*
X69300890Y-97127333D01*
X69295492Y-97117983D01*
X69166216Y-96933357D01*
X69159281Y-96925093D01*
X68999907Y-96765719D01*
X68991643Y-96758784D01*
X68807017Y-96629508D01*
X68797667Y-96624110D01*
X68643253Y-96552105D01*
X68590814Y-96505933D01*
X68571662Y-96438739D01*
X68591878Y-96371858D01*
X68640814Y-96328511D01*
X68723607Y-96287682D01*
X68723611Y-96287680D01*
X68728710Y-96285165D01*
X68898133Y-96158651D01*
X68901988Y-96154481D01*
X68901991Y-96154478D01*
X68961298Y-96090319D01*
X69041663Y-96003381D01*
X69054259Y-95983418D01*
X69151461Y-95829363D01*
X69151462Y-95829361D01*
X69154495Y-95824554D01*
X69232848Y-95628160D01*
X69237580Y-95604373D01*
X69272988Y-95426359D01*
X69274099Y-95420775D01*
X69274494Y-95390654D01*
X69276793Y-95215034D01*
X69276793Y-95215029D01*
X69276867Y-95209346D01*
X69275904Y-95203741D01*
X69242021Y-95006550D01*
X69242020Y-95006547D01*
X69241059Y-95000953D01*
X69167873Y-94802575D01*
X69164970Y-94797695D01*
X69062668Y-94625740D01*
X69062666Y-94625737D01*
X69059762Y-94620856D01*
X68920345Y-94461881D01*
X68915881Y-94458362D01*
X68915878Y-94458359D01*
X68805629Y-94371447D01*
X68754292Y-94330976D01*
X68567164Y-94232523D01*
X68561733Y-94230837D01*
X68561729Y-94230835D01*
X68457012Y-94198320D01*
X68365227Y-94169820D01*
X68364308Y-94169711D01*
X68304187Y-94137254D01*
X68270411Y-94076091D01*
X68275063Y-94006376D01*
X68316667Y-93950244D01*
X68357792Y-93929811D01*
X68366340Y-93927400D01*
X68539069Y-93878686D01*
X68728710Y-93785165D01*
X68898133Y-93658651D01*
X68901988Y-93654481D01*
X68901991Y-93654478D01*
X68961298Y-93590319D01*
X69041663Y-93503381D01*
X69054259Y-93483418D01*
X69151461Y-93329363D01*
X69151462Y-93329361D01*
X69154495Y-93324554D01*
X69167883Y-93290996D01*
X76269814Y-93290996D01*
X76279523Y-93500767D01*
X76280905Y-93506500D01*
X76318393Y-93662050D01*
X76328724Y-93704918D01*
X76331164Y-93710286D01*
X76331166Y-93710290D01*
X76376643Y-93810311D01*
X76415640Y-93896081D01*
X76537137Y-94067360D01*
X76541404Y-94071444D01*
X76541405Y-94071446D01*
X76684564Y-94208491D01*
X76684568Y-94208495D01*
X76688831Y-94212575D01*
X76865246Y-94326485D01*
X76870721Y-94328692D01*
X76870724Y-94328693D01*
X77054539Y-94402773D01*
X77054544Y-94402774D01*
X77060019Y-94404981D01*
X77266122Y-94445230D01*
X77271643Y-94445500D01*
X77826469Y-94445500D01*
X77983046Y-94430561D01*
X77988706Y-94428901D01*
X77988709Y-94428900D01*
X78083797Y-94401004D01*
X78184549Y-94371447D01*
X78267561Y-94328693D01*
X78365996Y-94277996D01*
X78366001Y-94277993D01*
X78371239Y-94275295D01*
X78536379Y-94145576D01*
X78540245Y-94141121D01*
X78670146Y-93991424D01*
X78670147Y-93991423D01*
X78674010Y-93986971D01*
X78676964Y-93981865D01*
X78776210Y-93810311D01*
X78776211Y-93810309D01*
X78779166Y-93805201D01*
X78848053Y-93606826D01*
X78878186Y-93399004D01*
X78868477Y-93189233D01*
X78853758Y-93128160D01*
X78820658Y-92990815D01*
X78820657Y-92990812D01*
X78819276Y-92985082D01*
X78792577Y-92926359D01*
X78734802Y-92799290D01*
X78732360Y-92793919D01*
X78610863Y-92622640D01*
X78606595Y-92618554D01*
X78463436Y-92481509D01*
X78463432Y-92481505D01*
X78459169Y-92477425D01*
X78282754Y-92363515D01*
X78277279Y-92361308D01*
X78277276Y-92361307D01*
X78093461Y-92287227D01*
X78093456Y-92287226D01*
X78087981Y-92285019D01*
X77881878Y-92244770D01*
X77876357Y-92244500D01*
X77321531Y-92244500D01*
X77164954Y-92259439D01*
X77159294Y-92261099D01*
X77159291Y-92261100D01*
X77064203Y-92288996D01*
X76963451Y-92318553D01*
X76958202Y-92321256D01*
X76958203Y-92321256D01*
X76782004Y-92412004D01*
X76781999Y-92412007D01*
X76776761Y-92414705D01*
X76611621Y-92544424D01*
X76473990Y-92703029D01*
X76471037Y-92708134D01*
X76471036Y-92708135D01*
X76470336Y-92709346D01*
X76368834Y-92884799D01*
X76299947Y-93083174D01*
X76269814Y-93290996D01*
X69167883Y-93290996D01*
X69232848Y-93128160D01*
X69237580Y-93104373D01*
X69272988Y-92926359D01*
X69274099Y-92920775D01*
X69274494Y-92890654D01*
X69276793Y-92715034D01*
X69276793Y-92715029D01*
X69276867Y-92709346D01*
X69275782Y-92703029D01*
X69242021Y-92506550D01*
X69242020Y-92506547D01*
X69241059Y-92500953D01*
X69167873Y-92302575D01*
X69158742Y-92287227D01*
X69062668Y-92125740D01*
X69062666Y-92125737D01*
X69059762Y-92120856D01*
X68920345Y-91961881D01*
X68915881Y-91958362D01*
X68915878Y-91958359D01*
X68830587Y-91891122D01*
X68754292Y-91830976D01*
X68567164Y-91732523D01*
X68561733Y-91730837D01*
X68561729Y-91730835D01*
X68439628Y-91692922D01*
X68381441Y-91654243D01*
X68353403Y-91590246D01*
X68364415Y-91521250D01*
X68410981Y-91469160D01*
X68476399Y-91450500D01*
X68767772Y-91450500D01*
X68796934Y-91446971D01*
X68849641Y-91440593D01*
X68849643Y-91440592D01*
X68857547Y-91439636D01*
X68864951Y-91436704D01*
X68864953Y-91436704D01*
X68989921Y-91387226D01*
X68989922Y-91387225D01*
X68997783Y-91384113D01*
X69117922Y-91292922D01*
X69209113Y-91172783D01*
X69214497Y-91159185D01*
X69261704Y-91039953D01*
X69261704Y-91039951D01*
X69264636Y-91032547D01*
X69275500Y-90942772D01*
X69275500Y-90750996D01*
X76269814Y-90750996D01*
X76279523Y-90960767D01*
X76328724Y-91164918D01*
X76331164Y-91170286D01*
X76331166Y-91170290D01*
X76389247Y-91298032D01*
X76415640Y-91356081D01*
X76537137Y-91527360D01*
X76541404Y-91531444D01*
X76541405Y-91531446D01*
X76684564Y-91668491D01*
X76684568Y-91668495D01*
X76688831Y-91672575D01*
X76865246Y-91786485D01*
X76870721Y-91788692D01*
X76870724Y-91788693D01*
X77054539Y-91862773D01*
X77054544Y-91862774D01*
X77060019Y-91864981D01*
X77266122Y-91905230D01*
X77271643Y-91905500D01*
X77826469Y-91905500D01*
X77983046Y-91890561D01*
X77988706Y-91888901D01*
X77988709Y-91888900D01*
X78083797Y-91861004D01*
X78184549Y-91831447D01*
X78221688Y-91812319D01*
X78365996Y-91737996D01*
X78366001Y-91737993D01*
X78371239Y-91735295D01*
X78536379Y-91605576D01*
X78674010Y-91446971D01*
X78677700Y-91440593D01*
X78776210Y-91270311D01*
X78776211Y-91270309D01*
X78779166Y-91265201D01*
X78847879Y-91067326D01*
X98958431Y-91067326D01*
X99006331Y-91246092D01*
X99010023Y-91256235D01*
X99101580Y-91452580D01*
X99106968Y-91461913D01*
X99231233Y-91639381D01*
X99238169Y-91647647D01*
X99391353Y-91800831D01*
X99399619Y-91807767D01*
X99577087Y-91932032D01*
X99586420Y-91937420D01*
X99782769Y-92028979D01*
X99792905Y-92032669D01*
X99891351Y-92059047D01*
X99951012Y-92095412D01*
X99981541Y-92158259D01*
X99973246Y-92227634D01*
X99928761Y-92281512D01*
X99894165Y-92297807D01*
X99829121Y-92316889D01*
X99829115Y-92316891D01*
X99823451Y-92318553D01*
X99818202Y-92321256D01*
X99818203Y-92321256D01*
X99642004Y-92412004D01*
X99641999Y-92412007D01*
X99636761Y-92414705D01*
X99471621Y-92544424D01*
X99333990Y-92703029D01*
X99331037Y-92708134D01*
X99331036Y-92708135D01*
X99330336Y-92709346D01*
X99228834Y-92884799D01*
X99159947Y-93083174D01*
X99129814Y-93290996D01*
X99139523Y-93500767D01*
X99140905Y-93506500D01*
X99178393Y-93662050D01*
X99188724Y-93704918D01*
X99191164Y-93710286D01*
X99191166Y-93710290D01*
X99236643Y-93810311D01*
X99275640Y-93896081D01*
X99397137Y-94067360D01*
X99401404Y-94071444D01*
X99401405Y-94071446D01*
X99544564Y-94208491D01*
X99544568Y-94208495D01*
X99548831Y-94212575D01*
X99725246Y-94326485D01*
X99730721Y-94328692D01*
X99730724Y-94328693D01*
X99914539Y-94402773D01*
X99914544Y-94402774D01*
X99920019Y-94404981D01*
X100126122Y-94445230D01*
X100131643Y-94445500D01*
X100686469Y-94445500D01*
X100843046Y-94430561D01*
X100848706Y-94428901D01*
X100848709Y-94428900D01*
X100943797Y-94401004D01*
X101044549Y-94371447D01*
X101127561Y-94328693D01*
X101225996Y-94277996D01*
X101226001Y-94277993D01*
X101231239Y-94275295D01*
X101396379Y-94145576D01*
X101400245Y-94141121D01*
X101530146Y-93991424D01*
X101530147Y-93991423D01*
X101534010Y-93986971D01*
X101536964Y-93981865D01*
X101636210Y-93810311D01*
X101636211Y-93810309D01*
X101639166Y-93805201D01*
X101708053Y-93606826D01*
X101738186Y-93399004D01*
X101728477Y-93189233D01*
X101713758Y-93128160D01*
X101680658Y-92990815D01*
X101680657Y-92990812D01*
X101679276Y-92985082D01*
X101652577Y-92926359D01*
X101594802Y-92799290D01*
X101592360Y-92793919D01*
X101470863Y-92622640D01*
X101466595Y-92618554D01*
X101323436Y-92481509D01*
X101323432Y-92481505D01*
X101319169Y-92477425D01*
X101142754Y-92363515D01*
X101137279Y-92361308D01*
X101137276Y-92361307D01*
X100966872Y-92292632D01*
X100912050Y-92249315D01*
X100889350Y-92183236D01*
X100905979Y-92115374D01*
X100956657Y-92067275D01*
X100981130Y-92057846D01*
X101075095Y-92032669D01*
X101085231Y-92028979D01*
X101281580Y-91937420D01*
X101290913Y-91932032D01*
X101468381Y-91807767D01*
X101476647Y-91800831D01*
X101629831Y-91647647D01*
X101636767Y-91639381D01*
X101761032Y-91461913D01*
X101766420Y-91452580D01*
X101857977Y-91256235D01*
X101861669Y-91246092D01*
X101908258Y-91072221D01*
X101907927Y-91058347D01*
X101900111Y-91055000D01*
X98972958Y-91055000D01*
X98959641Y-91058910D01*
X98958431Y-91067326D01*
X78847879Y-91067326D01*
X78848053Y-91066826D01*
X78878186Y-90859004D01*
X78868477Y-90649233D01*
X78844325Y-90549018D01*
X78841616Y-90537779D01*
X98959742Y-90537779D01*
X98960073Y-90551653D01*
X98967889Y-90555000D01*
X101895042Y-90555000D01*
X101908359Y-90551090D01*
X101909569Y-90542674D01*
X101861669Y-90363908D01*
X101857977Y-90353765D01*
X101766420Y-90157420D01*
X101761032Y-90148087D01*
X101636767Y-89970619D01*
X101629831Y-89962353D01*
X101476647Y-89809169D01*
X101468381Y-89802233D01*
X101290913Y-89677968D01*
X101281580Y-89672580D01*
X101085231Y-89581021D01*
X101075095Y-89577331D01*
X100976649Y-89550953D01*
X100916988Y-89514588D01*
X100886459Y-89451741D01*
X100894754Y-89382366D01*
X100939239Y-89328488D01*
X100973835Y-89312193D01*
X101038879Y-89293111D01*
X101038887Y-89293108D01*
X101044549Y-89291447D01*
X101138065Y-89243283D01*
X101225996Y-89197996D01*
X101226001Y-89197993D01*
X101231239Y-89195295D01*
X101396379Y-89065576D01*
X101534010Y-88906971D01*
X101589698Y-88810710D01*
X101636210Y-88730311D01*
X101636211Y-88730309D01*
X101639166Y-88725201D01*
X101708053Y-88526826D01*
X101738186Y-88319004D01*
X101728477Y-88109233D01*
X101704325Y-88009018D01*
X101680658Y-87910815D01*
X101680657Y-87910812D01*
X101679276Y-87905082D01*
X101633681Y-87804799D01*
X101594802Y-87719290D01*
X101592360Y-87713919D01*
X101470863Y-87542640D01*
X101466595Y-87538554D01*
X101323436Y-87401509D01*
X101323432Y-87401505D01*
X101319169Y-87397425D01*
X101142754Y-87283515D01*
X101137279Y-87281308D01*
X101137276Y-87281307D01*
X100953461Y-87207227D01*
X100953456Y-87207226D01*
X100947981Y-87205019D01*
X100741878Y-87164770D01*
X100736357Y-87164500D01*
X100181531Y-87164500D01*
X100024954Y-87179439D01*
X100019294Y-87181099D01*
X100019291Y-87181100D01*
X99924202Y-87208996D01*
X99823451Y-87238553D01*
X99818202Y-87241256D01*
X99818203Y-87241256D01*
X99642004Y-87332004D01*
X99641999Y-87332007D01*
X99636761Y-87334705D01*
X99471621Y-87464424D01*
X99333990Y-87623029D01*
X99228834Y-87804799D01*
X99159947Y-88003174D01*
X99129814Y-88210996D01*
X99139523Y-88420767D01*
X99188724Y-88624918D01*
X99191164Y-88630286D01*
X99191166Y-88630290D01*
X99236643Y-88730311D01*
X99275640Y-88816081D01*
X99397137Y-88987360D01*
X99401404Y-88991444D01*
X99401405Y-88991446D01*
X99544564Y-89128491D01*
X99544568Y-89128495D01*
X99548831Y-89132575D01*
X99725246Y-89246485D01*
X99730721Y-89248692D01*
X99730724Y-89248693D01*
X99901128Y-89317368D01*
X99955950Y-89360685D01*
X99978650Y-89426764D01*
X99962021Y-89494626D01*
X99911343Y-89542725D01*
X99886870Y-89552154D01*
X99792905Y-89577331D01*
X99782769Y-89581021D01*
X99586420Y-89672580D01*
X99577087Y-89677968D01*
X99399619Y-89802233D01*
X99391353Y-89809169D01*
X99238169Y-89962353D01*
X99231233Y-89970619D01*
X99106968Y-90148087D01*
X99101580Y-90157420D01*
X99010023Y-90353765D01*
X99006331Y-90363908D01*
X98959742Y-90537779D01*
X78841616Y-90537779D01*
X78820658Y-90450815D01*
X78820657Y-90450812D01*
X78819276Y-90445082D01*
X78773681Y-90344799D01*
X78734802Y-90259290D01*
X78732360Y-90253919D01*
X78610863Y-90082640D01*
X78606595Y-90078554D01*
X78463436Y-89941509D01*
X78463432Y-89941505D01*
X78459169Y-89937425D01*
X78282754Y-89823515D01*
X78277279Y-89821308D01*
X78277276Y-89821307D01*
X78093461Y-89747227D01*
X78093456Y-89747226D01*
X78087981Y-89745019D01*
X77881878Y-89704770D01*
X77876357Y-89704500D01*
X77321531Y-89704500D01*
X77164954Y-89719439D01*
X77159294Y-89721099D01*
X77159291Y-89721100D01*
X77064202Y-89748996D01*
X76963451Y-89778553D01*
X76958202Y-89781256D01*
X76958203Y-89781256D01*
X76782004Y-89872004D01*
X76781999Y-89872007D01*
X76776761Y-89874705D01*
X76611621Y-90004424D01*
X76473990Y-90163029D01*
X76368834Y-90344799D01*
X76299947Y-90543174D01*
X76269814Y-90750996D01*
X69275500Y-90750996D01*
X69275500Y-89657228D01*
X69266278Y-89581021D01*
X69265593Y-89575359D01*
X69265592Y-89575357D01*
X69264636Y-89567453D01*
X69254846Y-89542725D01*
X69212226Y-89435079D01*
X69212225Y-89435078D01*
X69209113Y-89427217D01*
X69151354Y-89351122D01*
X69123032Y-89313810D01*
X69117922Y-89307078D01*
X69093768Y-89288744D01*
X69004518Y-89220999D01*
X69004517Y-89220999D01*
X68997783Y-89215887D01*
X68989922Y-89212775D01*
X68989921Y-89212774D01*
X68864953Y-89163296D01*
X68864951Y-89163296D01*
X68857547Y-89160364D01*
X68849643Y-89159408D01*
X68849641Y-89159407D01*
X68796927Y-89153028D01*
X68767772Y-89149500D01*
X67232228Y-89149500D01*
X67203073Y-89153028D01*
X67150359Y-89159407D01*
X67150357Y-89159408D01*
X67142453Y-89160364D01*
X67135049Y-89163296D01*
X67135047Y-89163296D01*
X67010079Y-89212774D01*
X67010078Y-89212775D01*
X67002217Y-89215887D01*
X66995483Y-89220999D01*
X66995482Y-89220999D01*
X66906232Y-89288744D01*
X66882078Y-89307078D01*
X66876968Y-89313810D01*
X66848647Y-89351122D01*
X66790887Y-89427217D01*
X66787775Y-89435078D01*
X66787774Y-89435079D01*
X66745154Y-89542725D01*
X66735364Y-89567453D01*
X66734408Y-89575357D01*
X66734407Y-89575359D01*
X66733722Y-89581021D01*
X66724500Y-89657228D01*
X66724500Y-90942772D01*
X66735364Y-91032547D01*
X66738296Y-91039951D01*
X66738296Y-91039953D01*
X66785503Y-91159185D01*
X66790887Y-91172783D01*
X66882078Y-91292922D01*
X67002217Y-91384113D01*
X67010078Y-91387225D01*
X67010079Y-91387226D01*
X67135047Y-91436704D01*
X67135049Y-91436704D01*
X67142453Y-91439636D01*
X67150357Y-91440592D01*
X67150359Y-91440593D01*
X67203066Y-91446971D01*
X67232228Y-91450500D01*
X67524672Y-91450500D01*
X67591711Y-91470185D01*
X67637466Y-91522989D01*
X67647410Y-91592147D01*
X67618385Y-91655703D01*
X67558330Y-91693845D01*
X67460931Y-91721314D01*
X67271290Y-91814835D01*
X67101867Y-91941349D01*
X67098012Y-91945519D01*
X67098009Y-91945522D01*
X67038702Y-92009681D01*
X66958337Y-92096619D01*
X66955303Y-92101428D01*
X66955302Y-92101429D01*
X66854557Y-92261100D01*
X66845505Y-92275446D01*
X66767152Y-92471840D01*
X66766042Y-92477421D01*
X66766041Y-92477424D01*
X66761361Y-92500953D01*
X66725901Y-92679225D01*
X66725827Y-92684912D01*
X66725826Y-92684917D01*
X66723207Y-92884966D01*
X66723133Y-92890654D01*
X66724096Y-92896258D01*
X66724096Y-92896259D01*
X66757218Y-93089018D01*
X66758941Y-93099047D01*
X66832127Y-93297425D01*
X66835029Y-93302303D01*
X66835030Y-93302305D01*
X66896034Y-93404843D01*
X66940238Y-93479144D01*
X67079655Y-93638119D01*
X67084119Y-93641638D01*
X67084122Y-93641641D01*
X67110011Y-93662050D01*
X67245708Y-93769024D01*
X67432836Y-93867477D01*
X67438267Y-93869163D01*
X67438271Y-93869165D01*
X67524956Y-93896081D01*
X67634773Y-93930180D01*
X67635692Y-93930289D01*
X67695813Y-93962746D01*
X67729589Y-94023909D01*
X67724937Y-94093624D01*
X67683333Y-94149756D01*
X67642208Y-94170189D01*
X67460931Y-94221314D01*
X67271290Y-94314835D01*
X67101867Y-94441349D01*
X67098012Y-94445519D01*
X67098009Y-94445522D01*
X67038702Y-94509681D01*
X66958337Y-94596619D01*
X66955303Y-94601428D01*
X66955302Y-94601429D01*
X66943045Y-94620856D01*
X66845505Y-94775446D01*
X66767152Y-94971840D01*
X66766042Y-94977421D01*
X66766041Y-94977424D01*
X66761361Y-95000953D01*
X66725901Y-95179225D01*
X66725827Y-95184912D01*
X66725826Y-95184917D01*
X66725432Y-95215034D01*
X66723133Y-95390654D01*
X66724096Y-95396258D01*
X66724096Y-95396259D01*
X66727331Y-95415083D01*
X66758941Y-95599047D01*
X66832127Y-95797425D01*
X66835029Y-95802303D01*
X66835030Y-95802305D01*
X66845125Y-95819272D01*
X66940238Y-95979144D01*
X67079655Y-96138119D01*
X67084119Y-96141638D01*
X67084122Y-96141641D01*
X67110011Y-96162050D01*
X67245708Y-96269024D01*
X67361815Y-96330111D01*
X67411976Y-96378743D01*
X67427882Y-96446778D01*
X67404481Y-96512613D01*
X67356481Y-96552229D01*
X67202333Y-96624110D01*
X67192983Y-96629508D01*
X67008357Y-96758784D01*
X67000093Y-96765719D01*
X66840721Y-96925091D01*
X66833785Y-96933357D01*
X66704502Y-97117992D01*
X66699114Y-97127324D01*
X66603857Y-97331603D01*
X66600168Y-97341736D01*
X66548978Y-97532779D01*
X56100500Y-97532779D01*
X56100500Y-88210996D01*
X76269814Y-88210996D01*
X76279523Y-88420767D01*
X76328724Y-88624918D01*
X76331164Y-88630286D01*
X76331166Y-88630290D01*
X76376643Y-88730311D01*
X76415640Y-88816081D01*
X76537137Y-88987360D01*
X76541404Y-88991444D01*
X76541405Y-88991446D01*
X76684564Y-89128491D01*
X76684568Y-89128495D01*
X76688831Y-89132575D01*
X76865246Y-89246485D01*
X76870721Y-89248692D01*
X76870724Y-89248693D01*
X77054539Y-89322773D01*
X77054544Y-89322774D01*
X77060019Y-89324981D01*
X77266122Y-89365230D01*
X77271643Y-89365500D01*
X77826469Y-89365500D01*
X77983046Y-89350561D01*
X77988706Y-89348901D01*
X77988709Y-89348900D01*
X78083798Y-89321004D01*
X78184549Y-89291447D01*
X78278065Y-89243283D01*
X78365996Y-89197996D01*
X78366001Y-89197993D01*
X78371239Y-89195295D01*
X78536379Y-89065576D01*
X78674010Y-88906971D01*
X78729698Y-88810710D01*
X78776210Y-88730311D01*
X78776211Y-88730309D01*
X78779166Y-88725201D01*
X78848053Y-88526826D01*
X78878186Y-88319004D01*
X78868477Y-88109233D01*
X78844325Y-88009018D01*
X78820658Y-87910815D01*
X78820657Y-87910812D01*
X78819276Y-87905082D01*
X78773681Y-87804799D01*
X78734802Y-87719290D01*
X78732360Y-87713919D01*
X78610863Y-87542640D01*
X78606595Y-87538554D01*
X78463436Y-87401509D01*
X78463432Y-87401505D01*
X78459169Y-87397425D01*
X78282754Y-87283515D01*
X78277279Y-87281308D01*
X78277276Y-87281307D01*
X78093461Y-87207227D01*
X78093456Y-87207226D01*
X78087981Y-87205019D01*
X77881878Y-87164770D01*
X77876357Y-87164500D01*
X77321531Y-87164500D01*
X77164954Y-87179439D01*
X77159294Y-87181099D01*
X77159291Y-87181100D01*
X77064202Y-87208996D01*
X76963451Y-87238553D01*
X76958202Y-87241256D01*
X76958203Y-87241256D01*
X76782004Y-87332004D01*
X76781999Y-87332007D01*
X76776761Y-87334705D01*
X76611621Y-87464424D01*
X76473990Y-87623029D01*
X76368834Y-87804799D01*
X76299947Y-88003174D01*
X76269814Y-88210996D01*
X56100500Y-88210996D01*
X56100500Y-85670996D01*
X76269814Y-85670996D01*
X76279523Y-85880767D01*
X76328724Y-86084918D01*
X76331164Y-86090286D01*
X76331166Y-86090290D01*
X76376643Y-86190311D01*
X76415640Y-86276081D01*
X76537137Y-86447360D01*
X76541404Y-86451444D01*
X76541405Y-86451446D01*
X76684564Y-86588491D01*
X76684568Y-86588495D01*
X76688831Y-86592575D01*
X76865246Y-86706485D01*
X76870721Y-86708692D01*
X76870724Y-86708693D01*
X77054539Y-86782773D01*
X77054544Y-86782774D01*
X77060019Y-86784981D01*
X77266122Y-86825230D01*
X77271643Y-86825500D01*
X77826469Y-86825500D01*
X77983046Y-86810561D01*
X77988706Y-86808901D01*
X77988709Y-86808900D01*
X78083798Y-86781004D01*
X78184549Y-86751447D01*
X78278065Y-86703283D01*
X78365996Y-86657996D01*
X78366001Y-86657993D01*
X78371239Y-86655295D01*
X78536379Y-86525576D01*
X78674010Y-86366971D01*
X78694231Y-86332017D01*
X78776210Y-86190311D01*
X78776211Y-86190309D01*
X78779166Y-86185201D01*
X78848053Y-85986826D01*
X78878186Y-85779004D01*
X78873187Y-85670996D01*
X99129814Y-85670996D01*
X99139523Y-85880767D01*
X99188724Y-86084918D01*
X99191164Y-86090286D01*
X99191166Y-86090290D01*
X99236643Y-86190311D01*
X99275640Y-86276081D01*
X99397137Y-86447360D01*
X99401404Y-86451444D01*
X99401405Y-86451446D01*
X99544564Y-86588491D01*
X99544568Y-86588495D01*
X99548831Y-86592575D01*
X99725246Y-86706485D01*
X99730721Y-86708692D01*
X99730724Y-86708693D01*
X99914539Y-86782773D01*
X99914544Y-86782774D01*
X99920019Y-86784981D01*
X100126122Y-86825230D01*
X100131643Y-86825500D01*
X100686469Y-86825500D01*
X100843046Y-86810561D01*
X100848706Y-86808901D01*
X100848709Y-86808900D01*
X100943798Y-86781004D01*
X101044549Y-86751447D01*
X101138065Y-86703283D01*
X101225996Y-86657996D01*
X101226001Y-86657993D01*
X101231239Y-86655295D01*
X101396379Y-86525576D01*
X101534010Y-86366971D01*
X101554231Y-86332017D01*
X101636210Y-86190311D01*
X101636211Y-86190309D01*
X101639166Y-86185201D01*
X101708053Y-85986826D01*
X101718855Y-85912326D01*
X109047667Y-85912326D01*
X109100168Y-86108264D01*
X109103857Y-86118397D01*
X109199110Y-86322667D01*
X109204508Y-86332017D01*
X109333784Y-86516643D01*
X109340719Y-86524907D01*
X109500093Y-86684281D01*
X109508357Y-86691216D01*
X109659306Y-86796911D01*
X109702931Y-86851488D01*
X109710125Y-86920986D01*
X109678602Y-86983341D01*
X109633830Y-87013778D01*
X109510079Y-87062774D01*
X109510078Y-87062775D01*
X109502217Y-87065887D01*
X109382078Y-87157078D01*
X109376968Y-87163810D01*
X109321496Y-87236892D01*
X109290887Y-87277217D01*
X109287775Y-87285078D01*
X109287774Y-87285079D01*
X109238296Y-87410047D01*
X109235364Y-87417453D01*
X109224500Y-87507228D01*
X109224500Y-88792772D01*
X109235364Y-88882547D01*
X109290887Y-89022783D01*
X109382078Y-89142922D01*
X109388810Y-89148032D01*
X109408920Y-89163296D01*
X109502217Y-89234113D01*
X109510078Y-89237225D01*
X109510079Y-89237226D01*
X109635047Y-89286704D01*
X109635049Y-89286704D01*
X109642453Y-89289636D01*
X109650357Y-89290592D01*
X109650359Y-89290593D01*
X109703073Y-89296972D01*
X109732228Y-89300500D01*
X111267772Y-89300500D01*
X111296927Y-89296972D01*
X111349641Y-89290593D01*
X111349643Y-89290592D01*
X111357547Y-89289636D01*
X111364951Y-89286704D01*
X111364953Y-89286704D01*
X111489921Y-89237226D01*
X111489922Y-89237225D01*
X111497783Y-89234113D01*
X111591081Y-89163296D01*
X111611190Y-89148032D01*
X111617922Y-89142922D01*
X111709113Y-89022783D01*
X111764636Y-88882547D01*
X111775500Y-88792772D01*
X111775500Y-87507228D01*
X111764636Y-87417453D01*
X111761704Y-87410047D01*
X111712226Y-87285079D01*
X111712225Y-87285078D01*
X111709113Y-87277217D01*
X111678505Y-87236892D01*
X111623032Y-87163810D01*
X111617922Y-87157078D01*
X111497783Y-87065887D01*
X111489922Y-87062775D01*
X111489921Y-87062774D01*
X111366170Y-87013778D01*
X111311084Y-86970797D01*
X111287981Y-86904858D01*
X111304194Y-86836896D01*
X111340694Y-86796911D01*
X111491643Y-86691216D01*
X111499907Y-86684281D01*
X111659279Y-86524909D01*
X111666215Y-86516643D01*
X111795498Y-86332008D01*
X111800886Y-86322676D01*
X111896143Y-86118397D01*
X111899832Y-86108264D01*
X111951022Y-85917221D01*
X111950691Y-85903347D01*
X111942875Y-85900000D01*
X109062194Y-85900000D01*
X109048877Y-85903910D01*
X109047667Y-85912326D01*
X101718855Y-85912326D01*
X101738186Y-85779004D01*
X101728477Y-85569233D01*
X101704325Y-85469018D01*
X101683541Y-85382779D01*
X109048978Y-85382779D01*
X109049309Y-85396653D01*
X109057125Y-85400000D01*
X111937806Y-85400000D01*
X111951123Y-85396090D01*
X111952333Y-85387674D01*
X111899832Y-85191736D01*
X111896143Y-85181603D01*
X111800890Y-84977333D01*
X111795492Y-84967983D01*
X111666216Y-84783357D01*
X111659281Y-84775093D01*
X111499907Y-84615719D01*
X111491643Y-84608784D01*
X111307017Y-84479508D01*
X111297667Y-84474110D01*
X111143253Y-84402105D01*
X111090814Y-84355933D01*
X111071662Y-84288739D01*
X111091878Y-84221858D01*
X111140814Y-84178511D01*
X111223607Y-84137682D01*
X111223611Y-84137680D01*
X111228710Y-84135165D01*
X111398133Y-84008651D01*
X111401988Y-84004481D01*
X111401991Y-84004478D01*
X111510765Y-83886806D01*
X111541663Y-83853381D01*
X111555517Y-83831424D01*
X111651461Y-83679363D01*
X111651462Y-83679361D01*
X111654495Y-83674554D01*
X111732848Y-83478160D01*
X111737580Y-83454373D01*
X111753473Y-83374468D01*
X111774099Y-83270775D01*
X111774439Y-83244843D01*
X111776793Y-83065034D01*
X111776793Y-83065029D01*
X111776867Y-83059346D01*
X111772707Y-83035134D01*
X111742021Y-82856550D01*
X111742020Y-82856547D01*
X111741059Y-82850953D01*
X111667873Y-82652575D01*
X111663097Y-82644547D01*
X111562668Y-82475740D01*
X111562666Y-82475737D01*
X111559762Y-82470856D01*
X111420345Y-82311881D01*
X111415881Y-82308362D01*
X111415878Y-82308359D01*
X111286944Y-82206717D01*
X111254292Y-82180976D01*
X111067164Y-82082523D01*
X111061733Y-82080837D01*
X111061729Y-82080835D01*
X110953534Y-82047240D01*
X110865227Y-82019820D01*
X110864308Y-82019711D01*
X110804187Y-81987254D01*
X110770411Y-81926091D01*
X110775063Y-81856376D01*
X110816667Y-81800244D01*
X110857792Y-81779811D01*
X110866340Y-81777400D01*
X111039069Y-81728686D01*
X111228710Y-81635165D01*
X111398133Y-81508651D01*
X111401988Y-81504481D01*
X111401991Y-81504478D01*
X111461298Y-81440319D01*
X111541663Y-81353381D01*
X111549907Y-81340315D01*
X111651461Y-81179363D01*
X111651462Y-81179361D01*
X111654495Y-81174554D01*
X111732848Y-80978160D01*
X111737580Y-80954373D01*
X111765138Y-80815824D01*
X111774099Y-80770775D01*
X111774315Y-80754333D01*
X111776793Y-80565034D01*
X111776793Y-80565029D01*
X111776867Y-80559346D01*
X111775904Y-80553741D01*
X111742021Y-80356550D01*
X111742020Y-80356547D01*
X111741059Y-80350953D01*
X111667873Y-80152575D01*
X111664970Y-80147695D01*
X111562668Y-79975740D01*
X111562666Y-79975737D01*
X111559762Y-79970856D01*
X111420345Y-79811881D01*
X111415881Y-79808362D01*
X111415878Y-79808359D01*
X111307995Y-79723312D01*
X111254292Y-79680976D01*
X111067164Y-79582523D01*
X111061733Y-79580837D01*
X111061729Y-79580835D01*
X110870660Y-79521507D01*
X110865227Y-79519820D01*
X110859582Y-79519152D01*
X110859578Y-79519151D01*
X110753667Y-79506616D01*
X110693545Y-79499500D01*
X110321359Y-79499500D01*
X110164440Y-79513919D01*
X109960931Y-79571314D01*
X109771290Y-79664835D01*
X109601867Y-79791349D01*
X109598012Y-79795519D01*
X109598009Y-79795522D01*
X109556173Y-79840780D01*
X109458337Y-79946619D01*
X109455303Y-79951428D01*
X109455302Y-79951429D01*
X109367802Y-80090108D01*
X109345505Y-80125446D01*
X109267152Y-80321840D01*
X109266042Y-80327421D01*
X109266041Y-80327424D01*
X109257535Y-80370190D01*
X109225901Y-80529225D01*
X109225827Y-80534912D01*
X109225826Y-80534917D01*
X109223207Y-80734966D01*
X109223133Y-80740654D01*
X109224096Y-80746258D01*
X109224096Y-80746259D01*
X109251348Y-80904855D01*
X109258941Y-80949047D01*
X109332127Y-81147425D01*
X109335029Y-81152303D01*
X109335030Y-81152305D01*
X109436085Y-81322163D01*
X109440238Y-81329144D01*
X109579655Y-81488119D01*
X109584119Y-81491638D01*
X109584122Y-81491641D01*
X109658492Y-81550269D01*
X109745708Y-81619024D01*
X109932836Y-81717477D01*
X109938267Y-81719163D01*
X109938271Y-81719165D01*
X110022177Y-81745218D01*
X110134773Y-81780180D01*
X110135692Y-81780289D01*
X110195813Y-81812746D01*
X110229589Y-81873909D01*
X110224937Y-81943624D01*
X110183333Y-81999756D01*
X110142208Y-82020189D01*
X109960931Y-82071314D01*
X109771290Y-82164835D01*
X109601867Y-82291349D01*
X109598012Y-82295519D01*
X109598009Y-82295522D01*
X109573987Y-82321509D01*
X109458337Y-82446619D01*
X109455303Y-82451428D01*
X109455302Y-82451429D01*
X109383472Y-82565273D01*
X109345505Y-82625446D01*
X109267152Y-82821840D01*
X109266042Y-82827421D01*
X109266041Y-82827424D01*
X109261361Y-82850953D01*
X109225901Y-83029225D01*
X109225827Y-83034912D01*
X109225826Y-83034917D01*
X109223207Y-83234966D01*
X109223133Y-83240654D01*
X109224096Y-83246258D01*
X109224096Y-83246259D01*
X109239692Y-83337021D01*
X109258941Y-83449047D01*
X109332127Y-83647425D01*
X109335029Y-83652303D01*
X109335030Y-83652305D01*
X109401636Y-83764259D01*
X109440238Y-83829144D01*
X109579655Y-83988119D01*
X109584119Y-83991638D01*
X109584122Y-83991641D01*
X109610011Y-84012050D01*
X109745708Y-84119024D01*
X109861815Y-84180111D01*
X109911976Y-84228743D01*
X109927882Y-84296778D01*
X109904481Y-84362613D01*
X109856481Y-84402229D01*
X109702333Y-84474110D01*
X109692983Y-84479508D01*
X109508357Y-84608784D01*
X109500093Y-84615719D01*
X109340721Y-84775091D01*
X109333785Y-84783357D01*
X109204502Y-84967992D01*
X109199114Y-84977324D01*
X109103857Y-85181603D01*
X109100168Y-85191736D01*
X109048978Y-85382779D01*
X101683541Y-85382779D01*
X101680658Y-85370815D01*
X101680657Y-85370812D01*
X101679276Y-85365082D01*
X101633681Y-85264799D01*
X101594802Y-85179290D01*
X101592360Y-85173919D01*
X101470863Y-85002640D01*
X101444427Y-84977333D01*
X101323436Y-84861509D01*
X101323432Y-84861505D01*
X101319169Y-84857425D01*
X101142754Y-84743515D01*
X101137279Y-84741308D01*
X101137276Y-84741307D01*
X100953461Y-84667227D01*
X100953456Y-84667226D01*
X100947981Y-84665019D01*
X100741878Y-84624770D01*
X100736357Y-84624500D01*
X100181531Y-84624500D01*
X100024954Y-84639439D01*
X100019294Y-84641099D01*
X100019291Y-84641100D01*
X99924202Y-84668996D01*
X99823451Y-84698553D01*
X99818202Y-84701256D01*
X99818203Y-84701256D01*
X99642004Y-84792004D01*
X99641999Y-84792007D01*
X99636761Y-84794705D01*
X99471621Y-84924424D01*
X99467756Y-84928878D01*
X99467755Y-84928879D01*
X99425717Y-84977324D01*
X99333990Y-85083029D01*
X99228834Y-85264799D01*
X99159947Y-85463174D01*
X99129814Y-85670996D01*
X78873187Y-85670996D01*
X78868477Y-85569233D01*
X78844325Y-85469018D01*
X78820658Y-85370815D01*
X78820657Y-85370812D01*
X78819276Y-85365082D01*
X78773681Y-85264799D01*
X78734802Y-85179290D01*
X78732360Y-85173919D01*
X78610863Y-85002640D01*
X78584427Y-84977333D01*
X78463436Y-84861509D01*
X78463432Y-84861505D01*
X78459169Y-84857425D01*
X78282754Y-84743515D01*
X78277279Y-84741308D01*
X78277276Y-84741307D01*
X78093461Y-84667227D01*
X78093456Y-84667226D01*
X78087981Y-84665019D01*
X77881878Y-84624770D01*
X77876357Y-84624500D01*
X77321531Y-84624500D01*
X77164954Y-84639439D01*
X77159294Y-84641099D01*
X77159291Y-84641100D01*
X77064202Y-84668996D01*
X76963451Y-84698553D01*
X76958202Y-84701256D01*
X76958203Y-84701256D01*
X76782004Y-84792004D01*
X76781999Y-84792007D01*
X76776761Y-84794705D01*
X76611621Y-84924424D01*
X76607756Y-84928878D01*
X76607755Y-84928879D01*
X76565717Y-84977324D01*
X76473990Y-85083029D01*
X76368834Y-85264799D01*
X76299947Y-85463174D01*
X76269814Y-85670996D01*
X56100500Y-85670996D01*
X56100500Y-84672218D01*
X67786404Y-84672218D01*
X67796129Y-84684509D01*
X67842270Y-84715339D01*
X67852228Y-84720746D01*
X68036642Y-84799976D01*
X68047414Y-84803476D01*
X68243180Y-84847774D01*
X68254410Y-84849252D01*
X68454974Y-84857133D01*
X68466277Y-84856541D01*
X68664924Y-84827738D01*
X68675937Y-84825093D01*
X68865995Y-84760578D01*
X68876347Y-84755969D01*
X69005707Y-84683524D01*
X69015414Y-84673607D01*
X69012506Y-84666059D01*
X68412607Y-84066160D01*
X68398887Y-84058668D01*
X68397081Y-84058797D01*
X68390574Y-84062979D01*
X67792500Y-84661053D01*
X67786404Y-84672218D01*
X56100500Y-84672218D01*
X56100500Y-83675346D01*
X67241826Y-83675346D01*
X67254953Y-83875624D01*
X67256724Y-83886806D01*
X67306134Y-84081362D01*
X67309907Y-84092017D01*
X67393947Y-84274314D01*
X67399603Y-84284110D01*
X67415290Y-84306307D01*
X67425712Y-84314563D01*
X67438800Y-84307647D01*
X68033840Y-83712607D01*
X68040116Y-83701113D01*
X68758668Y-83701113D01*
X68758797Y-83702919D01*
X68762979Y-83709426D01*
X69362207Y-84308654D01*
X69374388Y-84315305D01*
X69380864Y-84310457D01*
X69455969Y-84176347D01*
X69460578Y-84165995D01*
X69525093Y-83975937D01*
X69527738Y-83964924D01*
X69556833Y-83764259D01*
X69557451Y-83757014D01*
X69558848Y-83703653D01*
X69558609Y-83696359D01*
X69540057Y-83494459D01*
X69537993Y-83483326D01*
X69483510Y-83290144D01*
X69479453Y-83279573D01*
X69406183Y-83130996D01*
X76269814Y-83130996D01*
X76279523Y-83340767D01*
X76280905Y-83346500D01*
X76313910Y-83483448D01*
X76328724Y-83544918D01*
X76331164Y-83550286D01*
X76331166Y-83550290D01*
X76388026Y-83675346D01*
X76415640Y-83736081D01*
X76537137Y-83907360D01*
X76541404Y-83911444D01*
X76541405Y-83911446D01*
X76684564Y-84048491D01*
X76684568Y-84048495D01*
X76688831Y-84052575D01*
X76865246Y-84166485D01*
X76870721Y-84168692D01*
X76870724Y-84168693D01*
X77054539Y-84242773D01*
X77054544Y-84242774D01*
X77060019Y-84244981D01*
X77266122Y-84285230D01*
X77271643Y-84285500D01*
X77826469Y-84285500D01*
X77983046Y-84270561D01*
X77988706Y-84268901D01*
X77988709Y-84268900D01*
X78083797Y-84241004D01*
X78184549Y-84211447D01*
X78211336Y-84197651D01*
X78365996Y-84117996D01*
X78366001Y-84117993D01*
X78371239Y-84115295D01*
X78536379Y-83985576D01*
X78647470Y-83857556D01*
X78670146Y-83831424D01*
X78670147Y-83831423D01*
X78674010Y-83826971D01*
X78745351Y-83703653D01*
X78776210Y-83650311D01*
X78776211Y-83650309D01*
X78779166Y-83645201D01*
X78848053Y-83446826D01*
X78878186Y-83239004D01*
X78873187Y-83130996D01*
X99129814Y-83130996D01*
X99139523Y-83340767D01*
X99140905Y-83346500D01*
X99173910Y-83483448D01*
X99188724Y-83544918D01*
X99191164Y-83550286D01*
X99191166Y-83550290D01*
X99248026Y-83675346D01*
X99275640Y-83736081D01*
X99397137Y-83907360D01*
X99401404Y-83911444D01*
X99401405Y-83911446D01*
X99544564Y-84048491D01*
X99544568Y-84048495D01*
X99548831Y-84052575D01*
X99725246Y-84166485D01*
X99730721Y-84168692D01*
X99730724Y-84168693D01*
X99914539Y-84242773D01*
X99914544Y-84242774D01*
X99920019Y-84244981D01*
X100126122Y-84285230D01*
X100131643Y-84285500D01*
X100686469Y-84285500D01*
X100843046Y-84270561D01*
X100848706Y-84268901D01*
X100848709Y-84268900D01*
X100943797Y-84241004D01*
X101044549Y-84211447D01*
X101071336Y-84197651D01*
X101225996Y-84117996D01*
X101226001Y-84117993D01*
X101231239Y-84115295D01*
X101396379Y-83985576D01*
X101507470Y-83857556D01*
X101530146Y-83831424D01*
X101530147Y-83831423D01*
X101534010Y-83826971D01*
X101605351Y-83703653D01*
X101636210Y-83650311D01*
X101636211Y-83650309D01*
X101639166Y-83645201D01*
X101708053Y-83446826D01*
X101738186Y-83239004D01*
X101728477Y-83029233D01*
X101704325Y-82929018D01*
X101680658Y-82830815D01*
X101680657Y-82830812D01*
X101679276Y-82825082D01*
X101633681Y-82724799D01*
X101594802Y-82639290D01*
X101592360Y-82633919D01*
X101470863Y-82462640D01*
X101459152Y-82451429D01*
X101323436Y-82321509D01*
X101323432Y-82321505D01*
X101319169Y-82317425D01*
X101142754Y-82203515D01*
X101137279Y-82201308D01*
X101137276Y-82201307D01*
X100953461Y-82127227D01*
X100953456Y-82127226D01*
X100947981Y-82125019D01*
X100741878Y-82084770D01*
X100736357Y-82084500D01*
X100181531Y-82084500D01*
X100024954Y-82099439D01*
X100019294Y-82101099D01*
X100019291Y-82101100D01*
X99924203Y-82128996D01*
X99823451Y-82158553D01*
X99796664Y-82172349D01*
X99642004Y-82252004D01*
X99641999Y-82252007D01*
X99636761Y-82254705D01*
X99471621Y-82384424D01*
X99467756Y-82388878D01*
X99467755Y-82388879D01*
X99380964Y-82488897D01*
X99333990Y-82543029D01*
X99331037Y-82548134D01*
X99331036Y-82548135D01*
X99273440Y-82647695D01*
X99228834Y-82724799D01*
X99159947Y-82923174D01*
X99129814Y-83130996D01*
X78873187Y-83130996D01*
X78868477Y-83029233D01*
X78844325Y-82929018D01*
X78820658Y-82830815D01*
X78820657Y-82830812D01*
X78819276Y-82825082D01*
X78773681Y-82724799D01*
X78734802Y-82639290D01*
X78732360Y-82633919D01*
X78610863Y-82462640D01*
X78599152Y-82451429D01*
X78463436Y-82321509D01*
X78463432Y-82321505D01*
X78459169Y-82317425D01*
X78282754Y-82203515D01*
X78277279Y-82201308D01*
X78277276Y-82201307D01*
X78093461Y-82127227D01*
X78093456Y-82127226D01*
X78087981Y-82125019D01*
X77881878Y-82084770D01*
X77876357Y-82084500D01*
X77321531Y-82084500D01*
X77164954Y-82099439D01*
X77159294Y-82101099D01*
X77159291Y-82101100D01*
X77064203Y-82128996D01*
X76963451Y-82158553D01*
X76936664Y-82172349D01*
X76782004Y-82252004D01*
X76781999Y-82252007D01*
X76776761Y-82254705D01*
X76611621Y-82384424D01*
X76607756Y-82388878D01*
X76607755Y-82388879D01*
X76520964Y-82488897D01*
X76473990Y-82543029D01*
X76471037Y-82548134D01*
X76471036Y-82548135D01*
X76413440Y-82647695D01*
X76368834Y-82724799D01*
X76299947Y-82923174D01*
X76269814Y-83130996D01*
X69406183Y-83130996D01*
X69390678Y-83099556D01*
X69385858Y-83091689D01*
X69375326Y-83083785D01*
X69363104Y-83090449D01*
X68766160Y-83687393D01*
X68758668Y-83701113D01*
X68040116Y-83701113D01*
X68041332Y-83698887D01*
X68041203Y-83697081D01*
X68037021Y-83690574D01*
X67436227Y-83089780D01*
X67424046Y-83083129D01*
X67418174Y-83087525D01*
X67331923Y-83251458D01*
X67327589Y-83261920D01*
X67268066Y-83453619D01*
X67265714Y-83464686D01*
X67242122Y-83664006D01*
X67241826Y-83675346D01*
X56100500Y-83675346D01*
X56100500Y-81686609D01*
X67440975Y-81686609D01*
X67456639Y-81873139D01*
X67508235Y-82053075D01*
X67511008Y-82058470D01*
X67511008Y-82058471D01*
X67524385Y-82084500D01*
X67593797Y-82219562D01*
X67597565Y-82224316D01*
X67671363Y-82317425D01*
X67710068Y-82366259D01*
X67747710Y-82398295D01*
X67852618Y-82487579D01*
X67851497Y-82488897D01*
X67890162Y-82536924D01*
X67897598Y-82606397D01*
X67866294Y-82668862D01*
X67838980Y-82690889D01*
X67795027Y-82717038D01*
X67785583Y-82727206D01*
X67789013Y-82735460D01*
X68387393Y-83333840D01*
X68401113Y-83341332D01*
X68402919Y-83341203D01*
X68409426Y-83337021D01*
X69007306Y-82739141D01*
X69013957Y-82726960D01*
X69008020Y-82719029D01*
X68956891Y-82686768D01*
X68910698Y-82634347D01*
X68900180Y-82565273D01*
X68928675Y-82501479D01*
X68946711Y-82484192D01*
X69061427Y-82394566D01*
X69183738Y-82252867D01*
X69276198Y-82090108D01*
X69310413Y-81987254D01*
X69333370Y-81918243D01*
X69333371Y-81918239D01*
X69335283Y-81912491D01*
X69349463Y-81800244D01*
X69358309Y-81730224D01*
X69358309Y-81730223D01*
X69358744Y-81726780D01*
X69359033Y-81706113D01*
X69359070Y-81703461D01*
X69359070Y-81703455D01*
X69359118Y-81700000D01*
X69346891Y-81575295D01*
X69341444Y-81519742D01*
X69341444Y-81519740D01*
X69340852Y-81513706D01*
X69286749Y-81334509D01*
X69198870Y-81169232D01*
X69194147Y-81163440D01*
X69084397Y-81028875D01*
X69084396Y-81028874D01*
X69080562Y-81024173D01*
X68945461Y-80912407D01*
X68941007Y-80908722D01*
X68941004Y-80908720D01*
X68936332Y-80904855D01*
X68889725Y-80879654D01*
X68777004Y-80818706D01*
X68777000Y-80818704D01*
X68771673Y-80815824D01*
X68765886Y-80814033D01*
X68765361Y-80813812D01*
X68711188Y-80769687D01*
X68689471Y-80703278D01*
X68707106Y-80635670D01*
X68755166Y-80590996D01*
X76269814Y-80590996D01*
X76279523Y-80800767D01*
X76302146Y-80894636D01*
X76323550Y-80983448D01*
X76328724Y-81004918D01*
X76331164Y-81010286D01*
X76331166Y-81010290D01*
X76393518Y-81147425D01*
X76415640Y-81196081D01*
X76510036Y-81329154D01*
X76530183Y-81357556D01*
X76537137Y-81367360D01*
X76541404Y-81371444D01*
X76541405Y-81371446D01*
X76684564Y-81508491D01*
X76684568Y-81508495D01*
X76688831Y-81512575D01*
X76865246Y-81626485D01*
X76870721Y-81628692D01*
X76870724Y-81628693D01*
X77054539Y-81702773D01*
X77054544Y-81702774D01*
X77060019Y-81704981D01*
X77266122Y-81745230D01*
X77271643Y-81745500D01*
X77826469Y-81745500D01*
X77983046Y-81730561D01*
X77988706Y-81728901D01*
X77988709Y-81728900D01*
X78112257Y-81692655D01*
X78184549Y-81671447D01*
X78278065Y-81623283D01*
X78365996Y-81577996D01*
X78366001Y-81577993D01*
X78371239Y-81575295D01*
X78536379Y-81445576D01*
X78627720Y-81340315D01*
X78670146Y-81291424D01*
X78670147Y-81291423D01*
X78674010Y-81286971D01*
X78729698Y-81190710D01*
X78776210Y-81110311D01*
X78776211Y-81110309D01*
X78779166Y-81105201D01*
X78848053Y-80906826D01*
X78878186Y-80699004D01*
X78873187Y-80590996D01*
X99129814Y-80590996D01*
X99139523Y-80800767D01*
X99162146Y-80894636D01*
X99183550Y-80983448D01*
X99188724Y-81004918D01*
X99191164Y-81010286D01*
X99191166Y-81010290D01*
X99253518Y-81147425D01*
X99275640Y-81196081D01*
X99370036Y-81329154D01*
X99390183Y-81357556D01*
X99397137Y-81367360D01*
X99401404Y-81371444D01*
X99401405Y-81371446D01*
X99544564Y-81508491D01*
X99544568Y-81508495D01*
X99548831Y-81512575D01*
X99725246Y-81626485D01*
X99730721Y-81628692D01*
X99730724Y-81628693D01*
X99914539Y-81702773D01*
X99914544Y-81702774D01*
X99920019Y-81704981D01*
X100126122Y-81745230D01*
X100131643Y-81745500D01*
X100686469Y-81745500D01*
X100843046Y-81730561D01*
X100848706Y-81728901D01*
X100848709Y-81728900D01*
X100972257Y-81692655D01*
X101044549Y-81671447D01*
X101138065Y-81623283D01*
X101225996Y-81577996D01*
X101226001Y-81577993D01*
X101231239Y-81575295D01*
X101396379Y-81445576D01*
X101487720Y-81340315D01*
X101530146Y-81291424D01*
X101530147Y-81291423D01*
X101534010Y-81286971D01*
X101589698Y-81190710D01*
X101636210Y-81110311D01*
X101636211Y-81110309D01*
X101639166Y-81105201D01*
X101708053Y-80906826D01*
X101738186Y-80699004D01*
X101728477Y-80489233D01*
X101704325Y-80389018D01*
X101680658Y-80290815D01*
X101680657Y-80290812D01*
X101679276Y-80285082D01*
X101662231Y-80247592D01*
X101594802Y-80099290D01*
X101592360Y-80093919D01*
X101470863Y-79922640D01*
X101466270Y-79918243D01*
X101323436Y-79781509D01*
X101323432Y-79781505D01*
X101319169Y-79777425D01*
X101142754Y-79663515D01*
X101137279Y-79661308D01*
X101137276Y-79661307D01*
X100953461Y-79587227D01*
X100953456Y-79587226D01*
X100947981Y-79585019D01*
X100741878Y-79544770D01*
X100736357Y-79544500D01*
X100181531Y-79544500D01*
X100024954Y-79559439D01*
X100019294Y-79561099D01*
X100019291Y-79561100D01*
X99924203Y-79588996D01*
X99823451Y-79618553D01*
X99818202Y-79621256D01*
X99818203Y-79621256D01*
X99642004Y-79712004D01*
X99641999Y-79712007D01*
X99636761Y-79714705D01*
X99471621Y-79844424D01*
X99333990Y-80003029D01*
X99228834Y-80184799D01*
X99159947Y-80383174D01*
X99129814Y-80590996D01*
X78873187Y-80590996D01*
X78868477Y-80489233D01*
X78844325Y-80389018D01*
X78820658Y-80290815D01*
X78820657Y-80290812D01*
X78819276Y-80285082D01*
X78802231Y-80247592D01*
X78734802Y-80099290D01*
X78732360Y-80093919D01*
X78610863Y-79922640D01*
X78606270Y-79918243D01*
X78463436Y-79781509D01*
X78463432Y-79781505D01*
X78459169Y-79777425D01*
X78282754Y-79663515D01*
X78277279Y-79661308D01*
X78277276Y-79661307D01*
X78093461Y-79587227D01*
X78093456Y-79587226D01*
X78087981Y-79585019D01*
X77881878Y-79544770D01*
X77876357Y-79544500D01*
X77321531Y-79544500D01*
X77164954Y-79559439D01*
X77159294Y-79561099D01*
X77159291Y-79561100D01*
X77064203Y-79588996D01*
X76963451Y-79618553D01*
X76958202Y-79621256D01*
X76958203Y-79621256D01*
X76782004Y-79712004D01*
X76781999Y-79712007D01*
X76776761Y-79714705D01*
X76611621Y-79844424D01*
X76473990Y-80003029D01*
X76368834Y-80184799D01*
X76299947Y-80383174D01*
X76269814Y-80590996D01*
X68755166Y-80590996D01*
X68757505Y-80588822D01*
X68913921Y-80509810D01*
X68918703Y-80506074D01*
X69056647Y-80398301D01*
X69056650Y-80398298D01*
X69061427Y-80394566D01*
X69183738Y-80252867D01*
X69276198Y-80090108D01*
X69315868Y-79970856D01*
X69333370Y-79918243D01*
X69333371Y-79918239D01*
X69335283Y-79912491D01*
X69358744Y-79726780D01*
X69359118Y-79700000D01*
X69347733Y-79583887D01*
X69341444Y-79519742D01*
X69341444Y-79519740D01*
X69340852Y-79513706D01*
X69286749Y-79334509D01*
X69198870Y-79169232D01*
X69194147Y-79163440D01*
X69084397Y-79028875D01*
X69084396Y-79028874D01*
X69080562Y-79024173D01*
X69018191Y-78972575D01*
X68941007Y-78908722D01*
X68941004Y-78908720D01*
X68936332Y-78904855D01*
X68904375Y-78887576D01*
X68854767Y-78838376D01*
X68839633Y-78770165D01*
X68863780Y-78704600D01*
X68919540Y-78662498D01*
X68963353Y-78654500D01*
X69098646Y-78654500D01*
X69102300Y-78654065D01*
X69102302Y-78654065D01*
X69107266Y-78653474D01*
X69124846Y-78651382D01*
X69227153Y-78605939D01*
X69306241Y-78526713D01*
X69333561Y-78464918D01*
X69347737Y-78432853D01*
X69347738Y-78432851D01*
X69351506Y-78424327D01*
X69354500Y-78398646D01*
X69354500Y-78050996D01*
X76269814Y-78050996D01*
X76279523Y-78260767D01*
X76280905Y-78266500D01*
X76319067Y-78424846D01*
X76328724Y-78464918D01*
X76331164Y-78470286D01*
X76331166Y-78470290D01*
X76376643Y-78570311D01*
X76415640Y-78656081D01*
X76537137Y-78827360D01*
X76541404Y-78831444D01*
X76541405Y-78831446D01*
X76684564Y-78968491D01*
X76684568Y-78968495D01*
X76688831Y-78972575D01*
X76865246Y-79086485D01*
X76870721Y-79088692D01*
X76870724Y-79088693D01*
X77054539Y-79162773D01*
X77054544Y-79162774D01*
X77060019Y-79164981D01*
X77266122Y-79205230D01*
X77271643Y-79205500D01*
X77826469Y-79205500D01*
X77983046Y-79190561D01*
X77988706Y-79188901D01*
X77988709Y-79188900D01*
X78109421Y-79153487D01*
X78184549Y-79131447D01*
X78278065Y-79083283D01*
X78365996Y-79037996D01*
X78366001Y-79037993D01*
X78371239Y-79035295D01*
X78536379Y-78905576D01*
X78576186Y-78859703D01*
X78670146Y-78751424D01*
X78670147Y-78751423D01*
X78674010Y-78746971D01*
X78727757Y-78654065D01*
X78776210Y-78570311D01*
X78776211Y-78570309D01*
X78779166Y-78565201D01*
X78848053Y-78366826D01*
X78878186Y-78159004D01*
X78873187Y-78050996D01*
X99129814Y-78050996D01*
X99139523Y-78260767D01*
X99140905Y-78266500D01*
X99179067Y-78424846D01*
X99188724Y-78464918D01*
X99191164Y-78470286D01*
X99191166Y-78470290D01*
X99236643Y-78570311D01*
X99275640Y-78656081D01*
X99397137Y-78827360D01*
X99401404Y-78831444D01*
X99401405Y-78831446D01*
X99544564Y-78968491D01*
X99544568Y-78968495D01*
X99548831Y-78972575D01*
X99725246Y-79086485D01*
X99730721Y-79088692D01*
X99730724Y-79088693D01*
X99914539Y-79162773D01*
X99914544Y-79162774D01*
X99920019Y-79164981D01*
X100126122Y-79205230D01*
X100131643Y-79205500D01*
X100686469Y-79205500D01*
X100843046Y-79190561D01*
X100848706Y-79188901D01*
X100848709Y-79188900D01*
X100969421Y-79153487D01*
X101044549Y-79131447D01*
X101138065Y-79083283D01*
X101225996Y-79037996D01*
X101226001Y-79037993D01*
X101231239Y-79035295D01*
X101396379Y-78905576D01*
X101436186Y-78859703D01*
X101530146Y-78751424D01*
X101530147Y-78751423D01*
X101534010Y-78746971D01*
X101587757Y-78654065D01*
X101636210Y-78570311D01*
X101636211Y-78570309D01*
X101639166Y-78565201D01*
X101708053Y-78366826D01*
X101738186Y-78159004D01*
X101728477Y-77949233D01*
X101704325Y-77849018D01*
X101680658Y-77750815D01*
X101680657Y-77750812D01*
X101679276Y-77745082D01*
X101633681Y-77644799D01*
X101594802Y-77559290D01*
X101592360Y-77553919D01*
X101470863Y-77382640D01*
X101466595Y-77378554D01*
X101323436Y-77241509D01*
X101323432Y-77241505D01*
X101319169Y-77237425D01*
X101142754Y-77123515D01*
X101137279Y-77121308D01*
X101137276Y-77121307D01*
X100953461Y-77047227D01*
X100953456Y-77047226D01*
X100947981Y-77045019D01*
X100741878Y-77004770D01*
X100736357Y-77004500D01*
X100181531Y-77004500D01*
X100024954Y-77019439D01*
X100019294Y-77021099D01*
X100019291Y-77021100D01*
X99924202Y-77048996D01*
X99823451Y-77078553D01*
X99818202Y-77081256D01*
X99818203Y-77081256D01*
X99642004Y-77172004D01*
X99641999Y-77172007D01*
X99636761Y-77174705D01*
X99471621Y-77304424D01*
X99333990Y-77463029D01*
X99228834Y-77644799D01*
X99159947Y-77843174D01*
X99129814Y-78050996D01*
X78873187Y-78050996D01*
X78868477Y-77949233D01*
X78844325Y-77849018D01*
X78820658Y-77750815D01*
X78820657Y-77750812D01*
X78819276Y-77745082D01*
X78773681Y-77644799D01*
X78734802Y-77559290D01*
X78732360Y-77553919D01*
X78610863Y-77382640D01*
X78606595Y-77378554D01*
X78463436Y-77241509D01*
X78463432Y-77241505D01*
X78459169Y-77237425D01*
X78282754Y-77123515D01*
X78277279Y-77121308D01*
X78277276Y-77121307D01*
X78235599Y-77104511D01*
X78180777Y-77061194D01*
X78158077Y-76995115D01*
X78174706Y-76927253D01*
X78225384Y-76879154D01*
X78281950Y-76865500D01*
X78618646Y-76865500D01*
X78622300Y-76865065D01*
X78622302Y-76865065D01*
X78627266Y-76864474D01*
X78644846Y-76862382D01*
X78747153Y-76816939D01*
X78826241Y-76737713D01*
X78830871Y-76727241D01*
X78867737Y-76643853D01*
X78867738Y-76643851D01*
X78871506Y-76635327D01*
X78874500Y-76609646D01*
X78874500Y-75510996D01*
X99129814Y-75510996D01*
X99139523Y-75720767D01*
X99188724Y-75924918D01*
X99191164Y-75930286D01*
X99191166Y-75930290D01*
X99236643Y-76030311D01*
X99275640Y-76116081D01*
X99397137Y-76287360D01*
X99401404Y-76291444D01*
X99401405Y-76291446D01*
X99544564Y-76428491D01*
X99544568Y-76428495D01*
X99548831Y-76432575D01*
X99725246Y-76546485D01*
X99730721Y-76548692D01*
X99730724Y-76548693D01*
X99914539Y-76622773D01*
X99914544Y-76622774D01*
X99920019Y-76624981D01*
X100126122Y-76665230D01*
X100131643Y-76665500D01*
X100686469Y-76665500D01*
X100843046Y-76650561D01*
X100848706Y-76648901D01*
X100848709Y-76648900D01*
X100970358Y-76613212D01*
X101044549Y-76591447D01*
X101138065Y-76543283D01*
X101225996Y-76497996D01*
X101226001Y-76497993D01*
X101231239Y-76495295D01*
X101396379Y-76365576D01*
X101534010Y-76206971D01*
X101639166Y-76025201D01*
X101708053Y-75826826D01*
X101738186Y-75619004D01*
X101728477Y-75409233D01*
X101704325Y-75309018D01*
X101680658Y-75210815D01*
X101680657Y-75210812D01*
X101679276Y-75205082D01*
X101633681Y-75104799D01*
X101594802Y-75019290D01*
X101592360Y-75013919D01*
X101470863Y-74842640D01*
X101466595Y-74838554D01*
X101323436Y-74701509D01*
X101323432Y-74701505D01*
X101319169Y-74697425D01*
X101142754Y-74583515D01*
X101137279Y-74581308D01*
X101137276Y-74581307D01*
X100953461Y-74507227D01*
X100953456Y-74507226D01*
X100947981Y-74505019D01*
X100741878Y-74464770D01*
X100736357Y-74464500D01*
X100181531Y-74464500D01*
X100024954Y-74479439D01*
X100019294Y-74481099D01*
X100019291Y-74481100D01*
X99924203Y-74508996D01*
X99823451Y-74538553D01*
X99818202Y-74541256D01*
X99818203Y-74541256D01*
X99642004Y-74632004D01*
X99641999Y-74632007D01*
X99636761Y-74634705D01*
X99471621Y-74764424D01*
X99333990Y-74923029D01*
X99228834Y-75104799D01*
X99159947Y-75303174D01*
X99129814Y-75510996D01*
X78874500Y-75510996D01*
X78874500Y-74520354D01*
X78871382Y-74494154D01*
X78825939Y-74391847D01*
X78746713Y-74312759D01*
X78736242Y-74308130D01*
X78736241Y-74308129D01*
X78652853Y-74271263D01*
X78652851Y-74271262D01*
X78644327Y-74267494D01*
X78618646Y-74264500D01*
X76529354Y-74264500D01*
X76525700Y-74264935D01*
X76525698Y-74264935D01*
X76520734Y-74265526D01*
X76503154Y-74267618D01*
X76400847Y-74313061D01*
X76321759Y-74392287D01*
X76317130Y-74402758D01*
X76317129Y-74402759D01*
X76282495Y-74481100D01*
X76276494Y-74494673D01*
X76273500Y-74520354D01*
X76273500Y-76609646D01*
X76276618Y-76635846D01*
X76322061Y-76738153D01*
X76401287Y-76817241D01*
X76411758Y-76821870D01*
X76411759Y-76821871D01*
X76495147Y-76858737D01*
X76495149Y-76858738D01*
X76503673Y-76862506D01*
X76529354Y-76865500D01*
X76865541Y-76865500D01*
X76932580Y-76885185D01*
X76978335Y-76937989D01*
X76988279Y-77007147D01*
X76959254Y-77070703D01*
X76922317Y-77099738D01*
X76782008Y-77172002D01*
X76782005Y-77172004D01*
X76776761Y-77174705D01*
X76611621Y-77304424D01*
X76473990Y-77463029D01*
X76368834Y-77644799D01*
X76299947Y-77843174D01*
X76269814Y-78050996D01*
X69354500Y-78050996D01*
X69354500Y-77001354D01*
X69351382Y-76975154D01*
X69305939Y-76872847D01*
X69226713Y-76793759D01*
X69216242Y-76789130D01*
X69216241Y-76789129D01*
X69132853Y-76752263D01*
X69132851Y-76752262D01*
X69124327Y-76748494D01*
X69098646Y-76745500D01*
X67701354Y-76745500D01*
X67697700Y-76745935D01*
X67697698Y-76745935D01*
X67695136Y-76746240D01*
X67675154Y-76748618D01*
X67572847Y-76794061D01*
X67493759Y-76873287D01*
X67489130Y-76883758D01*
X67489129Y-76883759D01*
X67469901Y-76927253D01*
X67448494Y-76975673D01*
X67445500Y-77001354D01*
X67445500Y-78398646D01*
X67448618Y-78424846D01*
X67494061Y-78527153D01*
X67573287Y-78606241D01*
X67583758Y-78610870D01*
X67583759Y-78610871D01*
X67667147Y-78647737D01*
X67667149Y-78647738D01*
X67675673Y-78651506D01*
X67701354Y-78654500D01*
X67834694Y-78654500D01*
X67901733Y-78674185D01*
X67947488Y-78726989D01*
X67957432Y-78796147D01*
X67928407Y-78859703D01*
X67892144Y-78888388D01*
X67874822Y-78897444D01*
X67728940Y-79014736D01*
X67608619Y-79158130D01*
X67518441Y-79322163D01*
X67461841Y-79500588D01*
X67459684Y-79519820D01*
X67443036Y-79668238D01*
X67440975Y-79686609D01*
X67456639Y-79873139D01*
X67508235Y-80053075D01*
X67511008Y-80058470D01*
X67511008Y-80058471D01*
X67526753Y-80089107D01*
X67593797Y-80219562D01*
X67597565Y-80224316D01*
X67697937Y-80350953D01*
X67710068Y-80366259D01*
X67852618Y-80487579D01*
X68016018Y-80578900D01*
X68021788Y-80580775D01*
X68021793Y-80580777D01*
X68024594Y-80581687D01*
X68025864Y-80582555D01*
X68027344Y-80583202D01*
X68027221Y-80583483D01*
X68082267Y-80621127D01*
X68109462Y-80685487D01*
X68097545Y-80754333D01*
X68050298Y-80805806D01*
X68040656Y-80810622D01*
X68040708Y-80810721D01*
X67874822Y-80897444D01*
X67856212Y-80912407D01*
X67734470Y-81010290D01*
X67728940Y-81014736D01*
X67608619Y-81158130D01*
X67518441Y-81322163D01*
X67461841Y-81500588D01*
X67455406Y-81557953D01*
X67442676Y-81671447D01*
X67440975Y-81686609D01*
X56100500Y-81686609D01*
X56100500Y-61953641D01*
X82849500Y-61953641D01*
X82863919Y-62110560D01*
X82921314Y-62314069D01*
X83014835Y-62503710D01*
X83141349Y-62673133D01*
X83145519Y-62676988D01*
X83145522Y-62676991D01*
X83169432Y-62699093D01*
X83296619Y-62816663D01*
X83301428Y-62819697D01*
X83301429Y-62819698D01*
X83417482Y-62892922D01*
X83475446Y-62929495D01*
X83671840Y-63007848D01*
X83677421Y-63008958D01*
X83677424Y-63008959D01*
X83775532Y-63028473D01*
X83879225Y-63049099D01*
X83884912Y-63049173D01*
X83884917Y-63049174D01*
X84084966Y-63051793D01*
X84084971Y-63051793D01*
X84090654Y-63051867D01*
X84096258Y-63050904D01*
X84096259Y-63050904D01*
X84293450Y-63017021D01*
X84293453Y-63017020D01*
X84299047Y-63016059D01*
X84497425Y-62942873D01*
X84511867Y-62934281D01*
X84674260Y-62837668D01*
X84674263Y-62837666D01*
X84679144Y-62834762D01*
X84838119Y-62695345D01*
X84841638Y-62690881D01*
X84841641Y-62690878D01*
X84935301Y-62572069D01*
X84969024Y-62529292D01*
X85067477Y-62342164D01*
X85130180Y-62140227D01*
X85130289Y-62139308D01*
X85162746Y-62079187D01*
X85223909Y-62045411D01*
X85293624Y-62050063D01*
X85349756Y-62091667D01*
X85370189Y-62132792D01*
X85421314Y-62314069D01*
X85514835Y-62503710D01*
X85641349Y-62673133D01*
X85645519Y-62676988D01*
X85645522Y-62676991D01*
X85669432Y-62699093D01*
X85796619Y-62816663D01*
X85801428Y-62819697D01*
X85801429Y-62819698D01*
X85917482Y-62892922D01*
X85975446Y-62929495D01*
X86171840Y-63007848D01*
X86177421Y-63008958D01*
X86177424Y-63008959D01*
X86275532Y-63028473D01*
X86379225Y-63049099D01*
X86384912Y-63049173D01*
X86384917Y-63049174D01*
X86584966Y-63051793D01*
X86584971Y-63051793D01*
X86590654Y-63051867D01*
X86596258Y-63050904D01*
X86596259Y-63050904D01*
X86793450Y-63017021D01*
X86793453Y-63017020D01*
X86799047Y-63016059D01*
X86997425Y-62942873D01*
X87011867Y-62934281D01*
X87174260Y-62837668D01*
X87174263Y-62837666D01*
X87179144Y-62834762D01*
X87338119Y-62695345D01*
X87341638Y-62690881D01*
X87341641Y-62690878D01*
X87435301Y-62572069D01*
X87469024Y-62529292D01*
X87567477Y-62342164D01*
X87630180Y-62140227D01*
X87630289Y-62139308D01*
X87662746Y-62079187D01*
X87723909Y-62045411D01*
X87793624Y-62050063D01*
X87849756Y-62091667D01*
X87870189Y-62132792D01*
X87921314Y-62314069D01*
X88014835Y-62503710D01*
X88141349Y-62673133D01*
X88145519Y-62676988D01*
X88145522Y-62676991D01*
X88169432Y-62699093D01*
X88296619Y-62816663D01*
X88301428Y-62819697D01*
X88301429Y-62819698D01*
X88417482Y-62892922D01*
X88475446Y-62929495D01*
X88671840Y-63007848D01*
X88677421Y-63008958D01*
X88677424Y-63008959D01*
X88775532Y-63028473D01*
X88879225Y-63049099D01*
X88884912Y-63049173D01*
X88884917Y-63049174D01*
X89084966Y-63051793D01*
X89084971Y-63051793D01*
X89090654Y-63051867D01*
X89096258Y-63050904D01*
X89096259Y-63050904D01*
X89293450Y-63017021D01*
X89293453Y-63017020D01*
X89299047Y-63016059D01*
X89497425Y-62942873D01*
X89511867Y-62934281D01*
X89674260Y-62837668D01*
X89674263Y-62837666D01*
X89679144Y-62834762D01*
X89838119Y-62695345D01*
X89841638Y-62690881D01*
X89841641Y-62690878D01*
X89935301Y-62572069D01*
X89969024Y-62529292D01*
X90030111Y-62413185D01*
X90078743Y-62363024D01*
X90146778Y-62347118D01*
X90212613Y-62370519D01*
X90252229Y-62418519D01*
X90324110Y-62572667D01*
X90329508Y-62582017D01*
X90458784Y-62766643D01*
X90465719Y-62774907D01*
X90625091Y-62934279D01*
X90633357Y-62941215D01*
X90817992Y-63070498D01*
X90827324Y-63075886D01*
X91031603Y-63171143D01*
X91041736Y-63174832D01*
X91232779Y-63226022D01*
X91246653Y-63225691D01*
X91250000Y-63217875D01*
X91250000Y-63212806D01*
X91750000Y-63212806D01*
X91753910Y-63226123D01*
X91762326Y-63227333D01*
X91958264Y-63174832D01*
X91968397Y-63171143D01*
X92172667Y-63075890D01*
X92182017Y-63070492D01*
X92366643Y-62941216D01*
X92374907Y-62934281D01*
X92534281Y-62774907D01*
X92541216Y-62766643D01*
X92646911Y-62615694D01*
X92701488Y-62572069D01*
X92770986Y-62564875D01*
X92833341Y-62596398D01*
X92863778Y-62641170D01*
X92877961Y-62676991D01*
X92915887Y-62772783D01*
X92920999Y-62779517D01*
X92920999Y-62779518D01*
X92960086Y-62831013D01*
X93007078Y-62892922D01*
X93013810Y-62898032D01*
X93072886Y-62942873D01*
X93127217Y-62984113D01*
X93135078Y-62987225D01*
X93135079Y-62987226D01*
X93260047Y-63036704D01*
X93260049Y-63036704D01*
X93267453Y-63039636D01*
X93275357Y-63040592D01*
X93275359Y-63040593D01*
X93328073Y-63046972D01*
X93357228Y-63050500D01*
X94642772Y-63050500D01*
X94671927Y-63046972D01*
X94724641Y-63040593D01*
X94724643Y-63040592D01*
X94732547Y-63039636D01*
X94739951Y-63036704D01*
X94739953Y-63036704D01*
X94864921Y-62987226D01*
X94864922Y-62987225D01*
X94872783Y-62984113D01*
X94927115Y-62942873D01*
X94986190Y-62898032D01*
X94992922Y-62892922D01*
X95039914Y-62831013D01*
X95079001Y-62779518D01*
X95079001Y-62779517D01*
X95084113Y-62772783D01*
X95116542Y-62690878D01*
X95136704Y-62639953D01*
X95136704Y-62639951D01*
X95139636Y-62632547D01*
X95141676Y-62615694D01*
X95150052Y-62546473D01*
X95150500Y-62542772D01*
X95150500Y-61007228D01*
X95145259Y-60963916D01*
X95140593Y-60925359D01*
X95140592Y-60925357D01*
X95139636Y-60917453D01*
X95123567Y-60876867D01*
X95087226Y-60785079D01*
X95087225Y-60785078D01*
X95084113Y-60777217D01*
X95048503Y-60730302D01*
X94998032Y-60663810D01*
X94992922Y-60657078D01*
X94941963Y-60618398D01*
X94879518Y-60570999D01*
X94879517Y-60570999D01*
X94872783Y-60565887D01*
X94864922Y-60562775D01*
X94864921Y-60562774D01*
X94739953Y-60513296D01*
X94739951Y-60513296D01*
X94732547Y-60510364D01*
X94724643Y-60509408D01*
X94724641Y-60509407D01*
X94663530Y-60502012D01*
X94642772Y-60499500D01*
X93357228Y-60499500D01*
X93336470Y-60502012D01*
X93275359Y-60509407D01*
X93275357Y-60509408D01*
X93267453Y-60510364D01*
X93260049Y-60513296D01*
X93260047Y-60513296D01*
X93135079Y-60562774D01*
X93135078Y-60562775D01*
X93127217Y-60565887D01*
X93120483Y-60570999D01*
X93120482Y-60570999D01*
X93058037Y-60618398D01*
X93007078Y-60657078D01*
X93001968Y-60663810D01*
X92951498Y-60730302D01*
X92915887Y-60777217D01*
X92912775Y-60785078D01*
X92912774Y-60785079D01*
X92863778Y-60908830D01*
X92820797Y-60963916D01*
X92754858Y-60987019D01*
X92686896Y-60970806D01*
X92646911Y-60934306D01*
X92541216Y-60783357D01*
X92534281Y-60775093D01*
X92374909Y-60615721D01*
X92366643Y-60608785D01*
X92182008Y-60479502D01*
X92172676Y-60474114D01*
X91968397Y-60378857D01*
X91958264Y-60375168D01*
X91767221Y-60323978D01*
X91753347Y-60324309D01*
X91750000Y-60332125D01*
X91750000Y-63212806D01*
X91250000Y-63212806D01*
X91250000Y-60337194D01*
X91246090Y-60323877D01*
X91237674Y-60322667D01*
X91041736Y-60375168D01*
X91031603Y-60378857D01*
X90827333Y-60474110D01*
X90817983Y-60479508D01*
X90633357Y-60608784D01*
X90625093Y-60615719D01*
X90465719Y-60775093D01*
X90458784Y-60783357D01*
X90329508Y-60967983D01*
X90324110Y-60977333D01*
X90252105Y-61131747D01*
X90205933Y-61184186D01*
X90138739Y-61203338D01*
X90071858Y-61183122D01*
X90028511Y-61134186D01*
X89987682Y-61051393D01*
X89987680Y-61051389D01*
X89985165Y-61046290D01*
X89858651Y-60876867D01*
X89854481Y-60873012D01*
X89854478Y-60873009D01*
X89743564Y-60770482D01*
X89703381Y-60733337D01*
X89593188Y-60663810D01*
X89529363Y-60623539D01*
X89529361Y-60623538D01*
X89524554Y-60620505D01*
X89328160Y-60542152D01*
X89322579Y-60541042D01*
X89322576Y-60541041D01*
X89224467Y-60521526D01*
X89120775Y-60500901D01*
X89115088Y-60500827D01*
X89115083Y-60500826D01*
X88915034Y-60498207D01*
X88915029Y-60498207D01*
X88909346Y-60498133D01*
X88903742Y-60499096D01*
X88903741Y-60499096D01*
X88706550Y-60532979D01*
X88706547Y-60532980D01*
X88700953Y-60533941D01*
X88502575Y-60607127D01*
X88497697Y-60610029D01*
X88497695Y-60610030D01*
X88325740Y-60712332D01*
X88325737Y-60712334D01*
X88320856Y-60715238D01*
X88161881Y-60854655D01*
X88158362Y-60859119D01*
X88158359Y-60859122D01*
X88140782Y-60881419D01*
X88030976Y-61020708D01*
X87932523Y-61207836D01*
X87869820Y-61409773D01*
X87869711Y-61410692D01*
X87837254Y-61470813D01*
X87776091Y-61504589D01*
X87706376Y-61499937D01*
X87650244Y-61458333D01*
X87629811Y-61417208D01*
X87580228Y-61241400D01*
X87578686Y-61235931D01*
X87485165Y-61046290D01*
X87358651Y-60876867D01*
X87354481Y-60873012D01*
X87354478Y-60873009D01*
X87243564Y-60770482D01*
X87203381Y-60733337D01*
X87093188Y-60663810D01*
X87029363Y-60623539D01*
X87029361Y-60623538D01*
X87024554Y-60620505D01*
X86828160Y-60542152D01*
X86822579Y-60541042D01*
X86822576Y-60541041D01*
X86724467Y-60521526D01*
X86620775Y-60500901D01*
X86615088Y-60500827D01*
X86615083Y-60500826D01*
X86415034Y-60498207D01*
X86415029Y-60498207D01*
X86409346Y-60498133D01*
X86403742Y-60499096D01*
X86403741Y-60499096D01*
X86206550Y-60532979D01*
X86206547Y-60532980D01*
X86200953Y-60533941D01*
X86002575Y-60607127D01*
X85997697Y-60610029D01*
X85997695Y-60610030D01*
X85825740Y-60712332D01*
X85825737Y-60712334D01*
X85820856Y-60715238D01*
X85661881Y-60854655D01*
X85658362Y-60859119D01*
X85658359Y-60859122D01*
X85640782Y-60881419D01*
X85530976Y-61020708D01*
X85432523Y-61207836D01*
X85369820Y-61409773D01*
X85369711Y-61410692D01*
X85337254Y-61470813D01*
X85276091Y-61504589D01*
X85206376Y-61499937D01*
X85150244Y-61458333D01*
X85129811Y-61417208D01*
X85080228Y-61241400D01*
X85078686Y-61235931D01*
X84985165Y-61046290D01*
X84858651Y-60876867D01*
X84854481Y-60873012D01*
X84854478Y-60873009D01*
X84743564Y-60770482D01*
X84703381Y-60733337D01*
X84593188Y-60663810D01*
X84529363Y-60623539D01*
X84529361Y-60623538D01*
X84524554Y-60620505D01*
X84328160Y-60542152D01*
X84322579Y-60541042D01*
X84322576Y-60541041D01*
X84224467Y-60521526D01*
X84120775Y-60500901D01*
X84115088Y-60500827D01*
X84115083Y-60500826D01*
X83915034Y-60498207D01*
X83915029Y-60498207D01*
X83909346Y-60498133D01*
X83903742Y-60499096D01*
X83903741Y-60499096D01*
X83706550Y-60532979D01*
X83706547Y-60532980D01*
X83700953Y-60533941D01*
X83502575Y-60607127D01*
X83497697Y-60610029D01*
X83497695Y-60610030D01*
X83325740Y-60712332D01*
X83325737Y-60712334D01*
X83320856Y-60715238D01*
X83161881Y-60854655D01*
X83158362Y-60859119D01*
X83158359Y-60859122D01*
X83140782Y-60881419D01*
X83030976Y-61020708D01*
X82932523Y-61207836D01*
X82869820Y-61409773D01*
X82869152Y-61415418D01*
X82869151Y-61415422D01*
X82862595Y-61470813D01*
X82849500Y-61581455D01*
X82849500Y-61953641D01*
X56100500Y-61953641D01*
X56100500Y-56662139D01*
X56102384Y-56640606D01*
X56103252Y-56635683D01*
X56105136Y-56625000D01*
X56103252Y-56614316D01*
X56103252Y-56609270D01*
X56102012Y-56590359D01*
X56102299Y-56583789D01*
X59195996Y-56583789D01*
X59204913Y-56821295D01*
X59205990Y-56826430D01*
X59205991Y-56826435D01*
X59252639Y-57048758D01*
X59253719Y-57053904D01*
X59341020Y-57274963D01*
X59343741Y-57279447D01*
X59343743Y-57279451D01*
X59411233Y-57390670D01*
X59464319Y-57478153D01*
X59620090Y-57657664D01*
X59803880Y-57808362D01*
X59808441Y-57810958D01*
X59808442Y-57810959D01*
X60005875Y-57923345D01*
X60005880Y-57923347D01*
X60010433Y-57925939D01*
X60233844Y-58007034D01*
X60467725Y-58049326D01*
X60492619Y-58050500D01*
X60659680Y-58050500D01*
X60662296Y-58050278D01*
X60662297Y-58050278D01*
X60831590Y-58035913D01*
X60836823Y-58035469D01*
X61066874Y-57975760D01*
X61283576Y-57878143D01*
X61480732Y-57745409D01*
X61652705Y-57581355D01*
X61794579Y-57390670D01*
X61796958Y-57385991D01*
X61899913Y-57183493D01*
X61899915Y-57183488D01*
X61902295Y-57178807D01*
X61972775Y-56951824D01*
X62004004Y-56716211D01*
X61999032Y-56583789D01*
X116345996Y-56583789D01*
X116354913Y-56821295D01*
X116355990Y-56826430D01*
X116355991Y-56826435D01*
X116402639Y-57048758D01*
X116403719Y-57053904D01*
X116491020Y-57274963D01*
X116493741Y-57279447D01*
X116493743Y-57279451D01*
X116561233Y-57390670D01*
X116614319Y-57478153D01*
X116770090Y-57657664D01*
X116953880Y-57808362D01*
X116958441Y-57810958D01*
X116958442Y-57810959D01*
X117155875Y-57923345D01*
X117155880Y-57923347D01*
X117160433Y-57925939D01*
X117383844Y-58007034D01*
X117617725Y-58049326D01*
X117642619Y-58050500D01*
X117809680Y-58050500D01*
X117812296Y-58050278D01*
X117812297Y-58050278D01*
X117981590Y-58035913D01*
X117986823Y-58035469D01*
X118216874Y-57975760D01*
X118433576Y-57878143D01*
X118630732Y-57745409D01*
X118802705Y-57581355D01*
X118944579Y-57390670D01*
X118946958Y-57385991D01*
X119049913Y-57183493D01*
X119049915Y-57183488D01*
X119052295Y-57178807D01*
X119122775Y-56951824D01*
X119154004Y-56716211D01*
X119145087Y-56478705D01*
X119117700Y-56348176D01*
X119097361Y-56251242D01*
X119097360Y-56251239D01*
X119096281Y-56246096D01*
X119088927Y-56227473D01*
X119010908Y-56029920D01*
X119008980Y-56025037D01*
X118941607Y-55914009D01*
X118888408Y-55826341D01*
X118885681Y-55821847D01*
X118729910Y-55642336D01*
X118546120Y-55491638D01*
X118500601Y-55465727D01*
X118344125Y-55376655D01*
X118344120Y-55376653D01*
X118339567Y-55374061D01*
X118116156Y-55292966D01*
X117882275Y-55250674D01*
X117857381Y-55249500D01*
X117690320Y-55249500D01*
X117687704Y-55249722D01*
X117687703Y-55249722D01*
X117676484Y-55250674D01*
X117513177Y-55264531D01*
X117283126Y-55324240D01*
X117066424Y-55421857D01*
X116869268Y-55554591D01*
X116697295Y-55718645D01*
X116555421Y-55909330D01*
X116553042Y-55914008D01*
X116553042Y-55914009D01*
X116498875Y-56020549D01*
X116447705Y-56121193D01*
X116377225Y-56348176D01*
X116345996Y-56583789D01*
X61999032Y-56583789D01*
X61995087Y-56478705D01*
X61967700Y-56348176D01*
X61947361Y-56251242D01*
X61947360Y-56251239D01*
X61946281Y-56246096D01*
X61938927Y-56227473D01*
X61860908Y-56029920D01*
X61858980Y-56025037D01*
X61791607Y-55914009D01*
X61738408Y-55826341D01*
X61735681Y-55821847D01*
X61579910Y-55642336D01*
X61396120Y-55491638D01*
X61350601Y-55465727D01*
X61194125Y-55376655D01*
X61194120Y-55376653D01*
X61189567Y-55374061D01*
X60966156Y-55292966D01*
X60732275Y-55250674D01*
X60707381Y-55249500D01*
X60540320Y-55249500D01*
X60537704Y-55249722D01*
X60537703Y-55249722D01*
X60526484Y-55250674D01*
X60363177Y-55264531D01*
X60133126Y-55324240D01*
X59916424Y-55421857D01*
X59719268Y-55554591D01*
X59547295Y-55718645D01*
X59405421Y-55909330D01*
X59403042Y-55914008D01*
X59403042Y-55914009D01*
X59348875Y-56020549D01*
X59297705Y-56121193D01*
X59227225Y-56348176D01*
X59195996Y-56583789D01*
X56102299Y-56583789D01*
X56117386Y-56238249D01*
X56118329Y-56227473D01*
X56168151Y-55849042D01*
X56170029Y-55838389D01*
X56252646Y-55465727D01*
X56255446Y-55455278D01*
X56370225Y-55091245D01*
X56373925Y-55081079D01*
X56461475Y-54869712D01*
X56520000Y-54728421D01*
X56524569Y-54718624D01*
X56700822Y-54380046D01*
X56706218Y-54370700D01*
X56911326Y-54048744D01*
X56917507Y-54039915D01*
X57149896Y-53737060D01*
X57156833Y-53728794D01*
X57414737Y-53447341D01*
X57422341Y-53439737D01*
X57703794Y-53181833D01*
X57712060Y-53174896D01*
X58014915Y-52942507D01*
X58023744Y-52936326D01*
X58345700Y-52731218D01*
X58355046Y-52725822D01*
X58693630Y-52549566D01*
X58703421Y-52545000D01*
X58844712Y-52486475D01*
X59056079Y-52398925D01*
X59066245Y-52395225D01*
X59430278Y-52280446D01*
X59440727Y-52277646D01*
X59813389Y-52195029D01*
X59824042Y-52193151D01*
X60202473Y-52143329D01*
X60213249Y-52142386D01*
X60243666Y-52141058D01*
X60565362Y-52127012D01*
X60584270Y-52128252D01*
X60589316Y-52128252D01*
X60600000Y-52130136D01*
X60615428Y-52127416D01*
X60637062Y-52125533D01*
X117712785Y-52175468D01*
G37*
%TD.AperFunction*%
%TD*%
M02*
