%TF.GenerationSoftware,KiCad,Pcbnew,(6.0.9)*%
%TF.CreationDate,2023-01-13T23:22:46-06:00*%
%TF.ProjectId,PlantHumidifier,506c616e-7448-4756-9d69-646966696572,A*%
%TF.SameCoordinates,Original*%
%TF.FileFunction,Soldermask,Top*%
%TF.FilePolarity,Negative*%
%FSLAX46Y46*%
G04 Gerber Fmt 4.6, Leading zero omitted, Abs format (unit mm)*
G04 Created by KiCad (PCBNEW (6.0.9)) date 2023-01-13 23:22:46*
%MOMM*%
%LPD*%
G01*
G04 APERTURE LIST*
G04 Aperture macros list*
%AMRoundRect*
0 Rectangle with rounded corners*
0 $1 Rounding radius*
0 $2 $3 $4 $5 $6 $7 $8 $9 X,Y pos of 4 corners*
0 Add a 4 corners polygon primitive as box body*
4,1,4,$2,$3,$4,$5,$6,$7,$8,$9,$2,$3,0*
0 Add four circle primitives for the rounded corners*
1,1,$1+$1,$2,$3*
1,1,$1+$1,$4,$5*
1,1,$1+$1,$6,$7*
1,1,$1+$1,$8,$9*
0 Add four rect primitives between the rounded corners*
20,1,$1+$1,$2,$3,$4,$5,0*
20,1,$1+$1,$4,$5,$6,$7,0*
20,1,$1+$1,$6,$7,$8,$9,0*
20,1,$1+$1,$8,$9,$2,$3,0*%
G04 Aperture macros list end*
%ADD10C,2.301600*%
%ADD11RoundRect,0.300800X0.600000X0.725000X-0.600000X0.725000X-0.600000X-0.725000X0.600000X-0.725000X0*%
%ADD12O,1.801600X2.051600*%
%ADD13RoundRect,0.275800X0.250000X-0.225000X0.250000X0.225000X-0.250000X0.225000X-0.250000X-0.225000X0*%
%ADD14RoundRect,0.190800X0.170000X-0.140000X0.170000X0.140000X-0.170000X0.140000X-0.170000X-0.140000X0*%
%ADD15RoundRect,0.300800X-0.725000X0.600000X-0.725000X-0.600000X0.725000X-0.600000X0.725000X0.600000X0*%
%ADD16O,2.051600X1.801600*%
%ADD17RoundRect,0.185800X0.185000X-0.135000X0.185000X0.135000X-0.185000X0.135000X-0.185000X-0.135000X0*%
%ADD18RoundRect,0.300800X0.725000X-0.600000X0.725000X0.600000X-0.725000X0.600000X-0.725000X-0.600000X0*%
%ADD19RoundRect,0.050800X-1.000000X-1.000000X1.000000X-1.000000X1.000000X1.000000X-1.000000X1.000000X0*%
%ADD20O,2.101600X1.701600*%
%ADD21RoundRect,0.050800X-0.654000X0.654000X-0.654000X-0.654000X0.654000X-0.654000X0.654000X0.654000X0*%
%ADD22C,1.409600*%
G04 APERTURE END LIST*
D10*
%TO.C,H4*%
X60600000Y-104750000D03*
%TD*%
D11*
%TO.C,J2*%
X94000000Y-61775000D03*
D12*
X91500000Y-61775000D03*
X89000000Y-61775000D03*
X86500000Y-61775000D03*
X84000000Y-61775000D03*
%TD*%
D13*
%TO.C,C1*%
X105384600Y-92799200D03*
X105384600Y-91249200D03*
%TD*%
D14*
%TO.C,C2*%
X103327200Y-92402600D03*
X103327200Y-91442600D03*
%TD*%
D15*
%TO.C,J4*%
X68000000Y-90300000D03*
D16*
X68000000Y-92800000D03*
X68000000Y-95300000D03*
X68000000Y-97800000D03*
%TD*%
D10*
%TO.C,H3*%
X117750000Y-104750000D03*
%TD*%
D17*
%TO.C,R2*%
X73507600Y-91010000D03*
X73507600Y-89990000D03*
%TD*%
D18*
%TO.C,J3*%
X110500000Y-88150000D03*
D16*
X110500000Y-85650000D03*
X110500000Y-83150000D03*
X110500000Y-80650000D03*
%TD*%
D10*
%TO.C,H2*%
X117750000Y-56650000D03*
%TD*%
%TO.C,H1*%
X60600000Y-56650000D03*
%TD*%
D19*
%TO.C,U1*%
X77574000Y-75565000D03*
D20*
X77574000Y-78105000D03*
X77574000Y-80645000D03*
X77574000Y-83185000D03*
X77574000Y-85725000D03*
X77574000Y-88265000D03*
X77574000Y-90805000D03*
X77574000Y-93345000D03*
X100434000Y-93345000D03*
X100434000Y-90805000D03*
X100434000Y-88265000D03*
X100434000Y-85725000D03*
X100434000Y-83185000D03*
X100434000Y-80645000D03*
X100434000Y-78105000D03*
X100434000Y-75565000D03*
%TD*%
D21*
%TO.C,J1*%
X68400000Y-77700000D03*
D22*
X68400000Y-79700000D03*
X68400000Y-81700000D03*
X68400000Y-83700000D03*
%TD*%
M02*
